<svg id="svg" version="1.1" xmlns="http://www.w3.org/2000/svg" xmlns:xlink="http://www.w3.org/1999/xlink" width="400"
  height="133.33333333333334" viewBox="0, 0, 400,133.33333333333334">
  <g id="svgg">
    <path id="path0"
      d="M58.549 15.657 C 56.845 15.741,56.440 15.813,56.049 16.105 L 55.583 16.453 55.553 67.996 L 55.522 119.539 56.048 120.019 C 56.579 120.504,57.962 120.661,60.667 120.545 C 67.691 120.241,69.751 119.986,74.000 118.893 C 76.757 118.183,78.978 117.445,80.417 116.759 C 81.058 116.453,81.819 116.153,82.107 116.092 C 82.395 116.031,82.984 115.757,83.416 115.484 C 83.848 115.210,84.556 114.851,84.991 114.685 C 85.426 114.520,86.125 114.148,86.546 113.859 C 86.966 113.570,87.356 113.333,87.413 113.333 C 87.533 113.333,91.565 110.579,92.667 109.744 C 94.841 108.097,97.158 106.000,99.250 103.784 C 100.487 102.474,102.370 100.220,102.750 99.595 C 103.206 98.845,104.390 97.298,104.715 97.029 C 104.862 96.907,105.105 96.436,105.256 95.982 C 105.407 95.528,105.712 94.940,105.935 94.676 C 106.157 94.411,106.532 93.757,106.767 93.222 C 107.003 92.688,107.358 91.989,107.556 91.670 C 107.984 90.980,108.870 88.909,109.481 87.167 C 109.723 86.479,110.046 85.729,110.201 85.500 C 110.355 85.271,110.603 84.492,110.752 83.769 C 110.901 83.046,111.176 82.071,111.363 81.602 C 111.550 81.133,111.911 79.512,112.165 78.000 C 112.420 76.487,112.727 75.025,112.848 74.750 C 113.263 73.806,113.159 63.275,112.716 61.417 C 112.519 60.592,112.272 59.175,112.165 58.269 C 112.059 57.363,111.837 56.126,111.673 55.519 C 110.927 52.775,110.425 51.193,110.079 50.500 C 109.872 50.087,109.588 49.359,109.446 48.882 C 109.305 48.404,109.002 47.692,108.775 47.298 C 108.547 46.905,108.279 46.275,108.180 45.898 C 108.081 45.521,107.800 44.921,107.557 44.565 C 107.313 44.208,106.939 43.472,106.724 42.928 C 106.510 42.384,106.193 41.784,106.019 41.595 C 105.846 41.405,105.553 40.950,105.368 40.583 C 104.992 39.839,103.685 37.860,103.058 37.087 C 101.309 34.930,99.287 32.574,98.406 31.667 C 96.427 29.630,93.635 27.084,93.014 26.750 C 92.673 26.567,92.137 26.213,91.822 25.964 C 90.588 24.987,89.223 24.030,88.667 23.752 C 88.346 23.591,87.971 23.364,87.833 23.247 C 85.898 21.599,76.176 17.579,73.112 17.159 C 72.392 17.061,71.340 16.837,70.772 16.661 C 69.311 16.210,67.704 16.010,64.167 15.840 C 62.471 15.759,60.971 15.662,60.833 15.625 C 60.696 15.588,59.668 15.603,58.549 15.657 M46.917 17.428 C 44.519 18.126,42.559 18.785,40.583 19.559 C 38.992 20.182,33.615 22.849,33.177 23.233 C 33.034 23.359,32.579 23.630,32.167 23.836 C 31.754 24.041,31.102 24.481,30.717 24.813 C 30.332 25.145,29.822 25.567,29.583 25.750 C 29.001 26.196,29.131 27.362,29.812 27.803 C 30.050 27.957,33.900 31.740,38.367 36.208 C 42.834 40.677,46.563 44.333,46.653 44.333 C 46.743 44.333,47.166 44.824,47.594 45.423 C 48.077 46.099,48.613 46.636,49.008 46.837 C 49.358 47.016,49.691 47.238,49.749 47.331 C 49.917 47.604,50.141 47.528,50.420 47.102 C 50.807 46.510,50.797 17.974,50.409 17.382 C 50.076 16.873,48.765 16.891,46.917 17.428 M148.189 27.778 C 147.391 28.737,146.867 29.736,146.584 30.833 C 146.431 31.429,146.164 32.147,145.991 32.428 C 145.699 32.903,145.386 33.714,143.911 37.806 C 143.602 38.662,143.264 39.467,143.158 39.594 C 143.053 39.721,142.789 40.399,142.573 41.101 C 142.356 41.802,142.062 42.506,141.919 42.664 C 141.776 42.822,141.506 43.506,141.319 44.184 C 141.132 44.862,140.841 45.653,140.671 45.943 C 140.502 46.232,140.167 47.113,139.926 47.900 C 139.686 48.687,139.347 49.576,139.172 49.874 C 138.997 50.173,138.704 50.962,138.520 51.628 C 138.337 52.294,138.039 53.026,137.859 53.255 C 137.679 53.483,137.441 54.063,137.330 54.544 C 137.218 55.024,136.919 55.792,136.665 56.250 C 136.411 56.708,136.076 57.531,135.920 58.078 C 135.764 58.626,135.489 59.363,135.308 59.716 C 134.985 60.350,134.239 62.315,133.335 64.917 C 133.080 65.650,132.719 66.513,132.533 66.834 C 132.346 67.154,132.065 67.942,131.907 68.583 C 131.749 69.225,131.413 70.125,131.160 70.583 C 130.907 71.042,130.573 71.867,130.418 72.417 C 130.264 72.967,130.000 73.642,129.833 73.917 C 129.666 74.192,129.403 74.867,129.248 75.417 C 129.093 75.967,128.827 76.659,128.657 76.956 C 128.487 77.253,128.163 78.078,127.937 78.789 C 127.712 79.501,127.156 80.908,126.701 81.917 C 126.247 82.925,125.705 84.350,125.496 85.083 C 125.288 85.817,124.915 86.829,124.668 87.333 C 124.420 87.837,124.084 88.662,123.919 89.167 C 123.755 89.671,123.452 90.383,123.246 90.750 C 123.040 91.117,122.709 91.931,122.511 92.560 C 122.313 93.189,122.048 93.864,121.924 94.060 C 121.799 94.256,121.533 95.017,121.333 95.750 C 121.133 96.483,120.798 97.383,120.587 97.750 C 120.377 98.117,120.072 98.904,119.909 99.500 C 119.747 100.096,119.445 100.883,119.238 101.250 C 119.031 101.617,118.744 102.322,118.599 102.817 C 118.454 103.312,118.192 103.962,118.016 104.260 C 117.840 104.558,117.494 105.465,117.247 106.275 C 117.000 107.085,116.629 108.086,116.422 108.499 C 116.215 108.912,115.914 109.655,115.752 110.149 C 115.590 110.644,115.279 111.310,115.062 111.631 C 114.616 112.288,114.490 114.038,114.872 114.274 C 115.303 114.540,129.890 114.329,130.199 114.052 C 130.542 113.744,131.520 111.446,132.012 109.792 C 132.209 109.127,132.544 108.243,132.754 107.826 C 132.965 107.410,133.266 106.622,133.423 106.076 C 133.581 105.530,133.882 104.740,134.092 104.321 C 134.303 103.902,134.599 103.082,134.750 102.498 C 134.902 101.914,135.168 101.158,135.342 100.817 C 135.646 100.220,136.334 98.350,137.367 95.316 C 137.749 94.192,138.006 93.733,138.555 93.195 L 139.255 92.508 153.879 92.495 C 161.923 92.489,168.582 92.531,168.676 92.589 C 169.119 92.863,170.179 94.426,170.346 95.052 C 170.448 95.436,170.783 96.296,171.090 96.962 C 171.397 97.629,171.804 98.740,171.993 99.430 C 172.183 100.121,172.490 100.892,172.676 101.144 C 172.862 101.396,173.130 102.048,173.270 102.593 C 173.411 103.137,173.697 103.883,173.907 104.250 C 174.116 104.617,174.415 105.306,174.571 105.782 C 174.726 106.258,174.988 106.821,175.152 107.032 C 175.460 107.428,175.890 108.638,176.090 109.667 C 176.152 109.987,176.347 110.513,176.523 110.833 C 176.699 111.154,177.050 111.979,177.302 112.667 C 177.985 114.525,177.437 114.417,185.917 114.370 C 189.858 114.348,193.294 114.286,193.552 114.233 C 194.358 114.066,194.576 112.931,193.993 111.942 C 193.805 111.624,193.510 110.867,193.336 110.260 C 193.162 109.653,192.872 108.914,192.692 108.619 C 192.511 108.325,192.236 107.633,192.081 107.083 C 191.926 106.533,191.612 105.757,191.383 105.359 C 191.155 104.961,190.832 104.162,190.667 103.583 C 190.501 103.005,190.174 102.204,189.939 101.804 C 189.705 101.403,189.428 100.665,189.323 100.163 C 189.219 99.661,188.980 98.987,188.793 98.667 C 188.384 97.968,187.273 95.340,186.750 93.833 C 186.543 93.237,186.214 92.480,186.019 92.151 C 185.823 91.821,185.546 91.146,185.401 90.651 C 185.257 90.155,185.006 89.520,184.843 89.239 C 184.681 88.958,184.377 88.208,184.168 87.573 C 183.959 86.937,183.604 86.099,183.380 85.711 C 183.155 85.323,182.865 84.548,182.734 83.989 C 182.604 83.429,182.319 82.659,182.100 82.277 C 181.882 81.896,181.610 81.283,181.496 80.917 C 181.381 80.550,181.101 79.878,180.873 79.423 C 180.645 78.969,180.311 78.144,180.131 77.590 C 179.951 77.036,179.667 76.358,179.501 76.083 C 179.335 75.808,179.035 75.021,178.835 74.333 C 178.635 73.646,178.338 72.854,178.176 72.573 C 178.014 72.292,177.712 71.542,177.506 70.906 C 177.299 70.270,176.956 69.487,176.743 69.167 C 176.530 68.846,176.233 68.099,176.081 67.506 C 175.930 66.914,175.633 66.126,175.422 65.756 C 175.211 65.386,174.869 64.558,174.663 63.917 C 174.456 63.275,174.140 62.457,173.960 62.099 C 173.780 61.741,173.521 61.071,173.385 60.611 C 173.248 60.151,172.927 59.394,172.672 58.929 C 172.416 58.464,172.119 57.708,172.010 57.250 C 171.902 56.792,171.641 56.153,171.430 55.830 C 171.219 55.507,170.916 54.798,170.758 54.254 C 170.600 53.709,170.296 52.920,170.083 52.500 C 169.870 52.080,169.569 51.289,169.414 50.743 C 169.259 50.197,168.961 49.450,168.751 49.083 C 168.541 48.717,168.257 48.036,168.119 47.571 C 167.981 47.106,167.684 46.356,167.457 45.904 C 167.231 45.453,166.953 44.783,166.839 44.417 C 166.726 44.050,166.420 43.262,166.159 42.667 C 165.362 40.845,164.825 39.495,164.168 37.667 C 163.395 35.514,162.437 33.165,161.925 32.167 C 161.713 31.754,161.446 31.117,161.330 30.750 C 161.069 29.920,160.066 28.012,159.694 27.637 C 159.448 27.390,158.802 27.352,154.022 27.304 L 148.628 27.250 148.189 27.778 M327.833 27.357 C 326.947 27.516,328.835 27.511,291.356 27.455 L 261.629 27.411 261.072 27.790 C 260.268 28.336,260.228 28.671,260.282 34.463 C 260.333 40.064,260.396 40.493,261.207 40.774 C 261.414 40.846,266.776 40.907,273.122 40.910 L 284.660 40.917 285.122 41.417 L 285.583 41.917 285.500 77.333 C 285.409 116.075,285.349 113.574,286.386 114.110 C 286.963 114.409,300.455 114.459,301.005 114.164 C 301.698 113.793,301.684 114.527,301.718 77.420 L 301.750 41.787 302.349 41.302 C 302.679 41.035,303.092 40.821,303.266 40.827 C 305.777 40.910,324.342 40.901,324.589 40.817 C 324.776 40.754,325.053 40.450,325.206 40.143 C 325.902 38.737,326.813 36.530,326.916 36.000 C 326.978 35.679,327.244 34.995,327.506 34.480 C 327.769 33.966,328.075 33.178,328.186 32.730 C 328.297 32.283,328.598 31.504,328.856 31.000 C 330.142 28.487,329.729 27.016,327.833 27.357 M353.793 27.262 C 353.734 27.321,352.552 27.360,351.167 27.348 C 347.641 27.317,346.969 27.633,346.410 29.583 C 346.252 30.133,345.908 31.041,345.645 31.599 C 345.382 32.158,345.167 32.712,345.167 32.829 C 345.167 32.946,344.953 33.464,344.692 33.979 C 344.431 34.495,344.122 35.329,344.007 35.833 C 343.891 36.337,343.615 37.066,343.395 37.452 C 343.174 37.838,342.778 38.775,342.515 39.535 C 342.252 40.295,341.764 41.704,341.431 42.667 C 341.098 43.629,340.684 44.679,340.511 45.000 C 340.338 45.321,340.067 46.032,339.909 46.580 C 339.750 47.128,339.451 47.841,339.243 48.163 C 339.035 48.486,338.739 49.198,338.584 49.745 C 338.429 50.292,338.156 51.028,337.976 51.380 C 337.797 51.732,337.495 52.522,337.306 53.135 C 337.117 53.748,336.753 54.664,336.497 55.171 C 336.242 55.677,335.943 56.427,335.832 56.837 C 335.722 57.246,335.486 57.868,335.307 58.218 C 335.129 58.568,334.769 59.468,334.509 60.219 C 333.523 63.059,332.852 64.844,332.449 65.699 C 332.220 66.185,331.943 66.920,331.833 67.331 C 331.723 67.742,331.463 68.417,331.256 68.831 C 331.049 69.245,330.708 70.104,330.499 70.739 C 330.290 71.375,329.986 72.125,329.823 72.406 C 329.660 72.687,329.438 73.254,329.329 73.667 C 329.221 74.079,328.840 75.101,328.483 75.937 C 328.126 76.773,327.833 77.567,327.833 77.700 C 327.833 77.834,327.645 78.312,327.415 78.763 C 327.184 79.214,326.840 80.108,326.650 80.750 C 326.460 81.392,326.114 82.245,325.882 82.647 C 325.650 83.049,325.356 83.824,325.229 84.370 C 325.101 84.916,324.815 85.674,324.592 86.056 C 324.368 86.438,323.965 87.350,323.696 88.083 C 322.220 92.097,321.966 92.758,321.838 92.913 C 321.762 93.007,321.533 93.646,321.330 94.333 C 321.127 95.021,320.792 95.846,320.584 96.167 C 320.377 96.487,320.120 97.115,320.013 97.561 C 319.906 98.006,319.603 98.800,319.338 99.324 C 319.074 99.848,318.734 100.752,318.583 101.333 C 318.433 101.915,318.089 102.826,317.820 103.359 C 317.551 103.893,317.250 104.724,317.152 105.206 C 317.054 105.689,316.823 106.295,316.639 106.554 C 316.455 106.813,316.130 107.525,315.916 108.137 C 315.460 109.444,314.955 110.718,314.374 112.023 C 313.625 113.709,314.227 114.726,315.794 114.422 C 316.137 114.355,316.529 114.310,316.667 114.322 C 316.804 114.334,319.579 114.360,322.833 114.380 L 328.750 114.417 329.379 114.026 C 330.110 113.571,330.446 112.998,330.668 111.827 C 330.756 111.365,331.086 110.446,331.401 109.785 C 331.717 109.124,332.027 108.283,332.089 107.917 C 332.151 107.550,332.373 106.983,332.582 106.657 C 332.791 106.331,333.125 105.469,333.324 104.741 C 333.523 104.012,333.837 103.159,334.023 102.844 C 334.208 102.528,334.539 101.578,334.759 100.732 C 334.979 99.886,335.342 98.924,335.565 98.594 C 335.789 98.265,336.022 97.678,336.084 97.289 C 336.146 96.901,336.380 96.300,336.604 95.953 C 336.829 95.606,337.076 94.978,337.155 94.558 C 337.536 92.519,336.726 92.622,353.000 92.545 C 369.902 92.465,368.755 92.341,369.414 94.326 C 369.577 94.815,369.881 95.468,370.090 95.776 C 370.300 96.085,370.521 96.656,370.582 97.044 C 370.643 97.432,370.942 98.278,371.247 98.923 C 371.552 99.569,371.892 100.431,372.002 100.839 C 372.112 101.247,372.349 101.871,372.530 102.225 C 372.710 102.578,373.046 103.429,373.277 104.116 C 373.507 104.802,373.833 105.601,374.001 105.890 C 374.169 106.180,374.395 106.752,374.503 107.162 C 374.611 107.573,374.915 108.335,375.179 108.857 C 375.442 109.379,375.820 110.281,376.019 110.861 C 376.449 112.117,377.415 114.095,377.679 114.257 C 378.001 114.457,392.823 114.453,393.225 114.253 C 393.847 113.944,393.793 112.801,393.073 111.060 C 392.737 110.248,392.284 109.072,392.068 108.447 C 391.851 107.823,391.514 107.087,391.318 106.812 C 391.123 106.538,390.855 105.901,390.724 105.396 C 390.592 104.891,390.269 104.052,390.006 103.531 C 389.744 103.010,389.440 102.246,389.332 101.833 C 389.224 101.421,388.991 100.821,388.813 100.500 C 388.636 100.179,388.276 99.317,388.013 98.583 C 387.374 96.802,386.398 94.423,385.927 93.500 C 385.717 93.087,385.459 92.399,385.356 91.969 C 385.252 91.539,384.905 90.677,384.584 90.052 C 384.264 89.428,384.001 88.821,384.001 88.704 C 384.000 88.586,383.781 88.057,383.514 87.528 C 383.247 86.999,382.900 86.120,382.743 85.575 C 382.586 85.029,382.271 84.214,382.044 83.762 C 381.817 83.311,381.519 82.561,381.381 82.096 C 381.243 81.631,380.957 80.950,380.744 80.583 C 380.532 80.217,380.234 79.432,380.082 78.840 C 379.930 78.248,379.669 77.571,379.502 77.336 C 379.335 77.101,379.071 76.461,378.915 75.913 C 378.760 75.365,378.463 74.617,378.256 74.250 C 378.049 73.883,377.708 73.058,377.500 72.417 C 377.291 71.775,376.950 70.909,376.742 70.493 C 376.533 70.076,376.236 69.289,376.081 68.743 C 375.926 68.197,375.619 67.435,375.398 67.050 C 375.177 66.666,374.853 65.891,374.678 65.328 C 374.503 64.765,374.239 64.172,374.093 64.010 C 373.946 63.848,373.674 63.168,373.489 62.500 C 373.303 61.831,372.976 60.976,372.761 60.600 C 372.547 60.224,372.240 59.504,372.079 59.000 C 371.919 58.496,371.617 57.744,371.410 57.329 C 371.202 56.914,370.864 56.014,370.658 55.329 C 370.453 54.644,370.153 53.894,369.991 53.663 C 369.830 53.432,369.571 52.794,369.415 52.246 C 369.260 51.698,368.963 50.950,368.756 50.583 C 368.549 50.217,368.210 49.392,368.004 48.750 C 367.798 48.108,367.536 47.433,367.423 47.250 C 367.310 47.067,367.083 46.504,366.919 46.000 C 366.755 45.496,366.413 44.668,366.159 44.161 C 365.906 43.654,365.541 42.760,365.349 42.174 C 365.157 41.589,364.851 40.859,364.670 40.552 C 364.489 40.245,364.220 39.526,364.073 38.955 C 363.926 38.384,363.659 37.679,363.481 37.388 C 363.302 37.098,362.973 36.323,362.750 35.667 C 362.527 35.010,362.198 34.236,362.019 33.945 C 361.841 33.654,361.575 32.951,361.428 32.382 C 360.542 28.944,358.993 26.998,357.351 27.257 C 356.532 27.386,355.025 27.377,354.325 27.239 C 354.092 27.193,353.852 27.203,353.793 27.262 M203.056 27.559 C 202.297 27.984,202.326 26.212,202.337 70.973 C 202.346 110.374,202.365 113.146,202.632 113.679 L 202.917 114.250 218.417 114.299 C 231.619 114.340,234.053 114.311,234.833 114.103 C 235.338 113.969,236.819 113.702,238.125 113.511 C 239.702 113.280,240.917 112.998,241.742 112.670 C 242.425 112.399,243.455 112.101,244.030 112.008 C 244.606 111.915,245.280 111.689,245.528 111.505 C 245.777 111.321,246.379 110.983,246.865 110.753 C 249.028 109.732,251.755 107.742,253.608 105.833 C 255.543 103.839,255.799 103.540,256.597 102.333 C 257.760 100.578,260.000 95.736,260.000 94.979 C 260.000 94.761,260.199 93.796,260.442 92.833 C 261.076 90.318,261.210 85.561,260.692 83.972 C 260.502 83.391,260.229 82.393,260.084 81.752 C 259.939 81.112,259.661 80.325,259.468 80.002 C 259.274 79.680,258.996 79.042,258.849 78.583 C 258.053 76.089,253.462 71.312,251.159 70.581 C 250.943 70.512,250.215 70.166,249.542 69.811 C 248.868 69.457,248.185 69.167,248.022 69.167 C 247.111 69.167,246.029 68.656,245.849 68.140 C 245.563 67.319,245.612 67.228,246.549 66.847 C 247.767 66.353,251.459 62.735,252.158 61.351 C 252.423 60.826,252.759 60.298,252.905 60.177 C 253.051 60.055,253.289 59.548,253.434 59.049 C 253.579 58.550,253.903 57.750,254.155 57.272 C 255.047 55.576,255.358 49.753,254.774 45.667 C 254.461 43.479,254.412 43.354,252.250 39.204 C 251.094 36.986,249.086 34.558,247.250 33.159 C 246.792 32.810,246.042 32.234,245.583 31.880 C 244.336 30.917,242.018 29.743,240.375 29.242 C 239.573 28.998,238.718 28.695,238.474 28.570 C 238.231 28.444,237.481 28.263,236.808 28.167 C 236.134 28.071,234.983 27.880,234.250 27.743 C 232.739 27.460,203.540 27.287,203.056 27.559 M67.917 29.025 C 68.192 29.542,68.539 30.104,68.688 30.274 C 68.838 30.444,69.090 30.846,69.249 31.167 C 69.408 31.488,69.714 31.939,69.929 32.169 C 70.144 32.399,70.430 32.898,70.563 33.277 C 70.697 33.656,71.038 34.285,71.320 34.675 C 71.602 35.064,71.833 35.470,71.833 35.576 C 71.833 35.682,72.069 36.139,72.357 36.592 C 72.645 37.046,73.089 37.930,73.345 38.557 C 73.600 39.184,73.918 39.822,74.050 39.974 C 74.414 40.391,74.878 41.964,74.768 42.404 C 74.465 43.612,74.533 43.602,67.927 43.441 C 66.300 43.401,66.326 43.503,66.247 36.633 C 66.210 33.345,66.108 30.669,66.008 30.334 C 65.623 29.050,65.815 28.312,66.583 28.119 C 67.223 27.958,67.420 28.092,67.917 29.025 M23.090 31.260 L 21.597 32.678 22.007 33.435 C 22.381 34.127,24.359 36.167,24.655 36.167 C 24.724 36.167,25.253 36.723,25.832 37.402 C 26.410 38.081,27.069 38.736,27.295 38.858 C 27.522 38.979,27.993 39.498,28.341 40.012 C 28.690 40.525,29.187 41.079,29.446 41.242 C 29.972 41.574,30.510 42.079,32.333 43.950 C 33.021 44.655,33.941 45.574,34.378 45.991 C 34.814 46.409,36.554 48.137,38.244 49.833 C 41.911 53.514,41.360 52.965,43.868 55.434 C 46.450 57.977,47.950 58.711,49.354 58.117 C 51.477 57.219,51.128 54.987,48.442 52.277 C 47.512 51.338,44.756 48.548,42.320 46.076 C 39.883 43.605,37.108 40.833,36.153 39.916 C 35.198 39.000,33.704 37.529,32.833 36.648 C 31.962 35.767,30.474 34.267,29.525 33.315 C 28.577 32.362,27.414 31.190,26.942 30.708 C 25.586 29.326,25.043 29.404,23.090 31.260 M82.750 32.382 C 83.025 32.568,83.475 32.919,83.750 33.162 C 84.025 33.406,84.438 33.732,84.667 33.886 C 84.896 34.041,85.458 34.418,85.917 34.725 C 86.375 35.031,87.200 35.697,87.750 36.205 C 88.300 36.712,89.355 37.680,90.094 38.355 C 90.833 39.031,91.720 39.979,92.065 40.463 C 92.411 40.947,92.875 41.462,93.097 41.607 C 94.302 42.397,93.427 43.770,91.906 43.476 C 91.451 43.388,90.243 43.367,89.203 43.429 C 86.193 43.608,85.497 43.255,85.083 41.340 C 85.014 41.022,84.785 40.497,84.572 40.173 C 84.360 39.849,84.134 39.358,84.070 39.083 C 83.942 38.539,82.622 35.967,81.829 34.717 C 81.556 34.287,81.333 33.850,81.333 33.746 C 81.333 33.643,81.146 33.382,80.917 33.167 C 79.723 32.045,81.269 31.383,82.750 32.382 M18.122 37.115 C 17.960 37.158,17.668 37.505,17.473 37.888 C 17.278 38.270,16.880 38.883,16.589 39.250 C 15.647 40.435,14.645 42.020,14.402 42.709 C 14.272 43.078,14.021 43.613,13.846 43.898 C 13.670 44.183,13.367 44.821,13.173 45.316 C 12.978 45.811,12.676 46.398,12.501 46.620 C 12.326 46.842,12.063 47.437,11.916 47.943 C 11.769 48.449,11.427 49.287,11.156 49.806 C 10.884 50.325,10.580 51.237,10.480 51.833 C 10.380 52.429,10.162 53.155,9.995 53.446 C 9.712 53.941,9.223 55.524,9.046 56.518 C 8.958 57.013,9.561 58.331,9.878 58.337 C 10.861 58.356,34.996 58.302,35.250 58.281 C 35.433 58.265,36.197 58.316,36.948 58.393 C 37.910 58.492,38.492 58.474,38.922 58.331 L 39.532 58.130 39.420 57.357 C 39.359 56.931,39.183 56.463,39.029 56.315 C 38.876 56.168,37.962 55.344,37.000 54.485 C 36.037 53.625,35.144 52.779,35.015 52.603 C 34.886 52.428,34.631 52.164,34.449 52.017 C 34.266 51.870,32.188 49.800,29.831 47.417 C 27.474 45.033,25.359 42.896,25.131 42.667 C 24.903 42.438,23.835 41.425,22.758 40.417 C 20.713 38.501,20.632 38.420,19.913 37.542 C 19.473 37.004,18.991 36.889,18.122 37.115 M228.863 41.171 C 230.956 41.338,231.310 41.423,233.250 42.227 C 234.394 42.700,236.648 44.564,237.194 45.486 C 237.388 45.815,237.733 46.363,237.960 46.705 C 238.530 47.561,239.033 49.796,239.001 51.333 C 238.987 52.021,238.982 52.838,238.990 53.149 C 239.013 54.091,238.514 55.657,237.615 57.463 C 235.398 61.919,231.616 63.502,223.083 63.548 L 219.083 63.570 218.792 62.993 C 218.524 62.463,218.500 61.593,218.500 52.148 L 218.500 41.879 218.907 41.472 C 219.383 40.996,224.679 40.836,228.863 41.171 M154.323 50.958 C 154.439 51.210,154.672 51.904,154.841 52.500 C 155.287 54.071,156.423 57.329,156.743 57.951 C 156.894 58.245,157.168 59.033,157.352 59.701 C 157.537 60.370,157.795 61.082,157.925 61.283 C 158.056 61.485,158.348 62.289,158.575 63.070 C 158.801 63.851,159.097 64.704,159.233 64.966 C 159.368 65.228,159.675 66.142,159.916 66.997 C 160.156 67.852,160.492 68.824,160.661 69.156 C 160.831 69.488,161.097 70.208,161.254 70.755 C 161.410 71.302,161.681 72.012,161.856 72.333 C 162.030 72.654,162.463 73.854,162.817 75.000 C 163.170 76.146,163.553 77.308,163.666 77.583 C 163.826 77.973,163.828 78.243,163.675 78.810 L 163.477 79.536 154.864 79.440 C 143.584 79.313,144.479 79.375,144.142 78.700 C 143.856 78.126,144.282 76.383,145.091 74.818 C 145.239 74.533,145.763 73.146,146.258 71.735 C 146.752 70.325,147.264 69.001,147.396 68.794 C 147.528 68.586,147.802 67.817,148.004 67.083 C 148.207 66.350,148.545 65.407,148.757 64.988 C 148.969 64.569,149.266 63.747,149.418 63.161 C 149.570 62.575,149.866 61.793,150.076 61.423 C 150.286 61.053,150.583 60.236,150.736 59.607 C 150.888 58.978,151.198 58.099,151.424 57.653 C 151.649 57.207,151.987 56.189,152.173 55.390 C 152.359 54.591,152.652 53.708,152.824 53.427 C 152.996 53.146,153.222 52.579,153.326 52.167 C 153.578 51.170,153.846 50.500,153.993 50.500 C 154.059 50.500,154.208 50.706,154.323 50.958 M354.337 51.961 C 354.655 53.540,355.122 55.144,355.853 57.167 C 357.316 61.214,358.032 63.306,358.477 64.833 C 358.731 65.704,359.055 66.642,359.197 66.917 C 359.339 67.192,359.586 67.829,359.746 68.333 C 359.906 68.837,360.289 69.817,360.597 70.510 C 360.905 71.203,361.276 72.286,361.423 72.916 C 361.569 73.547,361.835 74.269,362.015 74.520 C 362.194 74.772,362.421 75.413,362.519 75.944 C 362.617 76.475,362.803 77.114,362.932 77.363 C 363.258 77.993,363.225 78.775,362.858 79.142 C 362.565 79.435,362.055 79.452,352.858 79.470 L 343.167 79.489 343.167 78.655 C 343.167 78.189,343.279 77.651,343.421 77.434 C 343.560 77.221,343.891 76.417,344.156 75.648 C 345.053 73.039,345.972 70.586,346.303 69.917 C 346.484 69.550,346.723 68.914,346.833 68.503 C 346.944 68.092,347.214 67.400,347.435 66.965 C 347.655 66.530,347.919 65.778,348.021 65.295 C 348.124 64.812,348.324 64.192,348.466 63.917 C 348.812 63.249,350.081 59.929,350.664 58.167 C 350.922 57.387,351.285 56.413,351.471 56.000 C 351.656 55.587,351.969 54.387,352.166 53.333 C 352.564 51.202,352.576 51.181,353.360 51.009 C 354.101 50.846,354.115 50.860,354.337 51.961 M77.049 53.435 C 78.346 53.582,78.441 53.759,78.760 56.595 C 78.903 57.872,79.125 59.292,79.253 59.750 C 80.108 62.815,80.007 62.866,72.923 62.939 C 70.084 62.968,67.675 63.025,67.568 63.066 C 67.461 63.107,67.121 62.880,66.812 62.561 L 66.250 61.982 66.193 57.998 L 66.136 54.014 66.675 53.686 C 67.245 53.339,74.624 53.161,77.049 53.435 M99.605 53.582 C 99.806 53.714,100.025 54.067,100.091 54.367 C 100.157 54.667,100.431 55.333,100.700 55.847 C 101.070 56.552,101.222 57.125,101.318 58.184 C 101.388 58.955,101.574 59.856,101.731 60.186 C 102.230 61.239,102.171 62.166,101.579 62.571 C 101.095 62.903,100.874 62.916,96.106 62.899 L 91.138 62.881 90.759 62.482 C 90.189 61.883,89.856 60.845,89.653 59.041 C 89.553 58.148,89.371 56.667,89.250 55.750 C 88.920 53.247,88.615 53.385,94.518 53.361 C 98.369 53.346,99.306 53.386,99.605 53.582 M33.833 63.160 C 33.329 63.227,27.713 63.255,21.353 63.224 C 9.205 63.163,8.695 63.189,8.376 63.889 C 8.107 64.479,8.050 71.431,8.308 72.190 C 8.597 73.041,7.524 73.001,29.552 72.982 C 50.333 72.965,49.963 72.977,50.304 72.274 C 50.667 71.526,50.648 64.168,50.281 63.608 L 50.004 63.184 43.460 63.217 C 39.861 63.235,36.429 63.202,35.833 63.144 C 35.237 63.086,34.337 63.093,33.833 63.160 M79.013 73.440 L 79.583 73.777 79.542 74.959 C 79.519 75.608,79.384 76.652,79.242 77.278 C 79.100 77.904,78.911 79.129,78.823 80.000 C 78.545 82.722,78.745 82.643,72.026 82.657 C 66.027 82.669,66.405 82.826,66.254 80.264 C 66.193 79.248,66.168 77.370,66.197 76.090 L 66.250 73.763 66.755 73.423 C 67.532 72.900,78.125 72.914,79.013 73.440 M101.445 73.373 C 102.354 73.789,102.353 73.782,101.891 75.917 C 101.090 79.616,100.435 81.577,99.744 82.340 C 99.301 82.830,90.151 82.840,89.515 82.351 C 88.985 81.943,89.210 78.631,89.944 76.022 C 90.083 75.529,90.151 74.887,90.096 74.594 C 89.993 74.044,90.276 73.642,91.083 73.194 C 91.723 72.839,100.613 72.993,101.445 73.373 M228.833 77.146 L 235.083 77.257 237.083 78.104 C 241.665 80.044,243.478 82.209,244.182 86.583 L 244.504 88.583 244.151 90.583 C 243.897 92.018,243.668 92.799,243.340 93.346 C 243.089 93.766,242.754 94.446,242.597 94.858 C 242.194 95.912,239.169 98.500,238.014 98.778 C 237.777 98.835,237.096 99.123,236.500 99.418 C 234.556 100.380,230.969 100.750,223.587 100.750 L 219.090 100.750 218.737 100.083 C 218.228 99.121,218.326 78.173,218.843 77.487 C 219.157 77.070,221.109 76.758,222.167 76.956 C 222.396 76.999,225.396 77.084,228.833 77.146 M9.805 77.783 C 8.997 78.708,8.999 80.442,9.810 81.956 C 9.915 82.153,10.185 83.002,10.410 83.842 C 10.635 84.683,10.967 85.654,11.147 86.000 C 11.327 86.346,11.630 87.131,11.820 87.746 C 12.010 88.360,12.318 89.078,12.506 89.342 C 12.693 89.605,12.991 90.239,13.167 90.750 C 13.343 91.261,13.656 91.918,13.864 92.209 C 14.071 92.501,14.442 93.164,14.687 93.683 C 14.933 94.202,15.222 94.681,15.331 94.748 C 15.439 94.815,15.676 95.218,15.857 95.643 C 16.039 96.069,16.399 96.642,16.657 96.917 C 16.916 97.192,17.318 97.725,17.551 98.101 C 18.147 99.065,19.201 99.361,19.731 98.713 C 19.925 98.477,20.721 97.619,21.500 96.806 C 22.279 95.994,23.029 95.211,23.167 95.066 C 23.304 94.921,24.504 93.738,25.833 92.437 C 27.162 91.137,28.703 89.588,29.258 88.995 C 29.812 88.402,31.012 87.201,31.924 86.326 C 32.837 85.451,33.696 84.617,33.833 84.472 C 33.971 84.327,35.208 83.100,36.583 81.744 C 39.191 79.173,39.791 78.283,39.230 77.817 C 38.782 77.445,10.130 77.411,9.805 77.783 M46.750 78.261 C 45.899 78.714,45.083 79.383,43.734 80.733 C 42.716 81.751,41.066 83.373,40.067 84.338 C 39.068 85.303,37.854 86.503,37.369 87.004 C 36.461 87.945,36.321 88.085,34.925 89.446 C 34.471 89.888,33.882 90.475,33.616 90.750 C 33.349 91.025,31.774 92.600,30.115 94.250 C 28.456 95.900,26.721 97.661,26.258 98.164 C 25.795 98.666,25.005 99.453,24.502 99.914 C 21.671 102.502,21.469 102.977,22.734 104.092 C 23.155 104.464,23.723 105.120,23.996 105.551 C 24.862 106.915,25.586 106.756,27.453 104.794 C 29.072 103.092,40.098 92.074,41.519 90.740 C 42.013 90.275,42.840 89.450,43.357 88.906 C 43.874 88.362,45.328 86.904,46.587 85.667 C 50.416 81.904,50.291 82.061,50.496 80.776 C 50.960 77.870,49.422 76.838,46.750 78.261 M49.513 88.902 C 49.079 89.143,43.370 94.668,39.782 98.321 C 35.119 103.068,31.207 106.956,30.213 107.834 C 28.663 109.202,28.774 109.753,30.897 111.230 C 32.490 112.339,34.999 113.798,36.833 114.683 C 37.429 114.971,38.111 115.343,38.348 115.511 C 38.585 115.679,39.320 115.967,39.981 116.150 C 40.643 116.334,41.424 116.630,41.717 116.808 C 42.010 116.987,42.737 117.282,43.333 117.464 C 43.929 117.647,45.394 118.100,46.588 118.472 C 48.410 119.040,48.862 119.125,49.404 119.003 C 50.765 118.696,50.652 120.031,50.691 103.833 C 50.730 87.621,50.776 88.203,49.513 88.902 M93.072 92.496 C 93.798 92.772,93.680 93.828,92.816 94.808 C 92.439 95.234,91.970 95.862,91.774 96.202 C 91.577 96.543,91.243 96.914,91.031 97.028 C 90.819 97.141,90.519 97.449,90.364 97.712 C 90.210 97.975,89.821 98.352,89.500 98.550 C 89.179 98.748,88.269 99.474,87.478 100.164 C 85.338 102.027,84.362 102.740,82.129 104.067 C 81.421 104.489,80.720 104.833,80.573 104.833 C 80.151 104.833,80.442 103.540,81.022 102.838 C 81.285 102.519,81.500 102.195,81.500 102.119 C 81.500 102.043,81.717 101.704,81.981 101.365 C 82.246 101.027,82.591 100.354,82.747 99.870 C 82.903 99.386,83.203 98.785,83.414 98.534 C 83.625 98.283,83.917 97.674,84.064 97.180 C 84.211 96.686,84.490 96.013,84.685 95.683 C 84.880 95.353,85.199 94.633,85.394 94.083 C 85.922 92.600,86.228 92.485,89.540 92.526 C 90.983 92.544,92.214 92.508,92.276 92.446 C 92.427 92.295,92.567 92.304,93.072 92.496 M74.395 92.598 C 75.173 92.897,74.983 94.653,74.000 96.250 C 73.831 96.525,73.533 97.175,73.339 97.695 C 73.145 98.214,72.842 98.822,72.666 99.046 C 72.490 99.270,72.188 99.877,71.994 100.396 C 71.800 100.914,71.464 101.548,71.249 101.804 C 71.034 102.060,70.663 102.678,70.425 103.176 C 69.885 104.307,68.955 105.810,68.522 106.250 C 68.342 106.433,68.023 106.940,67.814 107.375 C 67.384 108.270,67.302 108.299,66.526 107.826 C 66.106 107.570,66.001 107.417,66.098 107.202 C 66.323 106.704,66.400 102.322,66.273 97.261 C 66.149 92.351,66.008 92.500,70.773 92.500 C 72.625 92.500,74.254 92.544,74.395 92.598 "
      stroke="none" fill="#718096" fill-rule="evenodd"></path>
    <path id="path1"
      d="M0.000 66.667 L 0.000 133.333 200.000 133.333 L 400.000 133.333 400.000 66.667 L 400.000 0.000 200.000 0.000 L 0.000 0.000 0.000 66.667 M64.167 15.840 C 67.704 16.010,69.311 16.210,70.772 16.661 C 71.340 16.837,72.392 17.061,73.112 17.159 C 76.176 17.579,85.898 21.599,87.833 23.247 C 87.971 23.364,88.346 23.591,88.667 23.752 C 89.223 24.030,90.588 24.987,91.822 25.964 C 92.137 26.213,92.673 26.567,93.014 26.750 C 93.635 27.084,96.427 29.630,98.406 31.667 C 99.287 32.574,101.309 34.930,103.058 37.087 C 103.685 37.860,104.992 39.839,105.368 40.583 C 105.553 40.950,105.846 41.405,106.019 41.595 C 106.193 41.784,106.510 42.384,106.724 42.928 C 106.939 43.472,107.313 44.208,107.557 44.565 C 107.800 44.921,108.081 45.521,108.180 45.898 C 108.279 46.275,108.547 46.905,108.775 47.298 C 109.002 47.692,109.305 48.404,109.446 48.882 C 109.588 49.359,109.872 50.087,110.079 50.500 C 110.425 51.193,110.927 52.775,111.673 55.519 C 111.837 56.126,112.059 57.363,112.165 58.269 C 112.272 59.175,112.519 60.592,112.716 61.417 C 113.159 63.275,113.263 73.806,112.848 74.750 C 112.727 75.025,112.420 76.487,112.165 78.000 C 111.911 79.512,111.550 81.133,111.363 81.602 C 111.176 82.071,110.901 83.046,110.752 83.769 C 110.603 84.492,110.355 85.271,110.201 85.500 C 110.046 85.729,109.723 86.479,109.481 87.167 C 108.870 88.909,107.984 90.980,107.556 91.670 C 107.358 91.989,107.003 92.688,106.767 93.222 C 106.532 93.757,106.157 94.411,105.935 94.676 C 105.712 94.940,105.407 95.528,105.256 95.982 C 105.105 96.436,104.862 96.907,104.715 97.029 C 104.390 97.298,103.206 98.845,102.750 99.595 C 102.370 100.220,100.487 102.474,99.250 103.784 C 97.158 106.000,94.841 108.097,92.667 109.744 C 91.565 110.579,87.533 113.333,87.413 113.333 C 87.356 113.333,86.966 113.570,86.546 113.859 C 86.125 114.148,85.426 114.520,84.991 114.685 C 84.556 114.851,83.848 115.210,83.416 115.484 C 82.984 115.757,82.395 116.031,82.107 116.092 C 81.819 116.153,81.058 116.453,80.417 116.759 C 78.978 117.445,76.757 118.183,74.000 118.893 C 69.751 119.986,67.691 120.241,60.667 120.545 C 57.962 120.661,56.579 120.504,56.048 120.019 L 55.522 119.539 55.553 67.996 L 55.583 16.453 56.049 16.105 C 56.499 15.769,60.047 15.414,60.833 15.625 C 60.971 15.662,62.471 15.759,64.167 15.840 M50.409 17.382 C 50.797 17.974,50.807 46.510,50.420 47.102 C 50.141 47.528,49.917 47.604,49.749 47.331 C 49.691 47.238,49.358 47.016,49.008 46.837 C 48.613 46.636,48.077 46.099,47.594 45.423 C 47.166 44.824,46.743 44.333,46.653 44.333 C 46.563 44.333,42.834 40.677,38.367 36.208 C 33.900 31.740,30.050 27.957,29.812 27.803 C 29.131 27.362,29.001 26.196,29.583 25.750 C 29.822 25.567,30.332 25.145,30.717 24.813 C 31.102 24.481,31.754 24.041,32.167 23.836 C 32.579 23.630,33.034 23.359,33.177 23.233 C 34.010 22.503,40.369 19.546,43.000 18.664 C 48.233 16.911,49.911 16.621,50.409 17.382 M159.694 27.637 C 160.066 28.012,161.069 29.920,161.330 30.750 C 161.446 31.117,161.713 31.754,161.925 32.167 C 162.437 33.165,163.395 35.514,164.168 37.667 C 164.825 39.495,165.362 40.845,166.159 42.667 C 166.420 43.262,166.726 44.050,166.839 44.417 C 166.953 44.783,167.231 45.453,167.457 45.904 C 167.684 46.356,167.981 47.106,168.119 47.571 C 168.257 48.036,168.541 48.717,168.751 49.083 C 168.961 49.450,169.259 50.197,169.414 50.743 C 169.569 51.289,169.870 52.080,170.083 52.500 C 170.296 52.920,170.600 53.709,170.758 54.254 C 170.916 54.798,171.219 55.507,171.430 55.830 C 171.641 56.153,171.902 56.792,172.010 57.250 C 172.119 57.708,172.416 58.464,172.672 58.929 C 172.927 59.394,173.248 60.151,173.385 60.611 C 173.521 61.071,173.780 61.741,173.960 62.099 C 174.140 62.457,174.456 63.275,174.663 63.917 C 174.869 64.558,175.211 65.386,175.422 65.756 C 175.633 66.126,175.930 66.914,176.081 67.506 C 176.233 68.099,176.530 68.846,176.743 69.167 C 176.956 69.487,177.299 70.270,177.506 70.906 C 177.712 71.542,178.014 72.292,178.176 72.573 C 178.338 72.854,178.635 73.646,178.835 74.333 C 179.035 75.021,179.335 75.808,179.501 76.083 C 179.667 76.358,179.951 77.036,180.131 77.590 C 180.311 78.144,180.645 78.969,180.873 79.423 C 181.101 79.878,181.381 80.550,181.496 80.917 C 181.610 81.283,181.882 81.896,182.100 82.277 C 182.319 82.659,182.604 83.429,182.734 83.989 C 182.865 84.548,183.155 85.323,183.380 85.711 C 183.604 86.099,183.959 86.937,184.168 87.573 C 184.377 88.208,184.681 88.958,184.843 89.239 C 185.006 89.520,185.257 90.155,185.401 90.651 C 185.546 91.146,185.823 91.821,186.019 92.151 C 186.214 92.480,186.543 93.237,186.750 93.833 C 187.273 95.340,188.384 97.968,188.793 98.667 C 188.980 98.987,189.219 99.661,189.323 100.163 C 189.428 100.665,189.705 101.403,189.939 101.804 C 190.174 102.204,190.501 103.005,190.667 103.583 C 190.832 104.162,191.155 104.961,191.383 105.359 C 191.612 105.757,191.926 106.533,192.081 107.083 C 192.236 107.633,192.511 108.325,192.692 108.619 C 192.872 108.914,193.162 109.653,193.336 110.260 C 193.510 110.867,193.805 111.624,193.993 111.942 C 194.576 112.931,194.358 114.066,193.552 114.233 C 193.294 114.286,189.858 114.348,185.917 114.370 C 177.437 114.417,177.985 114.525,177.302 112.667 C 177.050 111.979,176.699 111.154,176.523 110.833 C 176.347 110.513,176.152 109.987,176.090 109.667 C 175.890 108.638,175.460 107.428,175.152 107.032 C 174.988 106.821,174.726 106.258,174.571 105.782 C 174.415 105.306,174.116 104.617,173.907 104.250 C 173.697 103.883,173.411 103.137,173.270 102.593 C 173.130 102.048,172.862 101.396,172.676 101.144 C 172.490 100.892,172.183 100.121,171.993 99.430 C 171.804 98.740,171.397 97.629,171.090 96.962 C 170.783 96.296,170.448 95.436,170.346 95.052 C 170.179 94.426,169.119 92.863,168.676 92.589 C 168.582 92.531,161.923 92.489,153.879 92.495 L 139.255 92.508 138.555 93.195 C 138.006 93.733,137.749 94.192,137.367 95.316 C 136.334 98.350,135.646 100.220,135.342 100.817 C 135.168 101.158,134.902 101.914,134.750 102.498 C 134.599 103.082,134.303 103.902,134.092 104.321 C 133.882 104.740,133.581 105.530,133.423 106.076 C 133.266 106.622,132.965 107.410,132.754 107.826 C 132.544 108.243,132.209 109.127,132.012 109.792 C 131.520 111.446,130.542 113.744,130.199 114.052 C 129.890 114.329,115.303 114.540,114.872 114.274 C 114.490 114.038,114.616 112.288,115.062 111.631 C 115.279 111.310,115.590 110.644,115.752 110.149 C 115.914 109.655,116.215 108.912,116.422 108.499 C 116.629 108.086,117.000 107.085,117.247 106.275 C 117.494 105.465,117.840 104.558,118.016 104.260 C 118.192 103.962,118.454 103.312,118.599 102.817 C 118.744 102.322,119.031 101.617,119.238 101.250 C 119.445 100.883,119.747 100.096,119.909 99.500 C 120.072 98.904,120.377 98.117,120.587 97.750 C 120.798 97.383,121.133 96.483,121.333 95.750 C 121.533 95.017,121.799 94.256,121.924 94.060 C 122.048 93.864,122.313 93.189,122.511 92.560 C 122.709 91.931,123.040 91.117,123.246 90.750 C 123.452 90.383,123.755 89.671,123.919 89.167 C 124.084 88.662,124.420 87.837,124.668 87.333 C 124.915 86.829,125.288 85.817,125.496 85.083 C 125.705 84.350,126.247 82.925,126.701 81.917 C 127.156 80.908,127.712 79.501,127.937 78.789 C 128.163 78.078,128.487 77.253,128.657 76.956 C 128.827 76.659,129.093 75.967,129.248 75.417 C 129.403 74.867,129.666 74.192,129.833 73.917 C 130.000 73.642,130.264 72.967,130.418 72.417 C 130.573 71.867,130.907 71.042,131.160 70.583 C 131.413 70.125,131.749 69.225,131.907 68.583 C 132.065 67.942,132.346 67.154,132.533 66.834 C 132.719 66.513,133.080 65.650,133.335 64.917 C 134.239 62.315,134.985 60.350,135.308 59.716 C 135.489 59.363,135.764 58.626,135.920 58.078 C 136.076 57.531,136.411 56.708,136.665 56.250 C 136.919 55.792,137.218 55.024,137.330 54.544 C 137.441 54.063,137.679 53.483,137.859 53.255 C 138.039 53.026,138.337 52.294,138.520 51.628 C 138.704 50.962,138.997 50.173,139.172 49.874 C 139.347 49.576,139.686 48.687,139.926 47.900 C 140.167 47.113,140.502 46.232,140.671 45.943 C 140.841 45.653,141.132 44.862,141.319 44.184 C 141.506 43.506,141.776 42.822,141.919 42.664 C 142.062 42.506,142.356 41.802,142.573 41.101 C 142.789 40.399,143.053 39.721,143.158 39.594 C 143.264 39.467,143.602 38.662,143.911 37.806 C 145.386 33.714,145.699 32.903,145.991 32.428 C 146.164 32.147,146.431 31.429,146.584 30.833 C 146.867 29.736,147.391 28.737,148.189 27.778 L 148.628 27.250 154.022 27.304 C 158.802 27.352,159.448 27.390,159.694 27.637 M329.495 28.050 C 329.797 28.580,329.579 29.587,328.856 31.000 C 328.598 31.504,328.297 32.283,328.186 32.730 C 328.075 33.178,327.769 33.966,327.506 34.480 C 327.244 34.995,326.978 35.679,326.916 36.000 C 326.813 36.530,325.902 38.737,325.206 40.143 C 325.053 40.450,324.776 40.754,324.589 40.817 C 324.342 40.901,305.777 40.910,303.266 40.827 C 303.092 40.821,302.679 41.035,302.349 41.302 L 301.750 41.787 301.718 77.420 C 301.684 114.527,301.698 113.793,301.005 114.164 C 300.455 114.459,286.963 114.409,286.386 114.110 C 285.349 113.574,285.409 116.075,285.500 77.333 L 285.583 41.917 285.122 41.417 L 284.660 40.917 273.122 40.910 C 266.776 40.907,261.414 40.846,261.207 40.774 C 260.396 40.493,260.333 40.064,260.282 34.463 C 260.228 28.671,260.268 28.336,261.072 27.790 L 261.629 27.411 291.356 27.455 C 328.835 27.511,326.947 27.516,327.833 27.357 C 328.690 27.203,329.113 27.380,329.495 28.050 M355.667 27.351 C 356.171 27.366,356.929 27.324,357.351 27.257 C 358.993 26.998,360.542 28.944,361.428 32.382 C 361.575 32.951,361.841 33.654,362.019 33.945 C 362.198 34.236,362.527 35.010,362.750 35.667 C 362.973 36.323,363.302 37.098,363.481 37.388 C 363.659 37.679,363.926 38.384,364.073 38.955 C 364.220 39.526,364.489 40.245,364.670 40.552 C 364.851 40.859,365.157 41.589,365.349 42.174 C 365.541 42.760,365.906 43.654,366.159 44.161 C 366.413 44.668,366.755 45.496,366.919 46.000 C 367.083 46.504,367.310 47.067,367.423 47.250 C 367.536 47.433,367.798 48.108,368.004 48.750 C 368.210 49.392,368.549 50.217,368.756 50.583 C 368.963 50.950,369.260 51.698,369.415 52.246 C 369.571 52.794,369.830 53.432,369.991 53.663 C 370.153 53.894,370.453 54.644,370.658 55.329 C 370.864 56.014,371.202 56.914,371.410 57.329 C 371.617 57.744,371.919 58.496,372.079 59.000 C 372.240 59.504,372.547 60.224,372.761 60.600 C 372.976 60.976,373.303 61.831,373.489 62.500 C 373.674 63.168,373.946 63.848,374.093 64.010 C 374.239 64.172,374.503 64.765,374.678 65.328 C 374.853 65.891,375.177 66.666,375.398 67.050 C 375.619 67.435,375.926 68.197,376.081 68.743 C 376.236 69.289,376.533 70.076,376.742 70.493 C 376.950 70.909,377.291 71.775,377.500 72.417 C 377.708 73.058,378.049 73.883,378.256 74.250 C 378.463 74.617,378.760 75.365,378.915 75.913 C 379.071 76.461,379.335 77.101,379.502 77.336 C 379.669 77.571,379.930 78.248,380.082 78.840 C 380.234 79.432,380.532 80.217,380.744 80.583 C 380.957 80.950,381.243 81.631,381.381 82.096 C 381.519 82.561,381.817 83.311,382.044 83.762 C 382.271 84.214,382.586 85.029,382.743 85.575 C 382.900 86.120,383.247 86.999,383.514 87.528 C 383.781 88.057,384.000 88.586,384.001 88.704 C 384.001 88.821,384.264 89.428,384.584 90.052 C 384.905 90.677,385.252 91.539,385.356 91.969 C 385.459 92.399,385.717 93.087,385.927 93.500 C 386.398 94.423,387.374 96.802,388.013 98.583 C 388.276 99.317,388.636 100.179,388.813 100.500 C 388.991 100.821,389.224 101.421,389.332 101.833 C 389.440 102.246,389.744 103.010,390.006 103.531 C 390.269 104.052,390.592 104.891,390.724 105.396 C 390.855 105.901,391.123 106.538,391.318 106.812 C 391.514 107.087,391.851 107.823,392.068 108.447 C 392.284 109.072,392.737 110.248,393.073 111.060 C 393.793 112.801,393.847 113.944,393.225 114.253 C 392.823 114.453,378.001 114.457,377.679 114.257 C 377.415 114.095,376.449 112.117,376.019 110.861 C 375.820 110.281,375.442 109.379,375.179 108.857 C 374.915 108.335,374.611 107.573,374.503 107.162 C 374.395 106.752,374.169 106.180,374.001 105.890 C 373.833 105.601,373.507 104.802,373.277 104.116 C 373.046 103.429,372.710 102.578,372.530 102.225 C 372.349 101.871,372.112 101.247,372.002 100.839 C 371.892 100.431,371.552 99.569,371.247 98.923 C 370.942 98.278,370.643 97.432,370.582 97.044 C 370.521 96.656,370.300 96.085,370.090 95.776 C 369.881 95.468,369.577 94.815,369.414 94.326 C 368.755 92.341,369.902 92.465,353.000 92.545 C 336.726 92.622,337.536 92.519,337.155 94.558 C 337.076 94.978,336.829 95.606,336.604 95.953 C 336.380 96.300,336.146 96.901,336.084 97.289 C 336.022 97.678,335.789 98.265,335.565 98.594 C 335.342 98.924,334.979 99.886,334.759 100.732 C 334.539 101.578,334.208 102.528,334.023 102.844 C 333.837 103.159,333.523 104.012,333.324 104.741 C 333.125 105.469,332.791 106.331,332.582 106.657 C 332.373 106.983,332.151 107.550,332.089 107.917 C 332.027 108.283,331.717 109.124,331.401 109.785 C 331.086 110.446,330.756 111.365,330.668 111.827 C 330.446 112.998,330.110 113.571,329.379 114.026 L 328.750 114.417 322.833 114.380 C 319.579 114.360,316.804 114.334,316.667 114.322 C 316.529 114.310,316.137 114.355,315.794 114.422 C 314.227 114.726,313.625 113.709,314.374 112.023 C 314.955 110.718,315.460 109.444,315.916 108.137 C 316.130 107.525,316.455 106.813,316.639 106.554 C 316.823 106.295,317.054 105.689,317.152 105.206 C 317.250 104.724,317.551 103.893,317.820 103.359 C 318.089 102.826,318.433 101.915,318.583 101.333 C 318.734 100.752,319.074 99.848,319.338 99.324 C 319.603 98.800,319.906 98.006,320.013 97.561 C 320.120 97.115,320.377 96.487,320.584 96.167 C 320.792 95.846,321.127 95.021,321.330 94.333 C 321.533 93.646,321.762 93.007,321.838 92.913 C 321.966 92.758,322.220 92.097,323.696 88.083 C 323.965 87.350,324.368 86.438,324.592 86.056 C 324.815 85.674,325.101 84.916,325.229 84.370 C 325.356 83.824,325.650 83.049,325.882 82.647 C 326.114 82.245,326.460 81.392,326.650 80.750 C 326.840 80.108,327.184 79.214,327.415 78.763 C 327.645 78.312,327.833 77.834,327.833 77.700 C 327.833 77.567,328.126 76.773,328.483 75.937 C 328.840 75.101,329.221 74.079,329.329 73.667 C 329.438 73.254,329.660 72.687,329.823 72.406 C 329.986 72.125,330.290 71.375,330.499 70.739 C 330.708 70.104,331.049 69.245,331.256 68.831 C 331.463 68.417,331.723 67.742,331.833 67.331 C 331.943 66.920,332.220 66.185,332.449 65.699 C 332.852 64.844,333.523 63.059,334.509 60.219 C 334.769 59.468,335.129 58.568,335.307 58.218 C 335.486 57.868,335.722 57.246,335.832 56.837 C 335.943 56.427,336.242 55.677,336.497 55.171 C 336.753 54.664,337.117 53.748,337.306 53.135 C 337.495 52.522,337.797 51.732,337.976 51.380 C 338.156 51.028,338.429 50.292,338.584 49.745 C 338.739 49.198,339.035 48.486,339.243 48.163 C 339.451 47.841,339.750 47.128,339.909 46.580 C 340.067 46.032,340.338 45.321,340.511 45.000 C 340.684 44.679,341.098 43.629,341.431 42.667 C 341.764 41.704,342.252 40.295,342.515 39.535 C 342.778 38.775,343.174 37.838,343.395 37.452 C 343.615 37.066,343.891 36.337,344.007 35.833 C 344.122 35.329,344.431 34.495,344.692 33.979 C 344.953 33.464,345.167 32.946,345.167 32.829 C 345.167 32.712,345.382 32.158,345.645 31.599 C 345.908 31.041,346.252 30.133,346.410 29.583 C 346.969 27.633,347.641 27.317,351.167 27.348 C 352.552 27.360,353.734 27.321,353.793 27.262 C 353.852 27.203,354.092 27.193,354.325 27.239 C 354.559 27.285,355.162 27.335,355.667 27.351 M234.250 27.743 C 234.983 27.880,236.134 28.071,236.808 28.167 C 237.481 28.263,238.231 28.444,238.474 28.570 C 238.718 28.695,239.573 28.998,240.375 29.242 C 242.018 29.743,244.336 30.917,245.583 31.880 C 246.042 32.234,246.792 32.810,247.250 33.159 C 249.086 34.558,251.094 36.986,252.250 39.204 C 254.412 43.354,254.461 43.479,254.774 45.667 C 255.358 49.753,255.047 55.576,254.155 57.272 C 253.903 57.750,253.579 58.550,253.434 59.049 C 253.289 59.548,253.051 60.055,252.905 60.177 C 252.759 60.298,252.423 60.826,252.158 61.351 C 251.459 62.735,247.767 66.353,246.549 66.847 C 245.612 67.228,245.563 67.319,245.849 68.140 C 246.029 68.656,247.111 69.167,248.022 69.167 C 248.185 69.167,248.868 69.457,249.542 69.811 C 250.215 70.166,250.943 70.512,251.159 70.581 C 253.462 71.312,258.053 76.089,258.849 78.583 C 258.996 79.042,259.274 79.680,259.468 80.002 C 259.661 80.325,259.939 81.112,260.084 81.752 C 260.229 82.393,260.502 83.391,260.692 83.972 C 261.210 85.561,261.076 90.318,260.442 92.833 C 260.199 93.796,260.000 94.761,260.000 94.979 C 260.000 95.736,257.760 100.578,256.597 102.333 C 255.799 103.540,255.543 103.839,253.608 105.833 C 251.755 107.742,249.028 109.732,246.865 110.753 C 246.379 110.983,245.777 111.321,245.528 111.505 C 245.280 111.689,244.606 111.915,244.030 112.008 C 243.455 112.101,242.425 112.399,241.742 112.670 C 240.917 112.998,239.702 113.280,238.125 113.511 C 236.819 113.702,235.338 113.969,234.833 114.103 C 234.053 114.311,231.619 114.340,218.417 114.299 L 202.917 114.250 202.632 113.679 C 202.365 113.146,202.346 110.374,202.337 70.973 C 202.326 26.212,202.297 27.984,203.056 27.559 C 203.540 27.287,232.739 27.460,234.250 27.743 M66.583 28.119 C 65.815 28.312,65.623 29.050,66.008 30.334 C 66.108 30.669,66.210 33.345,66.247 36.633 C 66.326 43.503,66.300 43.401,67.927 43.441 C 74.533 43.602,74.465 43.612,74.768 42.404 C 74.878 41.964,74.414 40.391,74.050 39.974 C 73.918 39.822,73.600 39.184,73.345 38.557 C 73.089 37.930,72.645 37.046,72.357 36.592 C 72.069 36.139,71.833 35.682,71.833 35.576 C 71.833 35.470,71.602 35.064,71.320 34.675 C 71.038 34.285,70.697 33.656,70.563 33.277 C 70.430 32.898,70.144 32.399,69.929 32.169 C 69.714 31.939,69.408 31.488,69.249 31.167 C 69.090 30.846,68.838 30.444,68.688 30.274 C 68.539 30.104,68.192 29.542,67.917 29.025 C 67.420 28.092,67.223 27.958,66.583 28.119 M26.942 30.708 C 27.414 31.190,28.577 32.362,29.525 33.315 C 30.474 34.267,31.962 35.767,32.833 36.648 C 33.704 37.529,35.198 39.000,36.153 39.916 C 37.108 40.833,39.883 43.605,42.320 46.076 C 44.756 48.548,47.512 51.338,48.442 52.277 C 51.128 54.987,51.477 57.219,49.354 58.117 C 47.950 58.711,46.450 57.977,43.868 55.434 C 41.360 52.965,41.911 53.514,38.244 49.833 C 36.554 48.137,34.814 46.409,34.378 45.991 C 33.941 45.574,33.021 44.655,32.333 43.950 C 30.510 42.079,29.972 41.574,29.446 41.242 C 29.187 41.079,28.690 40.525,28.341 40.012 C 27.993 39.498,27.522 38.979,27.295 38.858 C 27.069 38.736,26.410 38.081,25.832 37.402 C 25.253 36.723,24.724 36.167,24.655 36.167 C 24.359 36.167,22.381 34.127,22.007 33.435 L 21.597 32.678 23.090 31.260 C 25.043 29.404,25.586 29.326,26.942 30.708 M80.616 31.939 C 80.370 32.186,80.518 32.792,80.917 33.167 C 81.146 33.382,81.333 33.643,81.333 33.746 C 81.333 33.850,81.556 34.287,81.829 34.717 C 82.622 35.967,83.942 38.539,84.070 39.083 C 84.134 39.358,84.360 39.849,84.572 40.173 C 84.785 40.497,85.014 41.022,85.083 41.340 C 85.497 43.255,86.193 43.608,89.203 43.429 C 90.243 43.367,91.451 43.388,91.906 43.476 C 93.427 43.770,94.302 42.397,93.097 41.607 C 92.875 41.462,92.411 40.947,92.065 40.463 C 91.720 39.979,90.833 39.031,90.094 38.355 C 89.355 37.680,88.300 36.712,87.750 36.205 C 87.200 35.697,86.375 35.031,85.917 34.725 C 85.458 34.418,84.896 34.041,84.667 33.886 C 84.438 33.732,84.025 33.406,83.750 33.162 C 82.637 32.177,81.013 31.543,80.616 31.939 M19.913 37.542 C 20.632 38.420,20.713 38.501,22.758 40.417 C 23.835 41.425,24.903 42.438,25.131 42.667 C 25.359 42.896,27.474 45.033,29.831 47.417 C 32.188 49.800,34.266 51.870,34.449 52.017 C 34.631 52.164,34.886 52.428,35.015 52.603 C 35.144 52.779,36.037 53.625,37.000 54.485 C 37.962 55.344,38.876 56.168,39.029 56.315 C 39.183 56.463,39.359 56.931,39.420 57.357 L 39.532 58.130 38.922 58.331 C 38.492 58.474,37.910 58.492,36.948 58.393 C 36.197 58.316,35.433 58.265,35.250 58.281 C 34.996 58.302,10.861 58.356,9.878 58.337 C 9.561 58.331,8.958 57.013,9.046 56.518 C 9.223 55.524,9.712 53.941,9.995 53.446 C 10.162 53.155,10.380 52.429,10.480 51.833 C 10.580 51.237,10.884 50.325,11.156 49.806 C 11.427 49.287,11.769 48.449,11.916 47.943 C 12.063 47.437,12.326 46.842,12.501 46.620 C 12.676 46.398,12.978 45.811,13.173 45.316 C 13.367 44.821,13.670 44.183,13.846 43.898 C 14.021 43.613,14.272 43.078,14.402 42.709 C 14.645 42.020,15.647 40.435,16.589 39.250 C 16.880 38.883,17.278 38.270,17.473 37.888 C 17.838 37.172,18.039 37.053,18.944 37.019 C 19.349 37.004,19.573 37.125,19.913 37.542 M218.907 41.472 L 218.500 41.879 218.500 52.148 C 218.500 61.593,218.524 62.463,218.792 62.993 L 219.083 63.570 223.083 63.548 C 231.616 63.502,235.398 61.919,237.615 57.463 C 238.514 55.657,239.013 54.091,238.990 53.149 C 238.982 52.838,238.987 52.021,239.001 51.333 C 239.033 49.796,238.530 47.561,237.960 46.705 C 237.733 46.363,237.388 45.815,237.194 45.486 C 237.000 45.158,236.258 44.384,235.545 43.765 C 234.343 42.721,233.631 42.325,231.613 41.576 C 229.718 40.873,219.589 40.790,218.907 41.472 M153.695 50.958 C 153.596 51.210,153.430 51.754,153.326 52.167 C 153.222 52.579,152.996 53.146,152.824 53.427 C 152.652 53.708,152.359 54.591,152.173 55.390 C 151.987 56.189,151.649 57.207,151.424 57.653 C 151.198 58.099,150.888 58.978,150.736 59.607 C 150.583 60.236,150.286 61.053,150.076 61.423 C 149.866 61.793,149.570 62.575,149.418 63.161 C 149.266 63.747,148.969 64.569,148.757 64.988 C 148.545 65.407,148.207 66.350,148.004 67.083 C 147.802 67.817,147.528 68.586,147.396 68.794 C 147.264 69.001,146.752 70.325,146.258 71.735 C 145.763 73.146,145.239 74.533,145.091 74.818 C 144.282 76.383,143.856 78.126,144.142 78.700 C 144.479 79.375,143.584 79.313,154.864 79.440 L 163.477 79.536 163.675 78.810 C 163.828 78.243,163.826 77.973,163.666 77.583 C 163.553 77.308,163.170 76.146,162.817 75.000 C 162.463 73.854,162.030 72.654,161.856 72.333 C 161.681 72.012,161.410 71.302,161.254 70.755 C 161.097 70.208,160.831 69.488,160.661 69.156 C 160.492 68.824,160.156 67.852,159.916 66.997 C 159.675 66.142,159.368 65.228,159.233 64.966 C 159.097 64.704,158.801 63.851,158.575 63.070 C 158.348 62.289,158.056 61.485,157.925 61.283 C 157.795 61.082,157.537 60.370,157.352 59.701 C 157.168 59.033,156.894 58.245,156.743 57.951 C 156.423 57.329,155.287 54.071,154.841 52.500 C 154.489 51.260,154.167 50.500,153.993 50.500 C 153.928 50.500,153.793 50.706,153.695 50.958 M353.360 51.009 C 352.576 51.181,352.564 51.202,352.166 53.333 C 351.969 54.387,351.656 55.587,351.471 56.000 C 351.285 56.413,350.922 57.387,350.664 58.167 C 350.081 59.929,348.812 63.249,348.466 63.917 C 348.324 64.192,348.124 64.812,348.021 65.295 C 347.919 65.778,347.655 66.530,347.435 66.965 C 347.214 67.400,346.944 68.092,346.833 68.503 C 346.723 68.914,346.484 69.550,346.303 69.917 C 345.972 70.586,345.053 73.039,344.156 75.648 C 343.891 76.417,343.560 77.221,343.421 77.434 C 343.279 77.651,343.167 78.189,343.167 78.655 L 343.167 79.489 352.858 79.470 C 362.055 79.452,362.565 79.435,362.858 79.142 C 363.225 78.775,363.258 77.993,362.932 77.363 C 362.803 77.114,362.617 76.475,362.519 75.944 C 362.421 75.413,362.194 74.772,362.015 74.520 C 361.835 74.269,361.569 73.547,361.423 72.916 C 361.276 72.286,360.905 71.203,360.597 70.510 C 360.289 69.817,359.906 68.837,359.746 68.333 C 359.586 67.829,359.339 67.192,359.197 66.917 C 359.055 66.642,358.731 65.704,358.477 64.833 C 358.032 63.306,357.316 61.214,355.853 57.167 C 355.122 55.144,354.655 53.540,354.337 51.961 C 354.115 50.860,354.101 50.846,353.360 51.009 M66.675 53.686 L 66.136 54.014 66.193 57.998 L 66.250 61.982 66.812 62.561 C 67.121 62.880,67.461 63.107,67.568 63.066 C 67.675 63.025,70.084 62.968,72.923 62.939 C 80.007 62.866,80.108 62.815,79.253 59.750 C 79.125 59.292,78.903 57.872,78.760 56.595 C 78.441 53.759,78.346 53.582,77.049 53.435 C 74.624 53.161,67.245 53.339,66.675 53.686 M89.414 53.732 C 89.032 54.082,89.031 54.091,89.250 55.750 C 89.371 56.667,89.553 58.148,89.653 59.041 C 89.856 60.845,90.189 61.883,90.759 62.482 L 91.138 62.881 96.106 62.899 C 100.874 62.916,101.095 62.903,101.579 62.571 C 102.171 62.166,102.230 61.239,101.731 60.186 C 101.574 59.856,101.388 58.955,101.318 58.184 C 101.222 57.125,101.070 56.552,100.700 55.847 C 100.431 55.333,100.157 54.667,100.091 54.367 C 99.870 53.364,99.741 53.340,94.518 53.361 C 89.962 53.380,89.784 53.393,89.414 53.732 M43.460 63.217 L 50.004 63.184 50.281 63.608 C 50.648 64.168,50.667 71.526,50.304 72.274 C 49.963 72.977,50.333 72.965,29.552 72.982 C 7.524 73.001,8.597 73.041,8.308 72.190 C 8.050 71.431,8.107 64.479,8.376 63.889 C 8.695 63.189,9.205 63.163,21.353 63.224 C 27.713 63.255,33.329 63.227,33.833 63.160 C 34.337 63.093,35.237 63.086,35.833 63.144 C 36.429 63.202,39.861 63.235,43.460 63.217 M66.755 73.423 L 66.250 73.763 66.197 76.090 C 66.168 77.370,66.193 79.248,66.254 80.264 C 66.405 82.826,66.027 82.669,72.026 82.657 C 78.745 82.643,78.545 82.722,78.823 80.000 C 78.911 79.129,79.100 77.904,79.242 77.278 C 79.384 76.652,79.519 75.608,79.542 74.959 L 79.583 73.777 79.013 73.440 C 78.125 72.914,67.532 72.900,66.755 73.423 M91.083 73.194 C 90.276 73.642,89.993 74.044,90.096 74.594 C 90.151 74.887,90.083 75.529,89.944 76.022 C 89.210 78.631,88.985 81.943,89.515 82.351 C 90.151 82.840,99.301 82.830,99.744 82.340 C 100.435 81.577,101.090 79.616,101.891 75.917 C 102.353 73.782,102.354 73.789,101.445 73.373 C 100.613 72.993,91.723 72.839,91.083 73.194 M220.448 76.981 C 218.364 77.145,218.553 76.035,218.462 88.653 C 218.385 99.367,218.386 99.420,218.737 100.083 L 219.090 100.750 223.587 100.750 C 230.969 100.750,234.556 100.380,236.500 99.418 C 237.096 99.123,237.777 98.835,238.014 98.778 C 239.169 98.500,242.194 95.912,242.597 94.858 C 242.754 94.446,243.089 93.766,243.340 93.346 C 243.668 92.799,243.897 92.018,244.151 90.583 L 244.504 88.583 244.182 86.583 C 243.478 82.209,241.665 80.044,237.083 78.104 L 235.083 77.257 228.833 77.146 C 225.396 77.084,222.396 76.999,222.167 76.956 C 221.938 76.913,221.164 76.924,220.448 76.981 M39.230 77.817 C 39.791 78.283,39.191 79.173,36.583 81.744 C 35.208 83.100,33.971 84.327,33.833 84.472 C 33.696 84.617,32.837 85.451,31.924 86.326 C 31.012 87.201,29.812 88.402,29.258 88.995 C 28.703 89.588,27.162 91.137,25.833 92.437 C 24.504 93.738,23.304 94.921,23.167 95.066 C 23.029 95.211,22.279 95.994,21.500 96.806 C 20.721 97.619,19.925 98.477,19.731 98.713 C 19.201 99.361,18.147 99.065,17.551 98.101 C 17.318 97.725,16.916 97.192,16.657 96.917 C 16.399 96.642,16.039 96.069,15.857 95.643 C 15.676 95.218,15.439 94.815,15.331 94.748 C 15.222 94.681,14.933 94.202,14.687 93.683 C 14.442 93.164,14.071 92.501,13.864 92.209 C 13.656 91.918,13.343 91.261,13.167 90.750 C 12.991 90.239,12.693 89.605,12.506 89.342 C 12.318 89.078,12.010 88.360,11.820 87.746 C 11.630 87.131,11.327 86.346,11.147 86.000 C 10.967 85.654,10.635 84.683,10.410 83.842 C 10.185 83.002,9.915 82.153,9.810 81.956 C 8.999 80.442,8.997 78.708,9.805 77.783 C 10.130 77.411,38.782 77.445,39.230 77.817 M50.109 78.090 C 50.556 78.702,50.685 79.595,50.496 80.776 C 50.291 82.061,50.416 81.904,46.587 85.667 C 45.328 86.904,43.874 88.362,43.357 88.906 C 42.840 89.450,42.013 90.275,41.519 90.740 C 40.098 92.074,29.072 103.092,27.453 104.794 C 25.586 106.756,24.862 106.915,23.996 105.551 C 23.723 105.120,23.155 104.464,22.734 104.092 C 21.469 102.977,21.671 102.502,24.502 99.914 C 25.005 99.453,25.795 98.666,26.258 98.164 C 26.721 97.661,28.456 95.900,30.115 94.250 C 31.774 92.600,33.349 91.025,33.616 90.750 C 33.882 90.475,34.471 89.888,34.925 89.446 C 36.321 88.085,36.461 87.945,37.369 87.004 C 37.854 86.503,39.068 85.303,40.067 84.338 C 41.066 83.373,42.716 81.751,43.734 80.733 C 46.556 77.910,49.181 76.822,50.109 78.090 M50.523 89.042 C 50.901 89.744,50.737 118.168,50.353 118.554 C 49.690 119.218,48.928 119.201,46.588 118.472 C 45.394 118.100,43.929 117.647,43.333 117.464 C 42.737 117.282,42.010 116.987,41.717 116.808 C 41.424 116.630,40.643 116.334,39.981 116.150 C 39.320 115.967,38.585 115.679,38.348 115.511 C 38.111 115.343,37.429 114.971,36.833 114.683 C 34.999 113.798,32.490 112.339,30.897 111.230 C 28.774 109.753,28.663 109.202,30.213 107.834 C 31.207 106.956,35.119 103.068,39.782 98.321 C 48.097 89.856,50.053 88.167,50.523 89.042 M92.276 92.446 C 92.214 92.508,90.983 92.544,89.540 92.526 C 86.228 92.485,85.922 92.600,85.394 94.083 C 85.199 94.633,84.880 95.353,84.685 95.683 C 84.490 96.013,84.211 96.686,84.064 97.180 C 83.917 97.674,83.625 98.283,83.414 98.534 C 83.203 98.785,82.903 99.386,82.747 99.870 C 82.591 100.354,82.246 101.027,81.981 101.365 C 81.717 101.704,81.500 102.043,81.500 102.119 C 81.500 102.195,81.285 102.519,81.022 102.838 C 80.442 103.540,80.151 104.833,80.573 104.833 C 80.720 104.833,81.421 104.489,82.129 104.067 C 84.362 102.740,85.338 102.027,87.478 100.164 C 88.269 99.474,89.179 98.748,89.500 98.550 C 89.821 98.352,90.210 97.975,90.364 97.712 C 90.519 97.449,90.819 97.141,91.031 97.028 C 91.243 96.914,91.577 96.543,91.774 96.202 C 91.970 95.862,92.439 95.234,92.816 94.808 C 93.680 93.828,93.798 92.772,93.072 92.496 C 92.567 92.304,92.427 92.295,92.276 92.446 M67.036 92.760 C 66.248 93.312,66.183 93.694,66.273 97.261 C 66.400 102.322,66.323 106.704,66.098 107.202 C 66.001 107.417,66.106 107.570,66.526 107.826 C 67.302 108.299,67.384 108.270,67.814 107.375 C 68.023 106.940,68.342 106.433,68.522 106.250 C 68.955 105.810,69.885 104.307,70.425 103.176 C 70.663 102.678,71.034 102.060,71.249 101.804 C 71.464 101.548,71.800 100.914,71.994 100.396 C 72.188 99.877,72.490 99.270,72.666 99.046 C 72.842 98.822,73.145 98.214,73.339 97.695 C 73.533 97.175,73.831 96.525,74.000 96.250 C 74.983 94.653,75.173 92.897,74.395 92.598 C 73.763 92.356,67.414 92.496,67.036 92.760 "
      stroke="none" fill="transparent" fill-rule="evenodd"></path>
  </g>
</svg>