<svg id="svg" xmlns="http://www.w3.org/2000/svg" xmlns:xlink="http://www.w3.org/1999/xlink" width="400" height="190.4"
  viewBox="0, 0, 400,190.4" version="1.1">
  <g id="svgg">
    <path id="path0"
      d="M82.000 38.056 C 44.027 46.383,24.997 91.184,44.983 125.200 C 63.905 157.406,109.245 163.238,135.992 136.905 C 155.699 117.503,159.341 87.378,144.787 64.142 L 142.443 60.400 142.222 87.089 L 142.000 113.778 136.600 113.734 C 133.630 113.709,130.840 113.669,130.400 113.644 C 129.880 113.616,129.600 102.035,129.600 80.592 C 129.600 50.020,129.497 47.521,128.200 46.719 C 113.817 37.828,97.227 34.717,82.000 38.056 M296.000 70.000 C 296.000 75.940,295.805 80.800,295.568 80.800 C 295.330 80.800,294.062 80.007,292.750 79.037 C 286.953 74.751,275.503 76.955,271.385 83.150 C 259.853 100.501,277.003 122.679,293.507 111.757 L 296.800 109.577 296.800 111.589 C 296.800 113.531,296.979 113.600,302.000 113.600 L 307.200 113.600 307.200 86.400 L 307.200 59.200 301.600 59.200 L 296.000 59.200 296.000 70.000 M315.708 60.858 C 311.380 64.263,314.138 71.200,319.820 71.200 C 325.041 71.200,327.588 64.547,323.748 60.939 C 321.418 58.750,318.426 58.720,315.708 60.858 M69.991 76.895 C 77.751 79.049,80.000 84.788,80.000 102.439 L 80.000 113.600 74.400 113.600 C 69.956 113.600,68.800 113.352,68.800 112.400 C 68.800 110.896,67.684 110.853,66.474 112.311 C 63.001 116.495,51.308 115.041,47.283 109.924 C 40.306 101.054,47.353 92.471,63.000 90.782 C 68.207 90.221,68.899 89.520,66.676 87.063 C 64.825 85.017,59.780 85.172,55.824 87.395 L 52.629 89.190 49.927 85.995 C 46.788 82.283,46.825 81.743,50.350 79.684 C 56.543 76.066,63.466 75.083,69.991 76.895 M117.360 78.894 C 136.370 90.648,120.221 123.966,100.954 112.741 C 99.499 111.894,98.149 111.200,97.954 111.200 C 97.759 111.200,97.600 115.715,97.600 121.234 L 97.600 131.267 91.400 131.034 L 85.200 130.800 84.989 104.296 C 84.750 74.209,84.044 76.935,92.000 77.237 C 95.747 77.378,96.437 77.645,96.647 79.034 C 96.884 80.604,97.064 80.575,101.447 78.259 C 107.156 75.242,111.748 75.425,117.360 78.894 M180.922 78.156 C 179.449 78.882,178.061 79.953,177.836 80.538 C 177.155 82.315,176.000 81.725,176.000 79.600 C 176.000 77.657,175.840 77.600,170.400 77.600 L 164.800 77.600 164.800 95.600 L 164.800 113.600 170.800 113.600 L 176.800 113.600 176.800 102.108 C 176.800 89.210,177.782 86.387,182.258 86.412 C 187.175 86.440,188.000 88.734,188.000 102.382 L 188.000 113.670 193.800 113.435 L 199.600 113.200 200.000 101.481 C 200.440 88.598,201.250 86.387,205.524 86.412 C 210.242 86.440,211.200 89.307,211.200 103.395 L 211.200 113.600 216.800 113.600 L 222.400 113.600 222.400 99.788 C 222.400 84.307,221.792 82.007,216.800 78.600 C 212.028 75.342,203.595 76.386,199.674 80.719 C 198.154 82.398,198.149 82.398,197.027 80.796 C 194.278 76.870,186.214 75.549,180.922 78.156 M236.812 78.552 C 218.586 87.936,225.957 114.365,246.800 114.365 C 254.258 114.365,263.952 109.499,262.149 106.659 C 260.563 104.161,254.455 102.103,252.873 103.534 C 248.860 107.166,239.227 104.907,238.544 100.173 C 238.290 98.405,238.328 98.400,251.144 98.400 L 264.000 98.400 264.000 94.157 C 264.000 80.633,249.232 72.157,236.812 78.552 M338.000 78.044 C 336.240 78.701,333.900 79.930,332.800 80.776 L 330.800 82.315 333.886 85.480 L 336.973 88.644 339.636 87.073 C 344.394 84.266,351.297 85.225,352.238 88.824 C 352.758 90.812,352.448 90.931,345.259 91.516 C 335.152 92.337,329.297 96.753,329.399 103.477 C 329.534 112.370,339.979 117.218,349.000 112.574 C 352.541 110.751,352.800 110.719,352.800 112.109 C 352.800 113.411,353.460 113.600,358.000 113.600 L 363.200 113.600 363.200 100.570 C 363.200 86.111,362.196 82.388,357.343 78.847 C 354.404 76.703,342.877 76.225,338.000 78.044 M313.600 95.600 L 313.600 113.600 319.600 113.600 L 325.600 113.600 325.600 95.600 L 325.600 77.600 319.600 77.600 L 313.600 77.600 313.600 95.600 M251.042 86.200 C 255.499 90.054,254.356 91.200,246.054 91.200 C 237.505 91.200,236.552 90.436,240.517 86.762 C 243.127 84.343,248.559 84.053,251.042 86.200 M101.417 87.796 C 100.216 88.541,98.704 90.473,98.058 92.089 C 94.499 100.983,105.071 108.721,111.282 101.769 C 118.019 94.229,109.805 82.595,101.417 87.796 M291.884 87.540 C 298.660 91.044,296.714 103.043,289.138 104.464 C 283.171 105.584,279.200 101.714,279.200 94.778 C 279.200 87.945,285.602 84.292,291.884 87.540 M352.526 100.581 C 351.704 105.645,344.625 108.511,341.257 105.143 C 337.738 101.624,342.115 97.841,349.905 97.669 L 353.009 97.600 352.526 100.581 M59.200 99.430 C 56.209 100.936,56.026 104.545,58.886 105.633 C 63.182 107.266,67.304 105.091,68.424 100.600 C 69.055 98.072,63.339 97.347,59.200 99.430 "
      stroke="none" fill="#718096" fill-rule="evenodd"></path>
  </g>
</svg>