<svg id="svg" xmlns="http://www.w3.org/2000/svg" xmlns:xlink="http://www.w3.org/1999/xlink" width="400"
  height="224.93506493506493" viewBox="0, 0, 400,224.93506493506493" version="1.1">
  <g id="svgg">
    <path id="path0"
      d="M82.864 29.133 C 48.712 33.016,20.580 56.438,11.150 88.840 C 10.266 91.877,10.137 91.724,13.096 91.131 C 30.425 87.657,43.535 90.440,47.766 98.490 C 49.630 102.037,49.566 101.249,49.660 122.103 L 49.743 140.607 45.629 140.607 L 41.516 140.607 39.429 138.529 C 37.444 136.552,37.318 136.467,36.838 136.768 C 30.256 140.896,21.238 141.935,13.761 139.428 C 11.845 138.785,11.873 138.694,13.034 141.758 C 30.088 186.772,80.675 208.326,124.840 189.395 C 145.280 180.633,162.555 162.530,169.962 142.110 L 170.601 140.351 168.488 138.229 C 166.065 135.796,166.264 135.864,164.555 136.893 C 156.509 141.738,143.117 141.251,137.404 135.904 C 131.701 130.567,131.332 119.503,136.679 114.156 C 141.406 109.429,152.188 107.488,163.836 109.265 L 164.679 109.394 164.678 107.397 C 164.674 100.119,157.891 98.584,141.018 102.043 C 138.954 102.466,137.155 102.812,137.020 102.812 C 136.848 102.812,136.793 101.154,136.835 97.252 L 136.895 91.692 138.583 91.300 C 152.798 87.992,165.748 88.618,171.993 92.915 C 173.360 93.855,173.352 93.895,172.435 90.533 C 164.195 60.346,139.922 37.304,109.297 30.598 C 101.931 28.985,89.987 28.323,82.864 29.133 M115.156 85.317 L 116.140 89.307 122.468 89.367 L 128.796 89.426 128.796 94.938 L 128.796 100.450 123.211 100.510 L 117.626 100.570 117.711 112.771 C 117.826 129.314,117.736 129.119,125.253 129.129 L 128.909 129.134 128.909 134.758 L 128.909 140.382 122.038 140.382 C 109.091 140.382,105.355 138.099,104.188 129.471 C 104.022 128.250,103.753 82.764,103.903 81.492 C 103.930 81.269,105.052 81.220,109.055 81.267 L 114.173 81.327 115.156 85.317 M83.867 89.326 C 86.713 89.635,91.180 90.548,93.588 91.314 L 95.501 91.922 95.561 97.817 C 95.594 101.059,95.586 103.712,95.543 103.712 C 95.500 103.712,94.843 103.459,94.083 103.150 C 86.620 100.118,73.117 99.295,69.302 101.640 C 67.073 103.010,66.695 106.360,68.578 108.065 C 69.582 108.973,70.500 109.091,76.609 109.101 C 90.219 109.124,95.453 111.707,97.420 119.370 C 99.996 129.402,95.452 137.607,86.052 139.903 C 78.430 141.765,65.764 141.138,58.493 138.540 L 57.030 138.017 56.970 132.226 C 56.937 129.040,56.947 126.434,56.992 126.434 C 57.038 126.434,58.279 126.829,59.752 127.311 C 68.940 130.322,80.533 130.700,83.157 128.076 C 85.040 126.193,84.527 122.548,82.213 121.372 C 81.395 120.957,80.732 120.912,73.566 120.791 C 64.914 120.644,64.431 120.568,61.136 118.847 C 53.493 114.856,52.071 101.104,58.625 94.567 C 63.056 90.148,72.798 88.125,83.867 89.326 M301.859 92.223 C 299.893 92.861,298.762 94.393,298.763 96.415 C 298.765 98.435,299.801 99.465,303.037 100.662 C 306.105 101.797,307.313 102.869,307.311 104.454 C 307.307 107.378,303.135 108.558,300.076 106.499 L 298.908 105.714 298.329 106.297 L 297.750 106.881 298.313 107.337 C 302.429 110.678,308.691 109.039,309.053 104.526 C 309.266 101.876,308.137 100.653,304.114 99.178 C 301.574 98.247,300.562 97.396,300.562 96.190 C 300.562 93.905,303.142 92.949,306.066 94.150 L 307.407 94.702 307.919 94.221 C 309.142 93.072,304.231 91.453,301.859 92.223 M200.268 92.533 C 200.149 92.680,199.220 94.978,198.203 97.638 C 197.187 100.298,196.051 103.234,195.679 104.162 C 195.307 105.090,194.822 106.355,194.600 106.974 C 194.378 107.593,194.125 108.276,194.037 108.493 C 193.901 108.828,194.009 108.886,194.772 108.886 L 195.666 108.886 196.390 106.969 L 197.113 105.051 200.750 105.113 L 204.387 105.174 205.031 107.030 L 205.675 108.886 206.550 108.886 C 207.031 108.886,207.423 108.810,207.421 108.718 C 207.416 108.446,206.645 106.111,205.283 102.250 C 204.585 100.270,203.545 97.283,202.971 95.613 C 202.398 93.943,201.911 92.545,201.889 92.506 C 201.761 92.286,200.449 92.307,200.268 92.533 M251.294 93.588 L 251.294 94.742 252.025 94.671 C 252.731 94.603,252.756 94.566,252.756 93.588 C 252.756 92.611,252.731 92.574,252.025 92.505 L 251.294 92.435 251.294 93.588 M336.783 93.363 C 336.783 93.858,336.758 94.339,336.727 94.432 C 336.696 94.525,336.999 94.632,337.402 94.671 L 338.133 94.742 338.133 93.603 C 338.133 92.487,338.119 92.463,337.458 92.463 C 336.820 92.463,336.783 92.513,336.783 93.363 M354.960 95.881 L 354.893 97.300 354.049 97.370 C 353.286 97.433,353.206 97.502,353.206 98.088 C 353.206 98.674,353.286 98.742,354.049 98.805 L 354.893 98.875 355.006 103.037 C 355.149 108.340,355.523 109.014,358.303 108.987 C 359.682 108.973,360.038 108.732,359.840 107.946 C 359.709 107.424,359.626 107.396,358.500 107.489 C 356.670 107.641,356.556 107.363,356.507 102.657 L 356.468 98.875 358.099 98.809 L 359.730 98.743 359.730 98.088 L 359.730 97.433 358.099 97.366 L 356.468 97.300 356.468 95.951 L 356.468 94.601 355.748 94.531 L 355.028 94.461 354.960 95.881 M202.484 99.329 C 203.219 101.554,203.822 103.400,203.823 103.431 C 203.824 103.462,202.458 103.487,200.787 103.487 C 199.117 103.487,197.750 103.456,197.750 103.417 C 197.750 103.379,198.215 102.088,198.782 100.549 C 199.350 99.010,200.019 97.163,200.269 96.446 C 200.895 94.651,200.970 94.748,202.484 99.329 M389.539 95.467 C 388.462 95.949,388.218 96.421,388.086 98.279 C 387.975 99.849,387.920 100.006,387.458 100.072 C 387.096 100.123,386.952 100.295,386.952 100.675 C 386.952 101.054,387.096 101.227,387.458 101.278 C 387.957 101.349,387.965 101.402,388.026 105.133 C 388.087 108.900,388.090 108.916,388.588 108.845 C 389.080 108.775,389.090 108.708,389.150 105.017 L 389.212 101.260 390.388 101.193 C 392.142 101.091,392.138 100.258,390.382 100.157 L 389.201 100.089 389.201 98.638 C 389.201 96.772,389.685 96.173,391.042 96.355 C 391.699 96.443,391.963 96.388,392.058 96.141 C 392.338 95.410,390.667 94.963,389.539 95.467 M214.286 97.185 C 213.303 97.407,212.185 98.036,211.867 98.545 C 211.457 99.201,211.249 99.085,211.249 98.200 C 211.249 97.450,211.211 97.413,210.461 97.413 L 209.674 97.413 209.674 103.150 L 209.674 108.886 210.461 108.886 L 211.249 108.886 211.249 104.990 L 211.249 101.093 212.059 100.147 C 213.366 98.620,214.705 98.175,216.092 98.806 C 217.239 99.329,217.425 100.072,217.548 104.612 L 217.660 108.774 218.391 108.844 L 219.123 108.915 219.123 104.868 C 219.123 100.295,219.238 99.962,221.167 98.978 C 224.290 97.385,225.472 98.965,225.603 104.906 L 225.691 108.912 226.400 108.843 L 227.109 108.774 227.106 104.724 C 227.104 101.996,227.008 100.404,226.812 99.845 C 225.726 96.751,222.255 96.094,219.733 98.506 L 218.881 99.320 218.307 98.587 C 217.378 97.400,215.789 96.846,214.286 97.185 M234.533 97.181 C 227.703 98.223,228.745 109.111,235.675 109.111 C 238.008 109.111,241.137 106.891,239.807 106.180 C 239.415 105.970,239.213 106.052,238.471 106.722 C 236.405 108.589,233.162 107.935,231.976 105.413 C 231.034 103.408,230.870 103.487,235.996 103.487 L 240.495 103.487 240.518 102.981 C 240.691 99.137,238.109 96.635,234.533 97.181 M247.357 97.300 C 246.862 97.474,246.196 97.925,245.878 98.302 C 245.136 99.181,244.994 99.165,244.994 98.200 C 244.994 97.450,244.957 97.413,244.207 97.413 L 243.420 97.413 243.420 103.150 L 243.420 108.886 244.207 108.886 L 244.994 108.886 244.994 105.032 C 244.994 100.114,245.601 98.904,248.158 98.721 C 249.072 98.656,249.163 98.595,249.231 98.000 C 249.348 96.969,248.838 96.778,247.357 97.300 M260.462 97.201 C 254.649 98.149,254.072 107.097,259.715 108.780 C 261.578 109.336,264.817 108.872,264.785 108.054 C 264.753 107.249,264.180 107.067,262.844 107.439 C 259.708 108.311,257.215 106.188,257.406 102.807 C 257.595 99.476,260.204 97.810,263.568 98.871 C 263.920 98.983,264.092 98.884,264.286 98.457 C 264.667 97.622,264.359 97.439,261.980 97.093 C 261.732 97.057,261.049 97.105,260.462 97.201 M270.416 97.113 C 267.959 97.468,266.994 97.907,267.135 98.608 C 267.312 99.495,267.201 99.468,268.619 98.979 C 271.839 97.867,273.974 98.759,274.094 101.264 L 274.128 101.994 271.951 101.935 C 268.785 101.850,267.253 102.636,266.597 104.683 C 265.535 107.998,269.933 110.457,273.135 108.338 C 274.193 107.638,274.192 107.638,274.281 108.268 C 274.338 108.664,274.499 108.774,275.028 108.774 L 275.703 108.774 275.765 105.201 C 275.883 98.403,274.628 96.504,270.416 97.113 M283.845 97.287 C 283.223 97.453,282.454 97.875,282.035 98.281 C 281.111 99.176,280.990 99.167,280.990 98.200 C 280.990 97.450,280.953 97.413,280.199 97.413 L 279.407 97.413 279.467 103.093 L 279.528 108.774 280.259 108.844 L 280.990 108.915 280.990 105.177 C 280.990 100.645,281.241 99.991,283.397 98.901 C 286.524 97.321,287.821 99.009,287.926 104.794 L 288.000 108.912 288.713 108.843 L 289.426 108.774 289.426 104.493 C 289.426 98.048,287.985 96.188,283.845 97.287 M316.531 97.178 C 310.979 97.895,309.911 106.179,315.061 108.577 C 319.031 110.426,323.188 107.580,323.152 103.037 C 323.121 99.087,320.399 96.679,316.531 97.178 M329.842 97.205 C 323.930 98.364,323.367 106.754,329.066 108.787 C 330.738 109.383,334.083 108.937,334.083 108.118 C 334.083 107.253,333.537 107.025,332.394 107.413 C 328.524 108.727,325.314 104.680,327.218 100.888 C 328.191 98.948,330.100 98.161,332.416 98.744 C 333.610 99.045,333.548 99.067,333.746 98.280 C 333.966 97.401,331.834 96.815,329.842 97.205 M345.576 97.208 C 339.233 98.449,339.775 108.471,346.215 109.049 C 349.033 109.302,352.522 107.098,350.885 106.099 C 350.548 105.893,350.390 105.956,349.985 106.456 C 347.900 109.033,343.467 107.665,342.750 104.223 L 342.598 103.496 347.171 103.436 L 351.744 103.375 351.701 102.099 C 351.592 98.809,348.797 96.577,345.576 97.208 M251.294 103.164 L 251.294 108.915 252.025 108.844 L 252.756 108.774 252.816 103.093 L 252.876 97.413 252.085 97.413 L 251.294 97.413 251.294 103.164 M336.734 102.926 C 336.661 109.240,336.617 108.886,337.477 108.886 L 338.133 108.886 338.133 103.150 L 338.133 97.413 337.465 97.413 L 336.798 97.413 336.734 102.926 M362.205 97.667 C 362.205 97.807,363.087 100.522,364.165 103.701 L 366.125 109.480 365.359 111.461 C 364.619 113.375,364.608 113.452,365.017 113.751 C 365.733 114.274,365.971 114.109,366.439 112.767 C 366.798 111.736,371.383 99.399,371.999 97.807 C 372.127 97.476,372.020 97.413,371.329 97.413 C 370.371 97.413,370.612 96.947,368.501 102.874 C 367.717 105.074,367.005 106.795,366.918 106.699 C 366.831 106.603,366.081 104.474,365.251 101.969 L 363.742 97.413 362.973 97.413 C 362.551 97.413,362.205 97.527,362.205 97.667 M236.805 98.741 C 237.882 99.231,238.670 100.234,238.851 101.348 L 238.979 102.137 235.238 102.137 C 232.866 102.137,231.496 102.054,231.496 101.910 C 231.496 99.621,234.627 97.752,236.805 98.741 M348.675 99.149 C 349.371 99.677,350.265 101.188,350.276 101.856 C 350.280 102.070,349.391 102.137,346.569 102.137 C 342.452 102.137,342.391 102.110,343.173 100.608 C 344.278 98.485,346.888 97.793,348.675 99.149 M318.939 98.776 C 320.644 99.419,321.927 101.812,321.615 103.764 C 320.723 109.340,313.369 108.747,313.391 103.101 C 313.403 99.788,316.083 97.700,318.939 98.776 M379.450 100.204 C 374.384 102.080,376.590 110.121,381.839 108.914 C 386.723 107.791,386.294 100.577,381.309 99.999 C 380.719 99.930,379.963 100.014,379.450 100.204 M22.413 101.027 C 16.781 101.463,8.678 103.051,8.279 103.796 C 8.137 104.061,7.989 106.393,7.922 109.426 L 7.808 114.603 8.797 113.753 C 12.983 110.159,22.527 108.372,31.919 109.424 C 33.698 109.623,35.292 109.786,35.462 109.786 C 35.852 109.786,35.893 106.301,35.519 104.949 C 34.618 101.696,30.335 100.414,22.413 101.027 M382.818 101.711 C 385.791 104.488,382.740 109.600,379.346 107.531 C 376.447 105.764,377.849 100.794,381.166 101.080 C 381.900 101.143,382.425 101.344,382.818 101.711 M274.046 103.529 C 275.156 105.279,273.128 107.742,270.563 107.757 C 267.610 107.773,267.002 104.386,269.769 103.332 C 270.732 102.964,273.777 103.105,274.046 103.529 M265.692 125.197 L 265.692 135.901 267.660 135.836 L 269.629 135.771 269.629 125.197 L 269.629 114.623 267.660 114.558 L 265.692 114.493 265.692 125.197 M309.486 114.661 C 309.404 114.743,309.336 116.472,309.336 118.502 L 309.336 122.192 308.738 121.722 C 303.190 117.357,295.651 125.137,298.831 131.946 C 300.764 136.085,306.048 137.589,308.936 134.823 C 309.570 134.215,309.664 134.267,309.832 135.321 C 309.895 135.719,310.104 135.778,311.645 135.836 L 313.386 135.902 313.386 125.206 L 313.386 114.511 311.511 114.511 C 310.480 114.511,309.569 114.578,309.486 114.661 M332.152 115.715 C 332.088 115.883,332.066 116.668,332.103 117.459 L 332.171 118.898 334.139 118.963 L 336.108 119.028 336.108 117.219 L 336.108 115.411 334.189 115.411 C 332.781 115.411,332.238 115.492,332.152 115.715 M194.076 116.046 C 193.766 116.106,193.701 116.409,193.701 117.789 L 193.701 119.460 196.063 119.460 L 198.425 119.460 198.425 127.672 L 198.425 135.883 200.447 135.883 L 202.469 135.883 202.528 127.728 L 202.587 119.573 204.893 119.508 L 207.199 119.444 207.199 117.765 C 207.199 116.174,207.172 116.085,206.693 116.082 C 206.415 116.080,203.546 116.055,200.319 116.026 C 197.092 115.997,194.282 116.006,194.076 116.046 M286.692 116.198 C 286.526 116.322,285.066 119.663,283.447 123.622 C 279.196 134.018,278.515 135.700,278.515 135.805 C 278.515 135.856,279.539 135.870,280.790 135.835 L 283.065 135.771 283.675 134.083 L 284.285 132.396 287.852 132.396 L 291.418 132.396 292.028 134.083 L 292.638 135.771 294.913 135.835 C 297.636 135.911,297.540 136.216,296.045 132.266 C 295.416 130.605,293.854 126.462,292.574 123.060 C 291.293 119.657,290.180 116.704,290.100 116.498 C 289.930 116.058,287.202 115.818,286.692 116.198 M153.318 118.466 C 147.622 119.244,145.383 122.351,147.268 126.863 C 148.992 130.989,158.225 130.999,164.007 126.882 L 164.679 126.404 164.679 122.824 C 164.679 118.713,165.001 119.191,161.980 118.805 C 160.022 118.554,154.307 118.331,153.318 118.466 M22.385 119.326 C 18.686 120.240,17.166 123.059,18.247 126.997 C 19.480 131.483,30.791 131.547,35.516 127.094 C 36.041 126.600,36.212 120.277,35.715 119.780 C 35.075 119.140,24.583 118.783,22.385 119.326 M213.836 120.925 C 213.465 121.124,212.832 121.605,212.430 121.993 C 211.728 122.669,211.699 122.677,211.699 122.189 C 211.699 121.051,211.347 120.810,209.690 120.810 C 207.759 120.810,207.912 120.161,207.881 128.473 C 207.850 136.539,207.660 135.883,210.035 135.883 L 211.924 135.883 211.924 130.854 L 211.924 125.825 212.477 125.227 C 213.207 124.440,214.059 124.137,215.297 124.225 L 216.310 124.297 216.737 122.662 C 216.972 121.762,217.098 120.960,217.018 120.880 C 216.677 120.539,214.496 120.570,213.836 120.925 M221.669 120.909 C 220.904 121.083,219.819 121.428,219.259 121.676 L 218.241 122.126 218.738 123.506 C 219.287 125.032,219.228 125.012,221.147 124.291 C 224.278 123.114,226.772 124.008,226.772 126.308 C 226.772 126.820,226.744 126.826,224.773 126.714 C 219.499 126.413,216.127 129.848,218.063 133.550 C 219.475 136.249,224.263 137.085,226.597 135.039 C 226.950 134.729,227.006 134.752,227.210 135.291 C 227.426 135.859,227.506 135.883,229.142 135.883 L 230.849 135.883 230.779 130.202 C 230.702 124.020,230.660 123.799,229.277 122.308 C 227.851 120.770,224.768 120.203,221.669 120.909 M253.529 120.918 C 247.095 122.992,246.254 132.429,252.236 135.419 C 255.230 136.915,259.377 136.190,261.586 133.785 C 262.750 132.517,262.763 132.709,261.443 131.740 C 260.114 130.764,259.965 130.754,259.259 131.592 C 257.277 133.948,253.078 133.014,252.505 130.090 L 252.362 129.359 257.560 129.359 L 262.759 129.359 262.905 128.776 C 264.129 123.898,258.616 119.278,253.529 120.918 M342.831 120.882 C 340.724 121.670,339.632 123.097,339.634 125.059 C 339.636 127.315,340.348 128.148,343.607 129.709 C 346.280 130.990,346.709 131.558,345.676 132.447 C 344.765 133.231,343.229 133.082,341.794 132.070 L 340.764 131.345 339.617 132.504 L 338.470 133.663 339.347 134.432 C 342.966 137.605,349.547 136.237,350.155 132.185 C 350.512 129.805,349.487 128.471,346.072 126.873 C 344.148 125.971,343.750 125.697,343.620 125.178 C 343.264 123.760,345.283 123.336,347.087 124.451 L 347.850 124.923 348.992 123.781 C 350.327 122.446,350.287 122.301,348.321 121.339 C 346.833 120.611,344.152 120.388,342.831 120.882 M357.871 120.815 C 353.714 121.865,351.185 126.385,352.405 130.583 C 354.702 138.485,366.177 137.880,367.625 129.780 C 368.640 124.100,363.514 119.390,357.871 120.815 M376.265 120.904 C 375.894 121.069,375.287 121.529,374.916 121.924 L 374.241 122.643 373.995 121.783 L 373.750 120.922 372.083 120.922 L 370.416 120.922 370.416 128.346 L 370.416 135.771 372.385 135.836 L 374.353 135.901 374.353 130.860 C 374.353 124.675,374.728 123.915,377.618 124.240 L 378.625 124.354 379.076 122.839 C 379.325 122.006,379.528 121.220,379.528 121.093 C 379.528 120.551,377.341 120.424,376.265 120.904 M383.490 121.022 C 379.161 122.766,379.432 127.188,384.005 129.450 C 386.770 130.817,386.952 130.953,386.952 131.650 C 386.952 133.140,384.760 133.421,382.902 132.171 C 381.448 131.193,381.628 131.165,380.440 132.545 L 379.440 133.706 380.304 134.453 C 382.990 136.775,388.360 136.679,390.156 134.276 C 392.331 131.366,391.271 128.864,387.021 126.874 C 385.093 125.972,384.695 125.697,384.565 125.178 C 384.211 123.768,385.923 123.378,387.913 124.415 L 388.827 124.891 389.953 123.765 C 391.270 122.447,391.228 122.299,389.266 121.339 C 387.588 120.518,385.081 120.381,383.490 121.022 M232.615 120.970 C 232.612 121.068,233.848 124.467,235.362 128.524 L 238.114 135.900 239.809 135.835 L 241.504 135.771 243.490 130.934 C 244.583 128.273,245.925 125.020,246.473 123.705 C 247.778 120.571,247.866 120.782,245.276 120.858 L 243.082 120.922 241.620 125.363 C 240.816 127.806,240.106 129.805,240.043 129.807 C 239.980 129.808,239.266 127.809,238.455 125.366 L 236.983 120.922 234.802 120.858 C 233.602 120.823,232.618 120.873,232.615 120.970 M315.411 121.090 C 315.411 121.253,316.625 124.611,318.110 128.553 C 319.595 132.494,320.810 135.760,320.810 135.810 C 320.810 135.861,321.588 135.872,322.540 135.836 L 324.270 135.771 325.705 132.283 C 326.495 130.366,327.273 128.442,327.435 128.009 C 327.597 127.576,328.299 125.871,328.995 124.221 C 330.494 120.667,330.537 120.810,327.984 120.810 L 325.961 120.810 325.624 121.618 C 325.438 122.063,324.775 124.012,324.151 125.949 C 323.527 127.886,322.932 129.560,322.830 129.668 C 322.727 129.776,321.998 127.853,321.209 125.394 L 319.774 120.922 317.592 120.858 C 315.905 120.808,315.411 120.861,315.411 121.090 M332.208 120.960 C 332.126 121.042,332.058 124.434,332.058 128.496 L 332.058 135.883 334.083 135.883 L 336.108 135.883 336.108 128.346 L 336.108 120.810 334.233 120.810 C 333.202 120.810,332.291 120.877,332.208 120.960 M289.124 125.632 C 289.701 127.292,290.114 128.709,290.043 128.780 C 289.792 129.031,285.714 128.919,285.714 128.661 C 285.714 128.259,287.794 122.610,287.941 122.612 C 288.016 122.613,288.548 123.972,289.124 125.632 M257.000 124.045 C 257.905 124.423,258.718 125.408,258.718 126.127 L 258.718 126.659 255.681 126.659 C 252.311 126.659,252.257 126.630,253.154 125.286 C 254.064 123.925,255.558 123.442,257.000 124.045 M307.691 124.424 C 309.544 125.127,310.237 130.068,308.697 131.608 C 306.951 133.353,303.933 132.905,302.826 130.735 C 300.880 126.921,303.909 122.991,307.691 124.424 M361.778 124.692 C 364.211 126.309,364.121 130.778,361.625 132.237 C 359.154 133.683,356.306 131.668,356.314 128.480 C 356.322 125.051,359.256 123.017,361.778 124.692 M226.265 129.276 C 226.724 129.398,226.772 129.548,226.772 130.858 L 226.772 132.304 225.591 132.854 C 223.879 133.651,222.440 133.437,221.829 132.296 C 220.775 130.328,223.435 128.517,226.265 129.276 "
      stroke="none" fill="#718096" fill-rule="evenodd"></path>
    <path id="path1"
      d="M0.000 112.486 L 0.000 224.972 200.000 224.972 L 400.000 224.972 400.000 112.486 L 400.000 0.000 200.000 0.000 L 0.000 0.000 0.000 112.486 M103.375 29.554 C 137.033 34.702,163.598 58.158,172.435 90.533 C 173.352 93.895,173.360 93.855,171.993 92.915 C 165.748 88.618,152.798 87.992,138.583 91.300 L 136.895 91.692 136.835 97.252 C 136.793 101.154,136.848 102.812,137.020 102.812 C 137.155 102.812,138.954 102.466,141.018 102.043 C 157.891 98.584,164.674 100.119,164.678 107.397 L 164.679 109.394 163.836 109.265 C 152.188 107.488,141.406 109.429,136.679 114.156 C 131.332 119.503,131.701 130.567,137.404 135.904 C 143.117 141.251,156.509 141.738,164.555 136.893 C 166.264 135.864,166.065 135.796,168.488 138.229 L 170.601 140.351 169.962 142.110 C 162.555 162.530,145.280 180.633,124.840 189.395 C 80.675 208.326,30.088 186.772,13.034 141.758 C 11.873 138.694,11.845 138.785,13.761 139.428 C 21.238 141.935,30.256 140.896,36.838 136.768 C 37.318 136.467,37.444 136.552,39.429 138.529 L 41.516 140.607 45.629 140.607 L 49.743 140.607 49.660 122.103 C 49.566 101.249,49.630 102.037,47.766 98.490 C 43.535 90.440,30.425 87.657,13.096 91.131 C 10.137 91.724,10.266 91.877,11.150 88.840 C 19.962 58.561,45.649 35.567,76.853 30.026 C 84.898 28.597,95.845 28.402,103.375 29.554 M103.903 81.492 C 103.753 82.764,104.022 128.250,104.188 129.471 C 105.355 138.099,109.091 140.382,122.038 140.382 L 128.909 140.382 128.909 134.758 L 128.909 129.134 125.253 129.129 C 117.736 129.119,117.826 129.314,117.711 112.771 L 117.626 100.570 123.211 100.510 L 128.796 100.450 128.796 94.938 L 128.796 89.426 122.468 89.367 L 116.140 89.307 115.156 85.317 L 114.173 81.327 109.055 81.267 C 105.052 81.220,103.930 81.269,103.903 81.492 M70.754 89.416 C 59.885 90.914,54.599 96.180,54.596 105.512 C 54.593 113.399,57.632 118.017,64.229 120.150 C 65.700 120.625,66.319 120.668,73.566 120.791 C 80.732 120.912,81.395 120.957,82.213 121.372 C 84.527 122.548,85.040 126.193,83.157 128.076 C 80.533 130.700,68.940 130.322,59.752 127.311 C 58.279 126.829,57.038 126.434,56.992 126.434 C 56.947 126.434,56.937 129.040,56.970 132.226 L 57.030 138.017 58.493 138.540 C 64.127 140.553,76.845 141.664,82.565 140.644 C 93.681 138.660,98.564 133.243,98.011 123.510 C 97.398 112.724,92.055 109.128,76.609 109.101 C 70.500 109.091,69.582 108.973,68.578 108.065 C 66.695 106.360,67.073 103.010,69.302 101.640 C 73.117 99.295,86.620 100.118,94.083 103.150 C 94.843 103.459,95.500 103.712,95.543 103.712 C 95.586 103.712,95.594 101.059,95.561 97.817 L 95.501 91.922 93.588 91.314 C 87.367 89.336,77.363 88.505,70.754 89.416 M306.864 92.711 C 308.369 93.358,308.554 93.624,307.919 94.221 L 307.407 94.702 306.066 94.150 C 303.142 92.949,300.562 93.905,300.562 96.190 C 300.562 97.396,301.574 98.247,304.114 99.178 C 308.137 100.653,309.266 101.876,309.053 104.526 C 308.691 109.039,302.429 110.678,298.313 107.337 L 297.750 106.881 298.329 106.297 L 298.908 105.714 300.076 106.499 C 303.135 108.558,307.307 107.378,307.311 104.454 C 307.313 102.869,306.105 101.797,303.037 100.662 C 299.801 99.465,298.765 98.435,298.763 96.415 C 298.761 92.762,302.746 90.939,306.864 92.711 M201.889 92.506 C 201.911 92.545,202.398 93.943,202.971 95.613 C 203.545 97.283,204.585 100.270,205.283 102.250 C 206.645 106.111,207.416 108.446,207.421 108.718 C 207.423 108.810,207.031 108.886,206.550 108.886 L 205.675 108.886 205.031 107.030 L 204.387 105.174 200.750 105.113 L 197.113 105.051 196.390 106.969 L 195.666 108.886 194.772 108.886 C 194.009 108.886,193.901 108.828,194.037 108.493 C 194.125 108.276,194.378 107.593,194.600 106.974 C 194.822 106.355,195.307 105.090,195.679 104.162 C 196.051 103.234,197.187 100.298,198.203 97.638 C 199.220 94.978,200.149 92.680,200.268 92.533 C 200.449 92.307,201.761 92.286,201.889 92.506 M252.756 93.588 C 252.756 94.566,252.731 94.603,252.025 94.671 L 251.294 94.742 251.294 93.588 L 251.294 92.435 252.025 92.505 C 252.731 92.574,252.756 92.611,252.756 93.588 M338.133 93.603 L 338.133 94.742 337.402 94.671 C 336.999 94.632,336.696 94.525,336.727 94.432 C 336.758 94.339,336.783 93.858,336.783 93.363 C 336.783 92.513,336.820 92.463,337.458 92.463 C 338.119 92.463,338.133 92.487,338.133 93.603 M356.468 95.951 L 356.468 97.300 358.099 97.366 L 359.730 97.433 359.730 98.088 L 359.730 98.743 358.099 98.809 L 356.468 98.875 356.507 102.657 C 356.556 107.363,356.670 107.641,358.500 107.489 C 359.626 107.396,359.709 107.424,359.840 107.946 C 360.038 108.732,359.682 108.973,358.303 108.987 C 355.523 109.014,355.149 108.340,355.006 103.037 L 354.893 98.875 354.049 98.805 C 353.286 98.742,353.206 98.674,353.206 98.088 C 353.206 97.502,353.286 97.433,354.049 97.370 L 354.893 97.300 354.960 95.881 L 355.028 94.461 355.748 94.531 L 356.468 94.601 356.468 95.951 M200.269 96.446 C 200.019 97.163,199.350 99.010,198.782 100.549 C 198.215 102.088,197.750 103.379,197.750 103.417 C 197.750 103.456,199.117 103.487,200.787 103.487 C 202.458 103.487,203.824 103.462,203.823 103.431 C 203.811 103.012,201.088 95.263,200.935 95.212 C 200.819 95.174,200.519 95.729,200.269 96.446 M391.987 95.615 C 392.456 96.070,391.938 96.475,391.042 96.355 C 389.685 96.173,389.201 96.772,389.201 98.638 L 389.201 100.089 390.382 100.157 C 392.138 100.258,392.142 101.091,390.388 101.193 L 389.212 101.260 389.150 105.017 C 389.090 108.708,389.080 108.775,388.588 108.845 C 388.090 108.916,388.087 108.900,388.026 105.133 C 387.965 101.402,387.957 101.349,387.458 101.278 C 387.096 101.227,386.952 101.054,386.952 100.675 C 386.952 100.295,387.096 100.123,387.458 100.072 C 387.920 100.006,387.975 99.849,388.086 98.279 C 388.269 95.712,390.508 94.183,391.987 95.615 M217.134 97.553 C 217.464 97.718,217.991 98.184,218.307 98.587 L 218.881 99.320 219.733 98.506 C 222.255 96.094,225.726 96.751,226.812 99.845 C 227.008 100.404,227.104 101.996,227.106 104.724 L 227.109 108.774 226.400 108.843 L 225.691 108.912 225.603 104.906 C 225.472 98.965,224.290 97.385,221.167 98.978 C 219.238 99.962,219.123 100.295,219.123 104.868 L 219.123 108.915 218.391 108.844 L 217.660 108.774 217.548 104.612 C 217.425 100.072,217.239 99.329,216.092 98.806 C 214.705 98.175,213.366 98.620,212.059 100.147 L 211.249 101.093 211.249 104.990 L 211.249 108.886 210.461 108.886 L 209.674 108.886 209.674 103.150 L 209.674 97.413 210.461 97.413 C 211.211 97.413,211.249 97.450,211.249 98.200 C 211.249 99.085,211.457 99.201,211.867 98.545 C 212.687 97.231,215.458 96.709,217.134 97.553 M237.823 97.660 C 239.654 98.576,240.629 100.502,240.518 102.981 L 240.495 103.487 235.996 103.487 C 230.870 103.487,231.034 103.408,231.976 105.413 C 233.162 107.935,236.405 108.589,238.471 106.722 C 239.213 106.052,239.415 105.970,239.807 106.180 C 240.462 106.530,240.398 106.710,239.271 107.703 C 235.619 110.917,230.296 108.554,229.971 103.574 C 229.662 98.844,233.864 95.679,237.823 97.660 M249.006 97.159 C 249.760 97.638,249.212 98.646,248.158 98.721 C 245.601 98.904,244.994 100.114,244.994 105.032 L 244.994 108.886 244.207 108.886 L 243.420 108.886 243.420 103.150 L 243.420 97.413 244.207 97.413 C 244.957 97.413,244.994 97.450,244.994 98.200 C 244.994 99.165,245.136 99.181,245.878 98.302 C 246.660 97.376,248.364 96.753,249.006 97.159 M263.196 97.287 C 264.321 97.476,264.598 97.773,264.286 98.457 C 264.092 98.884,263.920 98.983,263.568 98.871 C 260.204 97.810,257.595 99.476,257.406 102.807 C 257.215 106.188,259.708 108.311,262.844 107.439 C 264.097 107.090,264.184 107.092,264.473 107.472 C 265.407 108.704,262.312 109.555,259.715 108.780 C 254.072 107.097,254.649 98.149,260.462 97.201 C 261.517 97.029,261.694 97.035,263.196 97.287 M273.512 97.451 C 275.318 98.000,275.858 99.858,275.765 105.201 L 275.703 108.774 275.028 108.774 C 274.499 108.774,274.338 108.664,274.281 108.268 C 274.192 107.638,274.193 107.638,273.135 108.338 C 269.933 110.457,265.535 107.998,266.597 104.683 C 267.253 102.636,268.785 101.850,271.951 101.935 L 274.128 101.994 274.094 101.264 C 273.974 98.759,271.839 97.867,268.619 98.979 C 267.201 99.468,267.312 99.495,267.135 98.608 C 266.999 97.931,267.010 97.921,268.426 97.559 C 270.776 96.958,271.817 96.936,273.512 97.451 M287.511 97.626 C 289.109 98.421,289.426 99.558,289.426 104.493 L 289.426 108.774 288.713 108.843 L 288.000 108.912 287.926 104.794 C 287.821 99.009,286.524 97.321,283.397 98.901 C 281.241 99.991,280.990 100.645,280.990 105.177 L 280.990 108.915 280.259 108.844 L 279.528 108.774 279.467 103.093 L 279.407 97.413 280.199 97.413 C 280.953 97.413,280.990 97.450,280.990 98.200 C 280.990 99.167,281.111 99.176,282.035 98.281 C 283.337 97.019,285.718 96.734,287.511 97.626 M320.069 97.677 C 324.505 99.745,324.116 107.191,319.489 108.767 C 315.407 110.158,311.648 107.265,311.740 102.803 C 311.829 98.471,316.113 95.834,320.069 97.677 M333.146 97.455 C 333.811 97.659,333.879 97.751,333.746 98.280 C 333.548 99.067,333.610 99.045,332.416 98.744 C 330.100 98.161,328.191 98.948,327.218 100.888 C 325.314 104.680,328.524 108.727,332.394 107.413 C 333.537 107.025,334.083 107.253,334.083 108.118 C 334.083 108.937,330.738 109.383,329.066 108.787 C 321.521 106.095,325.478 95.107,333.146 97.455 M348.625 97.429 C 350.256 98.034,351.636 100.128,351.701 102.099 L 351.744 103.375 347.171 103.436 L 342.598 103.496 342.750 104.223 C 343.467 107.665,347.900 109.033,349.985 106.456 C 350.532 105.780,351.294 105.958,351.294 106.762 C 351.294 108.563,346.475 109.712,344.078 108.483 C 337.876 105.303,342.109 95.013,348.625 97.429 M252.816 103.093 L 252.756 108.774 252.025 108.844 L 251.294 108.915 251.294 103.164 L 251.294 97.413 252.085 97.413 L 252.876 97.413 252.816 103.093 M338.133 103.150 L 338.133 108.886 337.477 108.886 C 336.617 108.886,336.661 109.240,336.734 102.926 L 336.798 97.413 337.465 97.413 L 338.133 97.413 338.133 103.150 M365.251 101.969 C 366.081 104.474,366.831 106.603,366.918 106.699 C 367.005 106.795,367.717 105.074,368.501 102.874 C 370.612 96.947,370.371 97.413,371.329 97.413 C 372.020 97.413,372.127 97.476,371.999 97.807 C 371.383 99.399,366.798 111.736,366.439 112.767 C 365.971 114.109,365.733 114.274,365.017 113.751 C 364.608 113.452,364.619 113.375,365.359 111.461 L 366.125 109.480 364.165 103.701 C 361.905 97.039,361.976 97.413,362.973 97.413 L 363.742 97.413 365.251 101.969 M234.308 98.588 C 232.924 99.078,231.496 100.765,231.496 101.910 C 231.496 102.054,232.866 102.137,235.238 102.137 L 238.979 102.137 238.851 101.348 C 238.510 99.250,236.274 97.891,234.308 98.588 M345.479 98.634 C 344.067 99.149,342.857 100.553,342.857 101.676 C 342.857 102.122,342.977 102.137,346.569 102.137 C 350.674 102.137,350.552 102.193,349.851 100.649 C 349.045 98.874,347.178 98.013,345.479 98.634 M315.749 98.892 C 312.195 100.745,312.693 106.525,316.492 107.530 C 319.730 108.386,322.425 105.164,321.406 101.656 C 320.667 99.115,317.907 97.767,315.749 98.892 M383.224 100.654 C 385.751 102.135,385.968 106.420,383.605 108.158 C 380.611 110.360,376.603 108.266,376.603 104.499 C 376.603 100.869,380.113 98.831,383.224 100.654 M31.640 101.487 C 33.504 102.062,35.119 103.503,35.519 104.949 C 35.893 106.301,35.852 109.786,35.462 109.786 C 35.292 109.786,33.698 109.623,31.919 109.424 C 22.527 108.372,12.983 110.159,8.797 113.753 L 7.808 114.603 7.922 109.426 C 8.061 103.152,7.927 103.479,10.616 102.868 C 19.163 100.924,27.942 100.347,31.640 101.487 M379.346 101.454 C 376.630 103.159,377.762 107.985,380.877 107.985 C 383.881 107.985,385.149 103.888,382.818 101.711 C 382.001 100.948,380.348 100.826,379.346 101.454 M269.769 103.332 C 267.002 104.386,267.610 107.773,270.563 107.757 C 273.128 107.742,275.156 105.279,274.046 103.529 C 273.777 103.105,270.732 102.964,269.769 103.332 M269.629 125.197 L 269.629 135.771 267.660 135.836 L 265.692 135.901 265.692 125.197 L 265.692 114.493 267.660 114.558 L 269.629 114.623 269.629 125.197 M313.386 125.206 L 313.386 135.902 311.645 135.836 C 310.104 135.778,309.895 135.719,309.832 135.321 C 309.664 134.267,309.570 134.215,308.936 134.823 C 306.048 137.589,300.764 136.085,298.831 131.946 C 295.651 125.137,303.190 117.357,308.738 121.722 L 309.336 122.192 309.336 118.502 C 309.336 114.176,309.154 114.511,311.511 114.511 L 313.386 114.511 313.386 125.206 M336.108 117.219 L 336.108 119.028 334.139 118.963 L 332.171 118.898 332.103 117.459 C 332.005 115.379,331.973 115.411,334.189 115.411 L 336.108 115.411 336.108 117.219 M206.693 116.082 C 207.172 116.085,207.199 116.174,207.199 117.765 L 207.199 119.444 204.893 119.508 L 202.587 119.573 202.528 127.728 L 202.469 135.883 200.447 135.883 L 198.425 135.883 198.425 127.672 L 198.425 119.460 196.063 119.460 L 193.701 119.460 193.701 117.789 C 193.701 115.762,192.959 115.960,200.319 116.026 C 203.546 116.055,206.415 116.080,206.693 116.082 M290.100 116.498 C 290.180 116.704,291.293 119.657,292.574 123.060 C 293.854 126.462,295.416 130.605,296.045 132.266 C 297.540 136.216,297.636 135.911,294.913 135.835 L 292.638 135.771 292.028 134.083 L 291.418 132.396 287.852 132.396 L 284.285 132.396 283.675 134.083 L 283.065 135.771 280.790 135.835 C 279.539 135.870,278.515 135.856,278.515 135.805 C 278.515 135.700,279.196 134.018,283.447 123.622 C 285.066 119.663,286.526 116.322,286.692 116.198 C 287.202 115.818,289.930 116.058,290.100 116.498 M161.980 118.805 C 165.001 119.191,164.679 118.713,164.679 122.824 L 164.679 126.404 164.007 126.882 C 158.225 130.999,148.992 130.989,147.268 126.863 C 145.383 122.351,147.622 119.244,153.318 118.466 C 154.307 118.331,160.022 118.554,161.980 118.805 M33.139 119.330 C 36.130 119.705,35.842 119.304,35.955 123.258 C 36.067 127.213,36.176 127.019,32.958 128.576 C 26.511 131.696,19.327 130.925,18.247 126.997 C 16.443 120.429,21.431 117.861,33.139 119.330 M217.018 120.880 C 217.098 120.960,216.972 121.762,216.737 122.662 L 216.310 124.297 215.297 124.225 C 214.059 124.137,213.207 124.440,212.477 125.227 L 211.924 125.825 211.924 130.854 L 211.924 135.883 210.035 135.883 C 207.660 135.883,207.850 136.539,207.881 128.473 C 207.912 120.161,207.759 120.810,209.690 120.810 C 211.347 120.810,211.699 121.051,211.699 122.189 C 211.699 122.677,211.728 122.669,212.430 121.993 C 213.756 120.713,216.247 120.109,217.018 120.880 M227.788 121.208 C 230.411 122.556,230.695 123.411,230.779 130.202 L 230.849 135.883 229.142 135.883 C 227.506 135.883,227.426 135.859,227.210 135.291 C 227.006 134.752,226.950 134.729,226.597 135.039 C 224.263 137.085,219.475 136.249,218.063 133.550 C 216.127 129.848,219.499 126.413,224.773 126.714 C 226.744 126.826,226.772 126.820,226.772 126.308 C 226.772 124.008,224.278 123.114,221.147 124.291 C 219.228 125.012,219.287 125.032,218.738 123.506 L 218.241 122.126 219.259 121.676 C 221.878 120.518,226.005 120.291,227.788 121.208 M258.830 121.152 C 261.668 122.350,263.607 125.978,262.905 128.776 L 262.759 129.359 257.560 129.359 L 252.362 129.359 252.505 130.090 C 253.078 133.014,257.277 133.948,259.259 131.592 C 259.965 130.754,260.114 130.764,261.443 131.740 C 262.763 132.709,262.750 132.517,261.586 133.785 C 257.863 137.839,250.376 136.535,248.672 131.534 C 246.396 124.861,252.600 118.521,258.830 121.152 M348.321 121.339 C 350.287 122.301,350.327 122.446,348.992 123.781 L 347.850 124.923 347.087 124.451 C 345.283 123.336,343.264 123.760,343.620 125.178 C 343.750 125.697,344.148 125.971,346.072 126.873 C 349.487 128.471,350.512 129.805,350.155 132.185 C 349.547 136.237,342.966 137.605,339.347 134.432 L 338.470 133.663 339.617 132.504 L 340.764 131.345 341.794 132.070 C 343.229 133.082,344.765 133.231,345.676 132.447 C 346.709 131.558,346.280 130.990,343.607 129.709 C 340.348 128.148,339.636 127.315,339.634 125.059 C 339.630 121.353,344.280 119.362,348.321 121.339 M363.374 121.315 C 366.513 122.761,368.258 126.236,367.625 129.780 C 365.917 139.339,351.324 137.580,352.141 127.913 C 352.619 122.260,358.247 118.954,363.374 121.315 M379.021 120.727 C 379.638 120.892,379.640 120.947,379.076 122.839 L 378.625 124.354 377.618 124.240 C 374.728 123.915,374.353 124.675,374.353 130.860 L 374.353 135.901 372.385 135.836 L 370.416 135.771 370.416 128.346 L 370.416 120.922 372.083 120.922 L 373.750 120.922 373.995 121.783 L 374.241 122.643 374.916 121.924 C 376.012 120.756,377.505 120.320,379.021 120.727 M389.266 121.339 C 391.228 122.299,391.270 122.447,389.953 123.765 L 388.827 124.891 387.913 124.415 C 385.923 123.378,384.211 123.768,384.565 125.178 C 384.695 125.697,385.093 125.972,387.021 126.874 C 391.271 128.864,392.331 131.366,390.156 134.276 C 388.360 136.679,382.990 136.775,380.304 134.453 L 379.440 133.706 380.440 132.545 C 381.628 131.165,381.448 131.193,382.902 132.171 C 384.760 133.421,386.952 133.140,386.952 131.650 C 386.952 130.953,386.770 130.817,384.005 129.450 C 380.723 127.826,379.670 125.599,380.988 123.067 C 382.215 120.710,386.256 119.866,389.266 121.339 M238.455 125.366 C 239.266 127.809,239.980 129.808,240.043 129.807 C 240.106 129.805,240.816 127.806,241.620 125.363 L 243.082 120.922 245.276 120.858 C 247.866 120.782,247.778 120.571,246.473 123.705 C 245.925 125.020,244.583 128.273,243.490 130.934 L 241.504 135.771 239.809 135.835 L 238.114 135.900 235.362 128.524 C 233.848 124.467,232.612 121.068,232.615 120.970 C 232.618 120.873,233.602 120.823,234.802 120.858 L 236.983 120.922 238.455 125.366 M321.209 125.394 C 321.998 127.853,322.727 129.776,322.830 129.668 C 322.932 129.560,323.527 127.886,324.151 125.949 C 324.775 124.012,325.438 122.063,325.624 121.618 L 325.961 120.810 327.984 120.810 C 330.537 120.810,330.494 120.667,328.995 124.221 C 328.299 125.871,327.597 127.576,327.435 128.009 C 327.273 128.442,326.495 130.366,325.705 132.283 L 324.270 135.771 322.540 135.836 C 321.588 135.872,320.810 135.861,320.810 135.810 C 320.810 135.760,319.595 132.494,318.110 128.553 C 314.847 119.890,314.907 120.779,317.592 120.858 L 319.774 120.922 321.209 125.394 M336.108 128.346 L 336.108 135.883 334.083 135.883 L 332.058 135.883 332.058 128.496 C 332.058 124.434,332.126 121.042,332.208 120.960 C 332.291 120.877,333.202 120.810,334.233 120.810 L 336.108 120.810 336.108 128.346 M286.760 125.512 C 286.185 127.108,285.714 128.525,285.714 128.661 C 285.714 128.919,289.792 129.031,290.043 128.780 C 290.193 128.630,288.143 122.614,287.941 122.612 C 287.867 122.611,287.336 123.916,286.760 125.512 M254.448 124.129 C 253.664 124.522,252.643 125.782,252.643 126.355 C 252.643 126.596,253.278 126.659,255.681 126.659 L 258.718 126.659 258.718 126.127 C 258.718 124.420,256.207 123.245,254.448 124.129 M304.148 124.554 C 301.733 126.054,301.606 130.399,303.930 132.053 C 305.292 133.023,307.486 132.818,308.697 131.608 C 309.596 130.709,309.694 125.947,308.830 125.139 C 307.775 124.150,305.297 123.841,304.148 124.554 M358.493 124.400 C 355.894 125.482,355.528 130.348,357.917 132.049 C 360.405 133.821,363.555 131.822,363.555 128.471 C 363.555 125.406,361.004 123.355,358.493 124.400 M223.032 129.457 C 221.271 130.223,221.097 132.230,222.718 133.069 C 223.625 133.538,224.218 133.493,225.591 132.854 L 226.772 132.304 226.772 130.858 C 226.772 129.548,226.724 129.398,226.265 129.276 C 225.404 129.045,223.769 129.137,223.032 129.457 "
      stroke="none" fill="transparent" fill-rule="evenodd"></path>
  </g>
</svg>