<svg id="svg" version="1.1" xmlns="http://www.w3.org/2000/svg" xmlns:xlink="http://www.w3.org/1999/xlink" width="400"
  height="133.33333333333334" viewBox="0, 0, 400,133.33333333333334">
  <g id="svgg">
    <path id="path0"
      d="M192.000 8.425 C 191.496 8.567,190.024 8.863,188.730 9.083 C 187.436 9.303,185.823 9.676,185.147 9.913 C 184.470 10.150,183.467 10.460,182.917 10.602 C 182.367 10.744,181.542 11.068,181.083 11.322 C 180.625 11.575,179.987 11.886,179.667 12.012 C 178.893 12.316,175.549 14.412,174.917 14.990 C 174.642 15.242,174.154 15.624,173.833 15.841 C 172.706 16.603,170.342 18.889,169.640 19.898 C 169.249 20.458,168.739 21.112,168.507 21.350 C 167.650 22.227,165.533 27.111,164.664 30.215 C 163.625 33.927,163.537 41.591,164.504 44.278 C 164.696 44.813,165.029 45.813,165.244 46.500 C 166.081 49.180,167.553 52.243,168.658 53.608 C 168.892 53.896,169.267 54.440,169.492 54.816 C 171.179 57.640,179.284 63.470,182.462 64.145 C 182.945 64.247,183.722 64.524,184.187 64.760 C 184.653 64.996,185.870 65.370,186.892 65.591 C 187.914 65.812,189.132 66.100,189.598 66.230 C 192.227 66.965,199.776 67.122,203.417 66.518 C 207.583 65.826,209.963 65.325,211.333 64.851 C 213.761 64.010,214.707 63.653,215.322 63.344 C 215.649 63.180,216.329 62.913,216.833 62.752 C 221.062 61.396,223.727 58.861,223.401 56.504 C 223.315 55.883,223.300 52.133,223.367 47.750 C 223.511 38.317,223.412 34.812,222.987 34.271 C 222.435 33.570,221.536 33.427,217.917 33.468 C 216.083 33.489,211.160 33.523,206.976 33.545 C 199.915 33.581,199.344 33.605,199.037 33.883 C 198.414 34.447,198.324 35.338,198.374 40.417 C 198.438 46.902,198.368 46.752,201.396 46.971 C 203.467 47.121,203.581 47.164,203.754 47.867 C 204.370 50.359,193.631 51.227,189.250 49.038 C 185.186 47.008,183.431 44.131,183.230 39.169 C 182.985 33.130,184.921 28.392,188.333 26.673 C 189.571 26.050,192.730 25.140,194.182 24.988 C 194.998 24.903,196.360 24.760,197.208 24.670 C 200.664 24.302,204.603 24.722,209.636 25.992 C 210.742 26.271,211.777 26.500,211.935 26.500 C 212.094 26.500,212.717 26.721,213.320 26.991 C 218.419 29.272,220.248 29.702,220.872 28.767 C 221.069 28.473,221.024 14.342,220.824 13.624 C 220.594 12.795,220.139 12.400,219.137 12.160 C 218.683 12.051,217.847 11.716,217.280 11.417 C 216.714 11.117,215.678 10.754,214.979 10.610 C 214.279 10.467,213.417 10.201,213.062 10.021 C 212.467 9.718,209.770 9.154,206.083 8.561 C 203.743 8.184,193.217 8.083,192.000 8.425 M44.744 8.852 C 43.535 9.000,43.247 9.121,42.998 9.587 C 42.674 10.193,42.666 64.527,42.990 65.309 C 43.347 66.170,45.102 66.272,58.215 66.189 L 61.846 66.167 62.513 65.542 L 63.180 64.917 63.215 57.333 C 63.249 49.950,63.259 49.729,63.610 48.970 C 64.137 47.830,64.070 47.838,73.250 47.815 C 82.322 47.791,82.144 47.807,82.526 47.000 C 82.858 46.299,83.117 34.879,82.844 33.024 C 82.533 30.925,82.705 30.961,72.721 30.936 C 64.896 30.917,64.680 30.908,64.233 30.574 C 62.987 29.645,63.081 26.858,64.388 25.991 C 64.687 25.792,66.223 25.736,73.250 25.667 C 82.222 25.579,82.270 25.574,82.685 24.799 C 83.000 24.211,83.070 10.658,82.763 9.921 C 82.278 8.761,83.464 8.831,63.544 8.788 C 53.665 8.767,45.206 8.796,44.744 8.852 M90.778 8.852 C 90.089 9.037,89.674 9.336,89.417 9.833 C 89.193 10.266,89.169 13.485,89.207 37.741 L 89.250 65.159 89.700 65.609 L 90.150 66.059 97.867 66.205 C 102.111 66.285,106.108 66.309,106.750 66.259 C 107.392 66.209,113.415 66.163,120.135 66.156 L 132.353 66.145 132.868 65.684 L 133.384 65.223 133.351 57.986 C 133.331 53.765,133.247 50.484,133.149 50.112 C 132.840 48.944,133.116 48.971,121.314 48.942 L 110.860 48.917 110.447 48.528 C 109.670 47.798,109.667 47.725,109.664 28.468 C 109.662 8.581,109.716 9.643,108.665 9.136 C 108.069 8.848,91.760 8.589,90.778 8.852 M140.697 8.953 C 139.863 9.106,139.489 9.265,139.209 9.587 L 138.834 10.018 138.842 37.436 C 138.851 66.820,138.811 65.534,139.733 65.814 C 141.181 66.255,158.213 66.408,159.083 65.987 C 159.964 65.562,159.936 66.520,159.926 37.233 L 159.917 9.805 159.466 9.417 C 158.830 8.870,157.823 8.807,149.197 8.776 C 143.999 8.758,141.480 8.810,140.697 8.953 M230.304 8.797 L 228.359 8.844 227.865 9.406 L 227.371 9.968 227.269 13.526 C 227.009 22.526,227.234 64.554,227.545 65.123 C 228.185 66.295,227.824 66.252,236.848 66.219 C 245.442 66.188,245.984 66.143,246.678 65.405 L 247.083 64.974 247.168 56.528 C 247.235 49.902,247.302 47.989,247.479 47.643 C 247.935 46.751,247.942 46.750,256.104 46.750 L 263.658 46.750 264.092 47.183 C 264.729 47.820,264.870 49.317,264.736 54.010 C 264.674 56.170,264.680 59.505,264.748 61.421 L 264.873 64.906 265.396 65.429 C 266.069 66.102,267.080 66.175,276.108 66.195 C 283.466 66.212,283.621 66.190,284.202 65.000 C 284.560 64.267,284.789 11.070,284.439 10.016 C 284.015 8.741,284.417 8.791,274.751 8.818 C 265.479 8.844,265.451 8.846,264.968 9.710 C 264.811 9.989,264.749 11.791,264.720 16.833 C 264.662 27.175,264.635 27.430,263.554 27.844 C 263.005 28.054,253.764 28.198,250.885 28.041 C 246.990 27.829,247.286 28.604,247.173 18.333 C 247.077 9.667,247.057 9.477,246.203 9.020 C 245.917 8.866,234.223 8.702,230.304 8.797 M316.000 8.824 C 287.639 8.925,289.012 8.876,288.518 9.800 C 288.279 10.246,288.309 24.431,288.550 24.960 C 289.048 26.053,289.199 26.074,297.083 26.172 C 302.357 26.237,304.349 26.316,304.623 26.469 C 305.571 26.997,305.528 26.074,305.557 46.146 C 305.586 66.613,305.509 65.210,306.648 65.876 C 307.399 66.316,325.802 66.296,326.627 65.854 C 327.753 65.252,327.667 66.878,327.667 46.219 C 327.667 26.168,327.632 26.964,328.516 26.491 C 328.748 26.367,331.277 26.278,336.140 26.220 C 343.183 26.137,343.429 26.124,343.787 25.793 C 344.542 25.095,344.580 24.684,344.582 17.045 L 344.583 9.840 344.062 9.318 C 343.403 8.659,346.577 8.715,316.000 8.824 M66.000 73.002 C 62.585 73.229,61.054 73.456,59.443 73.974 C 58.604 74.245,57.467 74.578,56.917 74.715 C 51.927 75.960,44.288 81.122,42.659 84.349 C 42.389 84.883,42.034 85.393,41.869 85.481 C 41.705 85.569,41.463 85.853,41.332 86.112 C 41.201 86.371,40.862 86.958,40.580 87.417 C 39.571 89.052,38.325 92.299,37.669 95.000 C 37.312 96.466,37.172 100.143,37.359 103.083 C 37.875 111.177,42.339 118.488,49.417 122.831 C 51.360 124.024,53.799 125.226,54.656 125.414 C 54.968 125.483,55.717 125.748,56.320 126.003 C 63.687 129.124,77.873 128.053,86.645 123.712 C 89.795 122.154,89.499 123.182,89.499 113.801 L 89.500 106.019 89.103 105.557 C 88.608 104.981,87.900 105.314,85.500 107.255 C 83.688 108.720,80.845 110.091,78.073 110.837 C 76.979 111.132,75.711 111.477,75.255 111.603 C 73.932 111.971,70.010 111.912,68.485 111.501 C 67.806 111.317,66.596 110.991,65.796 110.774 C 64.103 110.316,61.830 108.899,59.583 106.901 C 53.968 101.907,55.680 94.470,63.372 90.440 C 69.717 87.116,81.758 88.285,86.121 92.648 C 87.568 94.095,88.263 94.350,88.746 93.612 C 89.193 92.931,89.148 79.274,88.696 78.397 C 86.941 74.991,75.832 72.351,66.000 73.002 M176.056 73.603 C 174.649 74.087,174.690 73.744,174.617 85.417 C 174.552 95.730,174.504 96.500,173.930 96.500 C 173.487 96.500,172.500 95.807,172.038 95.170 C 171.588 94.550,170.589 93.352,168.167 90.523 C 167.479 89.721,166.675 88.731,166.379 88.324 C 166.084 87.917,165.371 87.042,164.796 86.380 C 163.792 85.226,163.125 84.429,157.621 77.812 C 153.691 73.086,154.798 73.470,145.277 73.534 L 137.971 73.583 137.590 74.026 C 137.023 74.686,137.032 74.232,137.064 100.833 C 137.096 128.181,137.019 126.393,138.190 126.830 C 139.181 127.199,154.196 127.265,154.749 126.902 C 155.555 126.374,155.547 126.476,155.615 116.005 C 155.690 104.279,155.696 104.222,156.791 104.570 C 157.136 104.679,159.855 107.246,160.099 107.692 C 160.251 107.969,162.304 110.313,165.083 113.383 C 165.908 114.294,166.823 115.362,167.116 115.756 C 167.410 116.150,167.977 116.797,168.378 117.194 C 168.779 117.592,169.535 118.488,170.059 119.186 C 170.583 119.884,171.930 121.384,173.053 122.519 C 174.175 123.655,175.426 124.989,175.834 125.484 C 177.178 127.119,177.011 127.090,184.817 127.039 C 192.261 126.989,192.215 126.995,192.734 125.934 C 193.040 125.306,193.052 124.465,193.094 100.229 L 193.137 75.172 192.775 74.628 C 192.044 73.530,192.043 73.530,183.933 73.467 C 178.705 73.427,176.456 73.466,176.056 73.603 M195.941 73.677 C 195.052 74.376,195.031 74.556,194.972 81.778 L 194.917 88.472 195.312 88.893 C 196.187 89.826,196.246 89.833,203.330 89.833 L 209.859 89.833 210.325 90.299 C 211.147 91.122,211.154 91.275,211.163 109.143 C 211.172 126.272,211.174 126.313,211.882 126.972 L 212.300 127.360 221.506 127.340 C 227.240 127.328,230.828 127.259,231.021 127.156 C 231.929 126.669,231.895 127.391,231.906 108.667 C 231.916 92.525,231.936 91.382,232.210 90.880 C 232.730 89.928,232.787 89.919,238.417 89.890 C 246.329 89.850,247.532 89.708,247.750 88.789 C 247.962 87.897,247.947 75.085,247.733 74.545 C 247.228 73.269,249.505 73.371,221.406 73.367 C 197.110 73.363,196.328 73.373,195.941 73.677 M251.995 73.523 C 251.333 73.659,250.704 74.251,250.528 74.904 C 250.253 75.924,250.475 125.968,250.756 126.512 C 251.112 127.200,251.007 127.193,259.340 127.109 C 267.399 127.028,267.394 127.028,267.733 126.355 C 268.178 125.470,268.212 124.765,268.184 116.870 C 268.149 106.603,268.004 107.167,270.672 107.167 C 273.630 107.167,274.868 108.585,277.362 114.833 C 277.636 115.521,278.308 116.981,278.853 118.078 C 279.399 119.176,279.963 120.488,280.106 120.995 C 280.250 121.502,280.535 122.217,280.740 122.583 C 280.945 122.950,281.357 123.867,281.657 124.621 C 282.185 125.952,283.145 127.148,283.709 127.178 C 289.785 127.504,302.148 127.220,302.676 126.742 C 303.288 126.188,302.703 124.040,301.066 120.824 C 300.480 119.673,300.000 118.657,300.000 118.565 C 300.000 118.474,299.779 118.050,299.508 117.624 C 299.238 117.197,298.931 116.526,298.825 116.133 C 298.521 114.996,294.681 107.399,294.017 106.621 C 293.687 106.233,293.237 105.654,293.017 105.333 C 292.797 105.012,292.253 104.425,291.808 104.029 C 290.591 102.942,290.646 102.728,292.688 100.642 C 294.203 99.094,294.782 98.397,296.477 96.083 C 297.788 94.293,298.352 89.093,297.607 85.667 C 296.531 80.720,291.100 75.141,286.711 74.474 C 286.091 74.380,285.058 74.148,284.417 73.960 C 283.299 73.631,282.772 73.614,271.833 73.558 C 265.554 73.525,258.638 73.480,256.464 73.458 C 254.291 73.435,252.279 73.464,251.995 73.523 M342.152 73.401 C 342.098 73.456,334.175 73.503,324.545 73.504 C 304.850 73.507,306.600 73.393,305.872 74.723 C 305.585 75.247,305.389 124.589,305.669 125.833 C 305.733 126.121,306.009 126.373,306.557 126.647 L 307.353 127.045 326.121 127.039 L 344.890 127.033 345.184 126.644 C 345.687 125.977,345.972 115.154,345.518 113.967 C 345.098 112.869,345.615 112.925,335.191 112.833 C 326.598 112.757,325.702 112.724,325.215 112.457 C 324.501 112.067,324.238 111.207,324.437 109.909 C 324.719 108.063,325.049 108.003,334.833 108.000 C 343.160 107.998,343.382 107.974,343.795 107.030 C 344.157 106.202,344.209 95.798,343.857 94.786 C 343.425 93.546,343.774 93.593,334.257 93.500 C 323.716 93.397,324.238 93.554,324.394 90.527 C 324.532 87.870,324.050 87.990,334.625 87.997 C 343.975 88.003,344.421 87.959,344.933 86.968 C 345.401 86.064,345.377 75.199,344.906 74.566 C 344.245 73.677,342.575 72.970,342.152 73.401 M94.857 73.655 C 93.789 73.784,93.554 74.042,93.428 75.227 C 93.223 77.146,93.426 125.230,93.641 125.877 C 94.076 127.183,92.474 127.090,113.410 127.031 C 133.510 126.974,132.695 127.013,133.165 126.082 C 133.507 125.405,133.531 114.310,133.193 113.700 C 132.797 112.989,132.463 112.961,123.000 112.845 C 113.185 112.725,113.069 112.714,112.438 111.814 C 111.931 111.089,112.193 108.618,112.797 108.430 C 113.817 108.112,116.289 108.006,122.750 108.003 C 130.874 107.999,130.964 107.988,131.500 106.917 C 131.822 106.273,131.970 95.803,131.671 94.791 C 131.305 93.551,131.621 93.594,122.091 93.497 C 111.691 93.391,112.167 93.517,112.167 90.874 C 112.167 87.828,111.647 87.972,122.750 87.941 C 134.130 87.909,132.895 88.778,132.970 80.750 C 133.029 74.430,133.006 74.278,131.912 73.759 C 131.342 73.489,97.030 73.392,94.857 73.655 M352.500 73.976 C 352.179 74.157,351.467 74.528,350.917 74.799 C 347.884 76.294,347.066 78.652,348.003 83.198 C 348.359 84.926,348.355 84.919,349.153 85.326 C 349.499 85.503,349.896 85.821,350.035 86.034 C 350.174 86.246,350.505 86.528,350.769 86.660 C 351.034 86.792,351.475 87.059,351.750 87.254 C 353.796 88.702,358.743 87.139,360.202 84.583 C 360.359 84.308,360.659 83.871,360.869 83.613 C 361.878 82.366,361.296 77.326,360.032 76.362 C 359.711 76.117,359.172 75.628,358.836 75.274 C 358.185 74.592,356.856 74.225,356.591 74.655 C 356.389 74.982,356.984 75.671,357.751 76.001 C 358.230 76.206,358.576 76.498,358.758 76.849 C 358.910 77.144,359.248 77.679,359.508 78.038 C 360.134 78.902,360.425 80.292,360.182 81.258 C 360.082 81.656,359.999 82.304,359.997 82.699 C 359.995 83.518,359.928 83.644,359.284 84.054 C 359.028 84.217,358.734 84.536,358.631 84.763 C 358.407 85.252,357.795 85.445,357.250 85.197 C 356.809 84.996,356.624 85.137,356.417 85.833 C 356.027 87.151,353.223 87.249,352.317 85.977 C 352.105 85.679,351.770 85.472,351.383 85.399 C 349.271 85.003,348.108 80.279,349.600 78.152 C 349.866 77.774,350.261 77.166,350.478 76.803 C 350.695 76.439,351.070 76.057,351.311 75.953 C 351.552 75.849,352.020 75.527,352.350 75.238 C 352.949 74.714,353.046 74.687,355.309 74.407 C 356.117 74.308,356.177 74.272,355.943 74.038 C 355.511 73.606,353.228 73.565,352.500 73.976 M353.536 77.085 C 351.967 77.375,351.853 77.644,351.841 81.088 C 351.830 83.900,352.520 84.812,353.286 83.000 C 353.871 81.614,354.981 81.906,355.944 83.700 C 356.866 85.417,357.783 84.317,357.083 82.333 C 356.762 81.421,356.767 80.779,357.102 80.131 C 358.110 78.182,356.239 76.584,353.536 77.085 M355.167 78.500 C 355.656 78.989,355.584 79.454,354.958 79.835 C 353.760 80.566,352.836 79.678,353.679 78.606 C 354.094 78.078,354.702 78.035,355.167 78.500 M276.517 87.003 C 279.346 87.540,280.263 91.244,278.118 93.465 C 277.288 94.324,276.336 94.516,272.713 94.552 C 268.179 94.597,268.236 94.649,268.270 90.500 C 268.292 87.944,268.436 87.417,269.207 87.082 C 269.867 86.796,275.123 86.739,276.517 87.003 "
      stroke="none" fill="#718096" fill-rule="evenodd"></path>
    <path id="path1"
      d="M0.000 66.667 L 0.000 133.333 200.000 133.333 L 400.000 133.333 400.000 66.667 L 400.000 0.000 200.000 0.000 L 0.000 0.000 0.000 66.667 M206.083 8.561 C 209.770 9.154,212.467 9.718,213.062 10.021 C 213.417 10.201,214.279 10.467,214.979 10.610 C 215.678 10.754,216.714 11.117,217.280 11.417 C 217.847 11.716,218.683 12.051,219.137 12.160 C 220.139 12.400,220.594 12.795,220.824 13.624 C 221.024 14.342,221.069 28.473,220.872 28.767 C 220.248 29.702,218.419 29.272,213.320 26.991 C 212.717 26.721,212.094 26.500,211.935 26.500 C 211.777 26.500,210.742 26.271,209.636 25.992 C 204.603 24.722,200.664 24.302,197.208 24.670 C 196.360 24.760,194.998 24.903,194.182 24.988 C 187.768 25.658,184.576 28.571,183.485 34.750 C 182.262 41.674,184.219 46.525,189.250 49.038 C 192.037 50.430,198.128 50.753,201.395 49.682 C 203.296 49.058,203.928 48.572,203.754 47.867 C 203.581 47.164,203.467 47.121,201.396 46.971 C 198.368 46.752,198.438 46.902,198.374 40.417 C 198.324 35.338,198.414 34.447,199.037 33.883 C 199.344 33.605,199.915 33.581,206.976 33.545 C 211.160 33.523,216.083 33.489,217.917 33.468 C 221.536 33.427,222.435 33.570,222.987 34.271 C 223.412 34.812,223.511 38.317,223.367 47.750 C 223.300 52.133,223.315 55.883,223.401 56.504 C 223.727 58.861,221.062 61.396,216.833 62.752 C 216.329 62.913,215.649 63.180,215.322 63.344 C 214.707 63.653,213.761 64.010,211.333 64.851 C 209.963 65.325,207.583 65.826,203.417 66.518 C 199.776 67.122,192.227 66.965,189.598 66.230 C 189.132 66.100,187.914 65.812,186.892 65.591 C 185.870 65.370,184.653 64.996,184.187 64.760 C 183.722 64.524,182.945 64.247,182.462 64.145 C 179.284 63.470,171.179 57.640,169.492 54.816 C 169.267 54.440,168.892 53.896,168.658 53.608 C 167.553 52.243,166.081 49.180,165.244 46.500 C 165.029 45.813,164.696 44.813,164.504 44.278 C 163.537 41.591,163.625 33.927,164.664 30.215 C 165.533 27.111,167.650 22.227,168.507 21.350 C 168.739 21.112,169.249 20.458,169.640 19.898 C 170.342 18.889,172.706 16.603,173.833 15.841 C 174.154 15.624,174.642 15.242,174.917 14.990 C 175.549 14.412,178.893 12.316,179.667 12.012 C 179.987 11.886,180.625 11.575,181.083 11.322 C 181.542 11.068,182.367 10.744,182.917 10.602 C 183.467 10.460,184.470 10.150,185.147 9.913 C 185.823 9.676,187.436 9.303,188.730 9.083 C 190.024 8.863,191.496 8.567,192.000 8.425 C 193.217 8.083,203.743 8.184,206.083 8.561 M82.015 9.091 C 82.986 9.593,83.005 9.771,82.939 17.463 C 82.897 22.321,82.820 24.547,82.685 24.799 C 82.270 25.574,82.222 25.579,73.250 25.667 C 66.223 25.736,64.687 25.792,64.388 25.991 C 63.081 26.858,62.987 29.645,64.233 30.574 C 64.680 30.908,64.896 30.917,72.721 30.936 C 82.705 30.961,82.533 30.925,82.844 33.024 C 83.117 34.879,82.858 46.299,82.526 47.000 C 82.144 47.807,82.322 47.791,73.250 47.815 C 64.070 47.838,64.137 47.830,63.610 48.970 C 63.259 49.729,63.249 49.950,63.215 57.333 L 63.180 64.917 62.513 65.542 L 61.846 66.167 58.215 66.189 C 45.102 66.272,43.347 66.170,42.990 65.309 C 42.666 64.527,42.674 10.193,42.998 9.587 C 43.454 8.735,43.203 8.745,63.544 8.788 C 79.567 8.823,81.559 8.855,82.015 9.091 M108.665 9.136 C 109.716 9.643,109.662 8.581,109.664 28.468 C 109.667 47.725,109.670 47.798,110.447 48.528 L 110.860 48.917 121.314 48.942 C 133.116 48.971,132.840 48.944,133.149 50.112 C 133.247 50.484,133.331 53.765,133.351 57.986 L 133.384 65.223 132.868 65.684 L 132.353 66.145 120.135 66.156 C 113.415 66.163,107.392 66.209,106.750 66.259 C 106.108 66.309,102.111 66.285,97.867 66.205 L 90.150 66.059 89.700 65.609 L 89.250 65.159 89.207 37.741 C 89.160 7.978,89.112 9.642,90.034 9.149 C 90.743 8.769,91.249 8.751,99.621 8.802 C 107.146 8.849,108.148 8.886,108.665 9.136 M157.800 8.916 C 158.724 9.003,159.124 9.123,159.466 9.417 L 159.917 9.805 159.926 37.233 C 159.936 66.520,159.964 65.562,159.083 65.987 C 158.213 66.408,141.181 66.255,139.733 65.814 C 138.811 65.534,138.851 66.820,138.842 37.436 L 138.834 10.018 139.209 9.587 C 139.859 8.839,140.996 8.747,149.197 8.776 C 153.259 8.791,157.131 8.854,157.800 8.916 M246.203 9.020 C 247.057 9.477,247.077 9.667,247.173 18.333 C 247.286 28.604,246.990 27.829,250.885 28.041 C 253.764 28.198,263.005 28.054,263.554 27.844 C 264.635 27.430,264.662 27.175,264.720 16.833 C 264.749 11.791,264.811 9.989,264.968 9.710 C 265.451 8.846,265.479 8.844,274.751 8.818 C 284.417 8.791,284.015 8.741,284.439 10.016 C 284.789 11.070,284.560 64.267,284.202 65.000 C 283.621 66.190,283.466 66.212,276.108 66.195 C 267.080 66.175,266.069 66.102,265.396 65.429 L 264.873 64.906 264.748 61.421 C 264.680 59.505,264.674 56.170,264.736 54.010 C 264.870 49.317,264.729 47.820,264.092 47.183 L 263.658 46.750 256.104 46.750 C 247.942 46.750,247.935 46.751,247.479 47.643 C 247.302 47.989,247.235 49.902,247.168 56.528 L 247.083 64.974 246.678 65.405 C 245.984 66.143,245.442 66.188,236.848 66.219 C 227.824 66.252,228.185 66.295,227.545 65.123 C 227.234 64.554,227.009 22.526,227.269 13.526 L 227.371 9.968 227.865 9.406 L 228.359 8.844 230.304 8.797 C 234.223 8.702,245.917 8.866,246.203 9.020 M344.062 9.318 L 344.583 9.840 344.582 17.045 C 344.580 24.684,344.542 25.095,343.787 25.793 C 343.429 26.124,343.183 26.137,336.140 26.220 C 331.277 26.278,328.748 26.367,328.516 26.491 C 327.632 26.964,327.667 26.168,327.667 46.219 C 327.667 66.878,327.753 65.252,326.627 65.854 C 325.802 66.296,307.399 66.316,306.648 65.876 C 305.509 65.210,305.586 66.613,305.557 46.146 C 305.528 26.074,305.571 26.997,304.623 26.469 C 304.349 26.316,302.357 26.237,297.083 26.172 C 289.199 26.074,289.048 26.053,288.550 24.960 C 288.309 24.431,288.279 10.246,288.518 9.800 C 289.012 8.876,287.639 8.925,316.000 8.824 C 346.577 8.715,343.403 8.659,344.062 9.318 M75.750 73.270 C 80.149 73.831,86.367 75.871,87.806 77.226 C 89.058 78.405,89.031 78.207,89.015 86.135 C 89.003 92.189,88.963 93.281,88.746 93.612 C 88.263 94.350,87.568 94.095,86.121 92.648 C 81.758 88.285,69.717 87.116,63.372 90.440 C 55.680 94.470,53.968 101.907,59.583 106.901 C 61.830 108.899,64.103 110.316,65.796 110.774 C 66.596 110.991,67.806 111.317,68.485 111.501 C 70.010 111.912,73.932 111.971,75.255 111.603 C 75.711 111.477,76.979 111.132,78.073 110.837 C 80.845 110.091,83.688 108.720,85.500 107.255 C 87.900 105.314,88.608 104.981,89.103 105.557 L 89.500 106.019 89.499 113.801 C 89.499 123.182,89.795 122.154,86.645 123.712 C 77.873 128.053,63.687 129.124,56.320 126.003 C 55.717 125.748,54.968 125.483,54.656 125.414 C 53.799 125.226,51.360 124.024,49.417 122.831 C 43.952 119.478,40.221 114.618,38.283 108.329 C 37.185 104.766,36.884 98.230,37.669 95.000 C 38.325 92.299,39.571 89.052,40.580 87.417 C 40.862 86.958,41.201 86.371,41.332 86.112 C 41.463 85.853,41.705 85.569,41.869 85.481 C 42.034 85.393,42.389 84.883,42.659 84.349 C 44.288 81.122,51.927 75.960,56.917 74.715 C 57.467 74.578,58.604 74.245,59.443 73.974 C 62.736 72.914,70.367 72.584,75.750 73.270 M191.831 73.804 C 192.151 73.957,192.575 74.328,192.775 74.628 L 193.137 75.172 193.094 100.229 C 193.052 124.465,193.040 125.306,192.734 125.934 C 192.215 126.995,192.261 126.989,184.817 127.039 C 177.011 127.090,177.178 127.119,175.834 125.484 C 175.426 124.989,174.175 123.655,173.053 122.519 C 171.930 121.384,170.583 119.884,170.059 119.186 C 169.535 118.488,168.779 117.592,168.378 117.194 C 167.977 116.797,167.410 116.150,167.116 115.756 C 166.823 115.362,165.908 114.294,165.083 113.383 C 162.304 110.313,160.251 107.969,160.099 107.692 C 159.855 107.246,157.136 104.679,156.791 104.570 C 155.696 104.222,155.690 104.279,155.615 116.005 C 155.547 126.476,155.555 126.374,154.749 126.902 C 154.196 127.265,139.181 127.199,138.190 126.830 C 137.019 126.393,137.096 128.181,137.064 100.833 C 137.032 74.232,137.023 74.686,137.590 74.026 L 137.971 73.583 145.277 73.534 C 154.798 73.470,153.691 73.086,157.621 77.812 C 163.125 84.429,163.792 85.226,164.796 86.380 C 165.371 87.042,166.084 87.917,166.379 88.324 C 166.675 88.731,167.479 89.721,168.167 90.523 C 170.589 93.352,171.588 94.550,172.038 95.170 C 172.500 95.807,173.487 96.500,173.930 96.500 C 174.504 96.500,174.552 95.730,174.617 85.417 C 174.690 73.744,174.649 74.087,176.056 73.603 C 177.030 73.268,191.091 73.447,191.831 73.804 M246.996 73.689 C 247.932 74.258,247.951 74.435,247.892 81.750 C 247.863 85.417,247.799 88.584,247.750 88.789 C 247.532 89.708,246.329 89.850,238.417 89.890 C 232.787 89.919,232.730 89.928,232.210 90.880 C 231.936 91.382,231.916 92.525,231.906 108.667 C 231.895 127.391,231.929 126.669,231.021 127.156 C 230.828 127.259,227.240 127.328,221.506 127.340 L 212.300 127.360 211.882 126.972 C 211.174 126.313,211.172 126.272,211.163 109.143 C 211.154 91.275,211.147 91.122,210.325 90.299 L 209.859 89.833 203.330 89.833 C 196.246 89.833,196.187 89.826,195.312 88.893 L 194.917 88.472 194.972 81.778 C 195.031 74.556,195.052 74.376,195.941 73.677 C 196.571 73.182,246.182 73.194,246.996 73.689 M271.833 73.558 C 282.772 73.614,283.299 73.631,284.417 73.960 C 285.058 74.148,286.091 74.380,286.711 74.474 C 291.100 75.141,296.531 80.720,297.607 85.667 C 298.352 89.093,297.788 94.293,296.477 96.083 C 294.782 98.397,294.203 99.094,292.688 100.642 C 290.646 102.728,290.591 102.942,291.808 104.029 C 292.253 104.425,292.797 105.012,293.017 105.333 C 293.237 105.654,293.687 106.233,294.017 106.621 C 294.681 107.399,298.521 114.996,298.825 116.133 C 298.931 116.526,299.238 117.197,299.508 117.624 C 299.779 118.050,300.000 118.474,300.000 118.565 C 300.000 118.657,300.480 119.673,301.066 120.824 C 302.703 124.040,303.288 126.188,302.676 126.742 C 302.148 127.220,289.785 127.504,283.709 127.178 C 283.145 127.148,282.185 125.952,281.657 124.621 C 281.357 123.867,280.945 122.950,280.740 122.583 C 280.535 122.217,280.250 121.502,280.106 120.995 C 279.963 120.488,279.399 119.176,278.853 118.078 C 278.308 116.981,277.636 115.521,277.362 114.833 C 274.868 108.585,273.630 107.167,270.672 107.167 C 268.004 107.167,268.149 106.603,268.184 116.870 C 268.212 124.765,268.178 125.470,267.733 126.355 C 267.394 127.028,267.399 127.028,259.340 127.109 C 251.007 127.193,251.112 127.200,250.756 126.512 C 250.475 125.968,250.253 75.924,250.528 74.904 C 250.899 73.528,251.402 73.405,256.464 73.458 C 258.638 73.480,265.554 73.525,271.833 73.558 M344.134 73.784 C 345.287 74.645,345.253 74.424,345.226 80.738 C 345.192 88.817,346.378 88.005,334.625 87.997 C 324.050 87.990,324.532 87.870,324.394 90.527 C 324.238 93.554,323.716 93.397,334.257 93.500 C 343.774 93.593,343.425 93.546,343.857 94.786 C 344.209 95.798,344.157 106.202,343.795 107.030 C 343.382 107.974,343.160 107.998,334.833 108.000 C 325.049 108.003,324.719 108.063,324.437 109.909 C 324.238 111.207,324.501 112.067,325.215 112.457 C 325.702 112.724,326.598 112.757,335.191 112.833 C 345.615 112.925,345.098 112.869,345.518 113.967 C 345.972 115.154,345.687 125.977,345.184 126.644 L 344.890 127.033 326.121 127.039 L 307.353 127.045 306.557 126.647 C 306.009 126.373,305.733 126.121,305.669 125.833 C 305.389 124.589,305.585 75.247,305.872 74.723 C 306.600 73.393,304.850 73.507,324.545 73.504 C 334.175 73.503,342.098 73.456,342.152 73.401 C 342.344 73.205,343.712 73.469,344.134 73.784 M131.912 73.759 C 133.006 74.278,133.029 74.430,132.970 80.750 C 132.895 88.778,134.130 87.909,122.750 87.941 C 111.647 87.972,112.167 87.828,112.167 90.874 C 112.167 93.517,111.691 93.391,122.091 93.497 C 131.621 93.594,131.305 93.551,131.671 94.791 C 131.970 95.803,131.822 106.273,131.500 106.917 C 130.964 107.988,130.874 107.999,122.750 108.003 C 116.289 108.006,113.817 108.112,112.797 108.430 C 112.193 108.618,111.931 111.089,112.438 111.814 C 113.069 112.714,113.185 112.725,123.000 112.845 C 132.463 112.961,132.797 112.989,133.193 113.700 C 133.531 114.310,133.507 125.405,133.165 126.082 C 132.695 127.013,133.510 126.974,113.410 127.031 C 92.474 127.090,94.076 127.183,93.641 125.877 C 93.426 125.230,93.223 77.146,93.428 75.227 C 93.554 74.042,93.789 73.784,94.857 73.655 C 97.030 73.392,131.342 73.489,131.912 73.759 M355.943 74.038 C 356.177 74.272,356.117 74.308,355.309 74.407 C 353.046 74.687,352.949 74.714,352.350 75.238 C 352.020 75.527,351.552 75.849,351.311 75.953 C 351.070 76.057,350.695 76.439,350.478 76.803 C 350.261 77.166,349.866 77.774,349.600 78.152 C 348.108 80.279,349.271 85.003,351.383 85.399 C 351.770 85.472,352.105 85.679,352.317 85.977 C 353.223 87.249,356.027 87.151,356.417 85.833 C 356.624 85.137,356.809 84.996,357.250 85.197 C 357.795 85.445,358.407 85.252,358.631 84.763 C 358.734 84.536,359.028 84.217,359.284 84.054 C 359.928 83.644,359.995 83.518,359.997 82.699 C 359.999 82.304,360.082 81.656,360.182 81.258 C 360.425 80.292,360.134 78.902,359.508 78.038 C 359.248 77.679,358.910 77.144,358.758 76.849 C 358.576 76.498,358.230 76.206,357.751 76.001 C 356.984 75.671,356.389 74.982,356.591 74.655 C 356.856 74.225,358.185 74.592,358.836 75.274 C 359.172 75.628,359.711 76.117,360.032 76.362 C 361.296 77.326,361.878 82.366,360.869 83.613 C 360.659 83.871,360.359 84.308,360.202 84.583 C 359.203 86.334,357.308 87.383,354.650 87.659 C 352.785 87.852,352.548 87.819,351.750 87.254 C 351.475 87.059,351.034 86.792,350.769 86.660 C 350.505 86.528,350.174 86.246,350.035 86.034 C 349.896 85.821,349.499 85.503,349.153 85.326 C 348.355 84.919,348.359 84.926,348.003 83.198 C 347.066 78.652,347.884 76.294,350.917 74.799 C 351.467 74.528,352.179 74.157,352.500 73.976 C 353.228 73.565,355.511 73.606,355.943 74.038 M356.973 77.735 C 357.344 78.106,357.420 79.516,357.102 80.131 C 356.767 80.779,356.762 81.421,357.083 82.333 C 357.783 84.317,356.866 85.417,355.944 83.700 C 354.981 81.906,353.871 81.614,353.286 83.000 C 352.895 83.925,352.519 84.071,352.093 83.463 C 351.624 82.794,351.797 77.970,352.307 77.459 C 352.987 76.780,356.209 76.971,356.973 77.735 M353.679 78.606 C 352.836 79.678,353.760 80.566,354.958 79.835 C 355.584 79.454,355.656 78.989,355.167 78.500 C 354.702 78.035,354.094 78.078,353.679 78.606 M269.207 87.082 C 267.913 87.645,267.782 93.599,269.049 94.291 C 269.767 94.684,275.344 94.666,276.716 94.267 C 280.251 93.239,280.099 87.683,276.517 87.003 C 275.123 86.739,269.867 86.796,269.207 87.082 "
      stroke="none" fill="transparent" fill-rule="evenodd"></path>
  </g>
</svg>