<svg id="svg" xmlns="http://www.w3.org/2000/svg" xmlns:xlink="http://www.w3.org/1999/xlink" width="400" height="144.8"
  viewBox="0, 0, 400,144.8" version="1.1">
  <g id="svgg">
    <path id="path0"
      d="M190.436 1.641 C 175.100 4.790,164.800 19.388,164.800 37.977 C 164.800 81.206,214.696 89.750,224.497 48.200 C 226.717 38.789,224.327 20.859,220.422 17.618 C 218.297 15.855,212.050 29.196,209.567 40.800 C 208.673 44.981,208.091 46.586,208.056 44.966 C 207.956 40.269,210.441 30.154,213.305 23.600 C 214.843 20.080,216.298 16.750,216.537 16.200 C 217.340 14.352,209.605 15.027,204.903 17.216 C 196.989 20.900,184.764 32.044,175.196 44.295 C 170.028 50.912,169.467 50.382,169.389 38.800 C 169.212 12.815,189.952 -4.587,207.932 6.459 L 210.664 8.137 206.194 9.954 C 203.736 10.953,199.317 13.488,196.376 15.587 C 192.599 18.283,190.113 19.472,187.915 19.636 C 183.844 19.940,179.547 22.653,178.534 25.560 C 178.090 26.834,176.978 28.277,176.063 28.766 C 175.148 29.256,174.400 30.419,174.400 31.352 C 174.400 32.944,174.489 32.967,175.863 31.724 C 177.629 30.125,178.400 30.044,178.400 31.456 C 178.400 32.036,177.500 33.294,176.400 34.250 C 175.078 35.400,174.400 36.823,174.400 38.447 C 174.400 39.799,174.027 41.602,173.572 42.453 C 172.123 45.160,173.241 44.125,176.005 40.200 C 192.954 16.134,215.729 2.948,222.832 13.088 C 223.474 14.006,224.000 14.288,224.000 13.716 C 224.000 11.451,219.416 8.000,216.408 8.000 C 214.571 8.000,212.552 7.290,210.947 6.079 C 205.495 1.966,197.393 0.212,190.436 1.641 M187.301 23.479 C 185.605 25.522,178.400 29.579,178.400 28.491 C 178.400 27.234,180.350 25.449,183.600 23.732 C 186.689 22.100,188.551 21.973,187.301 23.479 M222.876 29.800 C 225.240 42.834,221.245 57.891,213.432 65.398 L 210.729 67.995 207.564 66.357 C 204.631 64.839,203.524 64.758,192.400 65.255 C 181.403 65.745,180.247 65.665,178.567 64.295 C 176.337 62.477,206.861 61.917,210.000 63.718 C 211.557 64.612,211.603 64.395,211.710 55.718 C 211.839 45.309,214.137 36.766,218.550 30.291 C 221.785 25.545,222.098 25.509,222.876 29.800 M204.466 69.722 C 208.318 73.578,193.628 74.623,186.657 70.990 C 184.378 69.802,182.341 68.554,182.131 68.215 C 181.292 66.867,203.082 68.337,204.466 69.722 M168.354 83.833 C 166.499 85.477,164.804 88.935,161.329 98.162 C 154.450 116.432,154.667 116.000,152.389 116.000 C 151.154 116.000,150.400 116.455,150.400 117.200 C 150.400 118.167,151.644 118.400,156.800 118.400 C 161.956 118.400,163.200 118.167,163.200 117.200 C 163.200 116.461,162.450 116.000,161.247 116.000 C 158.469 116.000,158.371 115.386,160.291 110.000 L 162.001 105.200 167.734 104.966 L 173.467 104.733 174.733 109.089 C 176.312 114.520,176.326 116.000,174.800 116.000 C 174.140 116.000,173.600 116.540,173.600 117.200 C 173.600 118.205,175.289 118.400,184.000 118.400 C 192.711 118.400,194.400 118.205,194.400 117.200 C 194.400 116.533,193.689 116.000,192.800 116.000 C 191.333 116.000,191.200 115.467,191.200 109.600 C 191.200 101.412,195.145 97.065,199.040 100.960 C 200.562 102.482,200.347 116.000,198.800 116.000 C 198.140 116.000,197.600 116.540,197.600 117.200 C 197.600 118.144,198.711 118.400,202.800 118.400 C 206.889 118.400,208.000 118.144,208.000 117.200 C 208.000 116.533,207.289 116.000,206.400 116.000 C 204.089 116.000,203.971 103.398,206.263 101.324 C 207.974 99.775,211.267 99.587,212.640 100.960 C 214.162 102.482,213.947 116.000,212.400 116.000 C 211.740 116.000,211.200 116.540,211.200 117.200 C 211.200 118.144,212.311 118.400,216.400 118.400 C 221.471 118.400,223.535 117.156,220.000 116.232 C 218.560 115.855,218.400 115.141,218.400 109.067 C 218.400 97.718,213.692 93.595,206.038 98.243 C 203.767 99.622,203.622 99.622,202.238 98.238 C 200.444 96.444,195.414 96.339,192.978 98.045 C 191.369 99.173,191.200 99.173,191.200 98.045 C 191.200 96.457,190.331 96.477,186.827 98.148 C 183.855 99.565,183.181 101.115,185.200 101.889 C 186.945 102.559,186.963 116.000,185.218 116.000 C 183.275 116.000,181.998 113.140,176.731 97.000 C 173.968 88.530,171.503 81.615,171.253 81.633 C 171.004 81.650,169.699 82.640,168.354 83.833 M57.000 84.579 C 54.013 84.949,53.308 87.528,56.000 88.232 C 57.521 88.630,57.600 89.323,57.600 102.325 L 57.600 116.000 55.600 116.000 C 54.331 116.000,53.600 116.451,53.600 117.234 C 53.600 118.300,55.355 118.454,66.459 118.360 C 73.531 118.300,79.531 118.464,79.792 118.725 C 80.621 119.554,83.958 119.239,86.765 118.066 C 89.108 117.087,89.539 117.087,89.915 118.066 C 90.353 119.210,94.478 119.656,95.467 118.667 C 95.760 118.373,98.340 118.218,101.200 118.322 C 105.471 118.477,106.400 118.286,106.400 117.255 C 106.400 116.565,105.860 116.000,105.200 116.000 C 102.998 116.000,103.514 102.831,105.778 101.245 C 110.717 97.786,112.800 100.074,112.800 108.960 C 112.800 115.467,112.679 116.000,111.200 116.000 C 110.311 116.000,109.600 116.533,109.600 117.200 C 109.600 118.152,110.756 118.400,115.200 118.400 C 119.644 118.400,120.800 118.152,120.800 117.200 C 120.800 116.533,120.089 116.000,119.200 116.000 C 117.712 116.000,117.600 115.467,117.600 108.364 C 117.600 97.976,112.255 93.208,105.953 97.975 C 103.954 99.486,103.200 99.493,103.200 98.000 C 103.200 96.432,101.983 96.483,99.123 98.172 C 96.581 99.675,96.128 101.171,98.000 101.889 C 98.937 102.249,99.200 103.846,99.200 109.175 C 99.200 115.529,98.773 116.898,97.261 115.400 C 96.928 115.070,95.878 114.800,94.928 114.800 C 93.295 114.800,93.178 114.346,92.800 106.568 C 92.354 97.400,92.015 96.833,86.960 96.812 C 81.681 96.791,76.730 100.579,77.935 103.719 C 78.734 105.802,81.966 104.693,82.249 102.238 C 82.781 97.633,88.000 98.525,88.000 103.221 C 88.000 106.171,87.868 106.315,84.000 107.600 C 79.740 109.015,77.600 111.215,77.600 114.178 C 77.600 115.467,77.132 116.000,76.000 116.000 C 74.453 116.000,74.400 115.467,74.400 99.930 L 74.400 83.859 71.000 84.422 C 66.250 85.208,63.909 88.000,68.000 88.000 C 69.539 88.000,69.600 88.533,69.600 102.000 L 69.600 116.000 66.000 116.000 L 62.400 116.000 62.400 100.000 C 62.400 82.265,62.952 83.840,57.000 84.579 M134.810 84.701 C 131.987 85.305,131.174 87.597,133.561 88.222 C 134.942 88.583,135.200 89.291,135.200 92.725 L 135.200 96.800 130.861 96.800 C 127.314 96.800,126.054 97.194,123.953 98.963 C 113.630 107.649,121.967 124.016,133.640 117.979 C 135.755 116.885,136.000 116.885,136.000 117.979 C 136.000 119.444,136.162 119.455,140.107 118.273 C 143.453 117.271,144.165 115.614,141.600 114.800 C 140.074 114.316,140.000 113.590,140.000 99.146 C 140.000 82.412,140.393 83.506,134.810 84.701 M-0.000 85.944 C -0.000 86.574,0.810 87.204,1.800 87.344 C 3.580 87.597,3.602 87.759,3.818 101.800 L 4.037 116.000 2.018 116.000 C 0.758 116.000,0.000 116.450,0.000 117.200 C 0.000 118.178,1.333 118.400,7.200 118.400 C 14.344 118.400,18.027 116.524,12.200 115.853 C 10.020 115.602,9.998 115.540,9.768 109.000 L 9.535 102.400 17.600 102.400 L 25.665 102.400 25.432 109.000 C 25.202 115.540,25.180 115.602,23.000 115.853 C 16.980 116.546,20.912 118.400,28.400 118.400 C 35.888 118.400,39.820 116.546,33.800 115.853 L 31.600 115.600 31.600 101.600 C 31.600 87.691,31.612 87.598,33.400 87.344 C 38.729 86.588,34.935 84.800,28.000 84.800 C 20.856 84.800,17.173 86.676,23.000 87.347 C 25.166 87.596,25.204 87.697,25.434 93.800 L 25.667 100.000 17.634 100.000 L 9.600 100.000 9.600 94.560 C 9.600 88.937,10.393 87.200,12.960 87.200 C 13.752 87.200,14.400 86.660,14.400 86.000 C 14.400 85.022,13.067 84.800,7.200 84.800 C 1.489 84.800,-0.000 85.037,-0.000 85.944 M312.000 85.944 C 312.000 86.574,312.810 87.204,313.800 87.344 C 315.580 87.597,315.602 87.759,315.818 101.800 L 316.037 116.000 313.618 116.000 C 312.002 116.000,311.200 116.398,311.200 117.200 C 311.200 118.218,313.185 118.400,324.263 118.400 L 337.325 118.400 338.263 114.339 C 340.099 106.383,339.060 104.969,335.651 110.785 C 333.036 115.247,331.650 116.000,326.053 116.000 L 321.600 116.000 321.600 102.865 C 321.600 87.803,321.726 87.200,324.886 87.200 C 326.410 87.200,327.200 86.790,327.200 86.000 C 327.200 85.018,325.822 84.800,319.600 84.800 C 313.542 84.800,312.000 85.032,312.000 85.944 M257.257 87.657 C 255.729 89.185,255.702 89.686,257.045 91.523 C 258.713 93.805,261.941 92.916,262.264 90.087 C 262.657 86.641,259.705 85.209,257.257 87.657 M341.257 87.657 C 339.723 89.191,339.700 89.684,341.076 91.565 C 342.799 93.923,346.400 92.641,346.400 89.670 C 346.400 86.461,343.564 85.351,341.257 87.657 M170.559 96.000 L 172.657 102.400 167.843 102.400 C 164.332 102.400,163.127 102.129,163.391 101.400 C 163.591 100.850,164.616 97.970,165.670 95.000 C 168.058 88.268,168.021 88.260,170.559 96.000 M392.524 93.463 C 389.622 96.669,391.666 101.600,395.897 101.600 C 398.868 101.600,400.000 100.240,400.000 96.668 C 400.000 92.239,395.412 90.272,392.524 93.463 M38.570 98.511 C 29.568 104.275,33.485 119.200,44.000 119.200 C 49.956 119.200,55.200 113.982,55.200 108.057 C 55.200 98.969,46.054 93.719,38.570 98.511 M224.173 98.049 C 218.225 102.215,218.604 114.796,224.774 117.986 C 228.627 119.979,232.356 119.541,235.572 116.717 C 239.907 112.911,239.051 110.113,234.618 113.600 C 231.146 116.331,227.357 115.371,225.208 111.216 C 222.617 106.204,223.218 105.600,230.800 105.600 L 237.600 105.600 237.600 103.317 C 237.600 97.856,229.171 94.548,224.173 98.049 M241.000 98.196 C 238.009 99.685,237.732 100.798,240.000 102.214 C 242.524 103.791,242.406 115.770,239.863 116.144 C 234.972 116.864,237.744 118.400,243.933 118.400 C 249.148 118.400,250.400 118.168,250.400 117.200 C 250.400 116.453,249.644 116.000,248.400 116.000 C 246.425 116.000,246.400 115.917,246.400 109.247 C 246.400 101.841,246.654 101.412,251.112 101.283 C 253.637 101.210,254.000 100.949,254.000 99.200 C 254.000 96.389,250.192 95.965,247.517 98.478 L 245.600 100.279 245.600 98.539 C 245.600 96.501,244.562 96.424,241.000 98.196 M258.200 98.186 C 254.919 99.532,254.289 101.175,256.800 101.832 C 259.585 102.560,259.206 116.000,256.400 116.000 C 255.156 116.000,254.400 116.453,254.400 117.200 C 254.400 118.160,255.600 118.400,260.400 118.400 C 265.200 118.400,266.400 118.160,266.400 117.200 C 266.400 116.533,265.689 116.000,264.800 116.000 C 263.289 116.000,263.200 115.467,263.200 106.400 C 263.200 95.870,263.329 96.082,258.200 98.186 M269.752 98.421 C 263.172 102.432,263.172 114.466,269.752 118.118 C 273.450 120.170,281.767 118.579,282.910 115.602 C 283.695 113.555,282.657 113.296,279.562 114.765 C 274.267 117.277,269.552 113.403,269.456 106.462 C 269.370 100.181,273.920 97.004,277.168 101.079 C 279.386 103.860,282.400 103.956,282.400 101.245 C 282.400 96.981,274.871 95.299,269.752 98.421 M287.118 98.626 C 283.549 101.023,282.832 104.800,285.947 104.800 C 287.596 104.800,288.000 104.412,288.000 102.828 C 288.000 100.299,290.551 98.796,292.800 100.000 C 296.039 101.733,294.921 105.433,290.600 107.286 C 285.427 109.503,284.000 110.969,284.000 114.067 C 284.000 118.771,288.099 120.599,292.959 118.064 C 294.817 117.094,295.249 117.095,296.057 118.069 C 297.316 119.586,300.384 119.502,301.979 117.907 C 303.662 116.223,303.113 114.733,300.926 115.050 C 299.263 115.291,299.200 115.026,299.200 107.828 C 299.200 96.728,294.863 93.424,287.118 98.626 M341.800 98.196 C 338.856 99.661,338.430 101.212,340.800 101.832 C 343.585 102.560,343.206 116.000,340.400 116.000 C 339.156 116.000,338.400 116.453,338.400 117.200 C 338.400 118.205,340.089 118.400,348.800 118.400 C 357.511 118.400,359.200 118.205,359.200 117.200 C 359.200 116.533,358.489 116.000,357.600 116.000 C 356.133 116.000,356.000 115.467,356.000 109.600 C 356.000 100.891,360.671 96.518,364.355 101.778 C 366.501 104.842,365.836 116.000,363.507 116.000 C 362.898 116.000,362.400 116.540,362.400 117.200 C 362.400 118.144,363.511 118.400,367.600 118.400 C 371.689 118.400,372.800 118.144,372.800 117.200 C 372.800 116.533,372.089 116.000,371.200 116.000 C 369.712 116.000,369.600 115.467,369.600 108.364 C 369.600 97.844,364.465 93.362,357.778 98.045 C 356.169 99.173,356.000 99.173,356.000 98.045 C 356.000 96.413,354.313 96.468,351.270 98.200 C 348.600 99.720,348.104 101.162,350.000 101.889 C 352.417 102.817,351.669 116.000,349.200 116.000 L 347.200 116.000 347.200 106.400 C 347.200 95.710,347.100 95.558,341.800 98.196 M375.373 98.049 C 369.425 102.215,369.804 114.796,375.974 117.986 C 380.308 120.228,385.271 119.301,388.182 115.706 C 390.915 112.333,388.904 110.391,386.000 113.600 C 383.197 116.697,378.199 115.229,376.332 110.761 C 374.253 105.785,374.457 105.600,382.000 105.600 L 388.800 105.600 388.800 103.164 C 388.800 97.760,380.371 94.548,375.373 98.049 M396.800 98.800 C 396.800 99.460,396.440 100.000,396.000 100.000 C 395.560 100.000,395.200 99.460,395.200 98.800 C 395.200 98.140,395.560 97.600,396.000 97.600 C 396.440 97.600,396.800 98.140,396.800 98.800 M47.953 101.150 C 51.428 104.849,50.855 112.635,46.863 115.948 C 43.764 118.520,38.409 113.649,38.403 108.252 C 38.394 100.709,43.778 96.706,47.953 101.150 M133.422 100.445 C 135.743 102.071,136.067 112.116,133.876 114.537 C 130.303 118.486,124.000 113.803,124.000 107.200 C 124.000 100.790,128.900 97.278,133.422 100.445 M232.088 101.400 C 232.717 103.114,232.558 103.200,228.774 103.200 C 224.440 103.200,224.116 102.881,226.158 100.625 C 227.958 98.636,231.231 99.064,232.088 101.400 M383.237 100.869 C 384.427 103.092,384.023 103.338,379.665 103.047 C 375.992 102.802,375.969 102.783,377.224 101.000 C 378.834 98.712,382.045 98.642,383.237 100.869 M87.157 114.852 C 85.015 117.433,81.605 114.981,83.197 112.006 C 84.819 108.974,87.555 108.591,87.855 111.354 C 87.995 112.647,87.681 114.221,87.157 114.852 M294.400 111.572 C 294.400 113.560,293.930 114.595,292.737 115.233 C 288.821 117.330,287.281 113.311,290.908 110.458 C 293.811 108.175,294.400 108.362,294.400 111.572 M92.457 132.457 C 90.184 134.731,91.894 138.598,95.581 139.524 C 98.945 140.368,98.155 142.574,94.600 142.263 C 92.350 142.066,91.600 142.300,91.600 143.200 C 91.600 144.064,92.664 144.468,95.397 144.644 C 101.847 145.058,102.925 139.552,96.924 136.849 C 93.802 135.443,94.054 134.010,97.428 133.972 C 100.231 133.942,101.213 133.315,100.433 132.053 C 99.622 130.742,93.882 131.033,92.457 132.457 M104.813 137.000 C 103.382 140.190,102.035 143.250,101.820 143.800 C 101.585 144.401,102.080 144.800,103.060 144.800 C 103.990 144.800,104.911 144.111,105.200 143.200 C 105.575 142.018,106.410 141.600,108.400 141.600 C 110.390 141.600,111.225 142.018,111.600 143.200 C 111.885 144.097,112.810 144.800,113.708 144.800 C 115.582 144.800,115.420 144.023,111.930 136.244 C 109.032 129.784,108.000 129.894,104.813 137.000 M114.744 132.600 C 120.170 147.338,121.037 147.874,124.493 138.624 C 125.762 135.227,126.920 132.167,127.067 131.824 C 127.213 131.481,126.654 131.200,125.825 131.200 C 124.739 131.200,123.912 132.323,122.878 135.200 C 122.087 137.400,121.144 139.200,120.784 139.200 C 120.423 139.200,119.531 137.400,118.800 135.200 C 117.788 132.153,117.085 131.200,115.850 131.200 C 114.643 131.200,114.360 131.558,114.744 132.600 M129.164 133.164 C 124.593 137.734,127.773 144.800,134.400 144.800 C 138.982 144.800,141.600 142.327,141.600 138.000 C 141.600 131.670,133.721 128.606,129.164 133.164 M144.000 138.000 C 144.000 144.196,144.138 144.800,145.552 144.800 C 146.767 144.800,147.157 144.150,147.352 141.800 L 147.600 138.800 149.373 141.800 C 150.533 143.762,151.731 144.800,152.838 144.800 L 154.530 144.800 152.740 141.902 C 151.110 139.265,151.068 138.937,152.274 138.262 C 156.217 136.056,153.168 131.200,147.840 131.200 L 144.000 131.200 144.000 138.000 M161.600 132.363 C 161.600 133.149,162.329 133.600,163.600 133.600 C 165.543 133.600,165.600 133.760,165.600 139.200 C 165.600 143.644,165.848 144.800,166.800 144.800 C 167.751 144.800,168.000 143.650,168.000 139.253 C 168.000 133.918,168.077 133.697,170.025 133.453 C 174.191 132.932,172.253 131.594,167.000 131.363 C 162.560 131.169,161.600 131.347,161.600 132.363 M174.400 138.000 C 174.400 143.511,174.627 144.800,175.600 144.800 C 176.438 144.800,176.800 143.956,176.800 142.000 C 176.800 139.333,176.933 139.200,179.600 139.200 C 182.267 139.200,182.400 139.333,182.400 142.000 C 182.400 144.267,182.705 144.800,184.000 144.800 C 185.475 144.800,185.600 144.267,185.600 138.000 C 185.600 131.733,185.475 131.200,184.000 131.200 C 182.705 131.200,182.400 131.733,182.400 134.000 C 182.400 136.667,182.267 136.800,179.600 136.800 C 176.933 136.800,176.800 136.667,176.800 134.000 C 176.800 132.044,176.438 131.200,175.600 131.200 C 174.627 131.200,174.400 132.489,174.400 138.000 M188.800 138.000 L 188.800 144.800 193.600 144.800 C 197.333 144.800,198.400 144.533,198.400 143.600 C 198.400 142.711,197.467 142.400,194.800 142.400 C 191.733 142.400,191.200 142.163,191.200 140.800 C 191.200 139.467,191.733 139.200,194.400 139.200 C 196.711 139.200,197.600 138.867,197.600 138.000 C 197.600 137.133,196.711 136.800,194.400 136.800 C 191.733 136.800,191.200 136.533,191.200 135.200 C 191.200 133.867,191.733 133.600,194.400 133.600 C 196.711 133.600,197.600 133.267,197.600 132.400 C 197.600 131.479,196.578 131.200,193.200 131.200 L 188.800 131.200 188.800 138.000 M211.200 136.836 L 211.200 142.473 208.400 141.947 C 206.860 141.658,205.600 141.750,205.600 142.151 C 205.600 144.971,212.167 145.878,213.572 143.253 C 215.202 140.206,214.625 131.200,212.800 131.200 C 211.351 131.200,211.200 131.733,211.200 136.836 M218.539 133.052 C 214.332 137.530,217.268 144.800,223.284 144.800 C 229.319 144.800,232.210 141.085,230.414 135.641 C 228.826 130.829,222.021 129.346,218.539 133.052 M232.800 136.222 C 232.800 144.091,238.365 148.100,242.676 143.337 C 244.494 141.328,244.598 131.200,242.800 131.200 C 241.884 131.200,241.600 132.205,241.600 135.447 C 241.600 144.372,236.551 145.435,236.163 136.592 C 235.817 128.695,232.800 128.363,232.800 136.222 M247.200 138.000 C 247.200 143.511,247.427 144.800,248.400 144.800 C 249.238 144.800,249.600 143.956,249.600 142.000 C 249.600 140.460,249.878 139.200,250.218 139.200 C 250.558 139.200,251.515 140.460,252.344 142.000 C 253.228 143.641,254.462 144.800,255.326 144.800 C 257.137 144.800,257.153 144.444,255.470 141.596 C 254.231 139.498,254.231 139.255,255.470 138.015 C 258.649 134.836,256.127 131.200,250.743 131.200 L 247.200 131.200 247.200 138.000 M259.200 138.000 C 259.200 146.328,261.337 148.242,261.760 140.293 L 262.000 135.786 265.097 140.293 C 269.792 147.125,271.200 146.596,271.200 138.000 C 271.200 129.649,269.061 127.762,268.640 135.741 L 268.400 140.282 265.392 135.741 C 260.755 128.742,259.200 129.310,259.200 138.000 M275.200 138.000 L 275.200 144.800 279.600 144.800 C 282.978 144.800,284.000 144.521,284.000 143.600 C 284.000 142.733,283.111 142.400,280.800 142.400 C 278.133 142.400,277.600 142.133,277.600 140.800 C 277.600 139.505,278.133 139.200,280.400 139.200 C 282.356 139.200,283.200 138.838,283.200 138.000 C 283.200 137.162,282.356 136.800,280.400 136.800 C 278.133 136.800,277.600 136.495,277.600 135.200 C 277.600 133.867,278.133 133.600,280.800 133.600 C 283.111 133.600,284.000 133.267,284.000 132.400 C 284.000 131.479,282.978 131.200,279.600 131.200 L 275.200 131.200 275.200 138.000 M285.600 131.656 C 285.600 131.907,286.680 133.681,288.000 135.600 C 289.567 137.878,290.400 140.079,290.400 141.944 C 290.400 144.267,290.699 144.800,292.000 144.800 C 293.315 144.800,293.601 144.266,293.603 141.800 C 293.606 139.807,294.411 137.592,296.002 135.200 C 298.986 130.717,297.056 129.365,293.643 133.547 L 291.585 136.068 290.147 133.634 C 288.935 131.582,285.600 130.131,285.600 131.656 M137.602 134.802 C 140.051 137.753,138.130 142.400,134.462 142.400 C 131.729 142.400,130.400 141.057,130.400 138.297 C 130.400 134.283,135.227 131.941,137.602 134.802 M150.659 134.722 C 151.199 136.128,150.554 136.800,148.667 136.800 C 147.733 136.800,147.200 136.218,147.200 135.200 C 147.200 133.336,149.980 132.952,150.659 134.722 M226.537 134.924 C 229.608 137.703,227.588 142.729,223.586 142.269 C 220.106 141.868,218.415 138.518,220.266 135.692 C 221.837 133.295,224.391 132.982,226.537 134.924 M253.200 135.200 C 253.200 135.860,252.390 136.515,251.400 136.656 C 250.015 136.852,249.600 136.517,249.600 135.200 C 249.600 133.883,250.015 133.548,251.400 133.744 C 252.390 133.885,253.200 134.540,253.200 135.200 M109.588 138.200 C 109.594 138.750,109.021 139.200,108.314 139.200 C 107.471 139.200,107.196 138.765,107.514 137.935 C 107.781 137.239,108.006 136.249,108.012 135.735 C 108.029 134.488,109.572 136.903,109.588 138.200 "
      stroke="none" fill="#718096" fill-rule="evenodd"></path>
  </g>
</svg>