<svg id="svg" xmlns="http://www.w3.org/2000/svg" xmlns:xlink="http://www.w3.org/1999/xlink" width="400"
  height="185.85298196948682" viewBox="0, 0, 400,185.85298196948682" version="1.1">
  <g id="svgg">
    <path id="path0"
      d="M320.666 18.615 C 318.682 19.041,314.938 20.042,312.344 20.841 C 307.374 22.371,257.439 41.944,256.729 42.641 C 256.318 43.044,262.059 58.065,262.997 59.039 C 263.292 59.345,265.983 58.570,269.742 57.097 C 273.182 55.749,276.193 54.646,276.434 54.646 C 277.240 54.646,287.023 80.013,286.490 80.723 C 277.650 92.507,280.670 103.650,293.009 104.774 L 296.931 105.132 298.331 108.636 C 299.990 112.788,300.323 112.392,292.649 115.402 C 289.293 116.719,286.475 117.848,286.387 117.911 C 286.150 118.082,292.378 133.904,292.888 134.428 C 293.444 135.000,346.616 113.877,352.701 110.666 C 375.371 98.706,383.715 74.600,373.708 49.973 C 371.484 44.498,372.858 45.522,381.116 55.492 C 386.101 61.510,389.193 64.809,389.620 64.567 C 393.709 62.248,393.425 61.105,385.556 48.166 L 381.185 40.979 383.241 39.226 C 393.067 30.853,395.188 27.517,392.435 24.764 C 389.787 22.115,387.868 22.642,381.592 27.739 C 375.043 33.057,376.620 33.047,369.856 27.814 C 358.538 19.056,355.531 17.670,352.766 19.936 L 351.456 21.009 354.230 23.898 C 357.094 26.882,356.951 26.929,353.040 24.295 C 344.808 18.751,331.178 16.359,320.666 18.615 M337.365 20.609 C 338.535 20.960,339.366 21.451,339.211 21.701 C 339.057 21.951,339.440 22.473,340.062 22.861 C 340.684 23.250,341.193 23.864,341.193 24.227 C 341.193 24.589,341.521 25.216,341.922 25.619 C 343.722 27.428,347.850 36.354,347.850 38.437 C 347.850 38.961,348.162 39.394,348.544 39.398 C 349.078 39.405,349.072 39.512,348.517 39.863 C 347.712 40.374,348.378 41.130,350.208 41.783 C 351.593 42.277,351.409 43.272,349.931 43.281 C 348.970 43.287,349.226 43.567,351.040 44.496 C 353.252 45.628,354.425 47.115,352.534 46.389 C 351.580 46.023,347.295 47.991,347.295 48.795 C 347.295 49.073,347.813 49.465,348.445 49.666 C 349.248 49.921,349.480 50.309,349.215 50.952 C 349.007 51.458,348.796 52.602,348.748 53.494 C 348.604 56.127,347.710 55.665,345.354 51.741 C 339.148 41.410,329.534 35.808,319.834 36.871 C 314.817 37.420,302.094 41.298,299.711 43.004 C 299.520 43.140,303.386 53.352,308.635 66.574 L 312.709 76.838 311.001 77.022 C 308.818 77.258,301.781 75.846,295.376 73.886 C 292.645 73.049,289.404 77.257,291.086 79.455 C 291.799 80.386,292.088 85.913,291.384 85.160 C 291.099 84.854,287.926 77.212,284.332 68.176 L 277.798 51.747 271.908 54.113 C 263.878 57.339,264.155 57.331,262.943 54.369 C 261.463 50.755,262.425 44.482,264.054 47.119 C 264.313 47.538,264.952 47.241,265.962 46.231 C 267.082 45.111,267.593 44.897,267.912 45.413 C 268.181 45.848,268.364 45.467,268.394 44.406 C 268.420 43.467,268.226 42.832,267.963 42.995 C 267.081 43.540,266.940 42.443,267.713 41.047 C 268.133 40.288,268.485 39.885,268.496 40.151 C 268.507 40.417,268.896 40.319,269.362 39.933 C 269.827 39.547,270.368 39.392,270.564 39.588 C 270.760 39.784,270.629 39.945,270.273 39.945 C 269.917 39.945,269.626 40.319,269.626 40.777 C 269.626 41.234,269.890 41.609,270.213 41.609 C 270.536 41.609,270.635 41.877,270.432 42.205 C 270.230 42.532,270.590 42.472,271.232 42.071 C 271.874 41.670,272.428 40.965,272.463 40.505 C 272.499 40.044,272.561 39.343,272.602 38.948 C 272.692 38.084,300.089 26.989,311.512 23.191 C 320.686 20.141,332.022 19.009,337.365 20.609 M331.634 41.024 C 337.062 43.928,347.090 55.785,345.836 57.815 C 345.370 58.568,326.708 73.951,319.198 79.772 L 316.898 81.555 309.627 63.385 C 301.056 41.966,301.419 44.307,306.380 42.455 C 317.913 38.149,325.462 37.722,331.634 41.024 M363.802 42.622 C 364.309 42.944,364.052 43.489,362.847 44.643 C 361.410 46.020,361.151 46.103,360.837 45.282 C 360.223 43.683,362.398 41.731,363.802 42.622 M368.359 53.259 C 368.603 53.259,368.922 53.883,369.068 54.646 C 369.391 56.337,367.895 56.559,366.164 55.078 C 364.790 53.901,364.727 52.232,366.019 51.279 C 366.862 50.658,367.052 50.742,367.453 51.911 C 367.707 52.653,368.115 53.259,368.359 53.259 M8.689 63.960 C 7.990 64.485,7.761 65.848,7.642 70.176 L 7.490 75.720 5.885 76.001 C 2.609 76.576,2.700 79.613,6.005 79.995 L 7.490 80.166 7.767 89.598 C 8.071 99.925,8.527 101.534,11.680 103.397 C 13.834 104.669,18.072 105.186,19.132 104.306 C 21.073 102.696,19.491 100.416,16.434 100.416 C 15.668 100.416,14.341 99.814,13.484 99.078 L 11.928 97.740 11.928 88.953 L 11.928 80.166 14.702 79.889 C 19.094 79.450,18.981 76.370,14.563 76.115 L 11.650 75.948 11.650 70.171 C 11.650 63.940,10.877 62.318,8.689 63.960 M24.728 64.117 C 23.969 64.876,23.856 67.443,23.856 83.849 C 23.856 103.169,24.030 104.854,26.026 104.854 C 27.909 104.854,28.209 103.578,28.392 94.818 C 28.630 83.381,30.595 80.211,37.448 80.211 C 44.381 80.211,46.244 83.138,46.602 94.591 C 46.891 103.826,47.109 104.854,48.786 104.854 C 51.401 104.854,52.146 88.521,49.751 83.690 C 46.214 76.554,36.841 73.694,30.578 77.839 L 28.294 79.350 28.294 71.872 C 28.294 65.047,28.200 64.344,27.221 63.820 C 25.833 63.077,25.759 63.086,24.728 64.117 M136.794 64.117 C 135.736 65.176,135.460 101.845,136.497 103.781 C 137.113 104.934,142.061 105.342,143.599 104.367 C 144.983 103.490,144.119 101.293,142.164 100.717 L 140.361 100.187 140.361 82.290 C 140.361 65.165,140.314 64.369,139.288 63.820 C 137.900 63.077,137.826 63.086,136.794 64.117 M248.391 63.875 C 247.580 64.328,247.434 65.296,247.434 70.208 L 247.434 76.006 245.789 76.006 C 242.559 76.006,242.542 79.574,245.770 79.988 L 247.157 80.166 247.434 89.598 C 247.600 95.223,247.971 99.477,248.354 100.139 C 251.166 104.994,260.405 106.744,259.541 102.257 C 259.358 101.306,258.283 100.799,255.069 100.150 C 252.126 99.556,251.595 97.778,251.595 88.514 L 251.595 80.166 254.092 80.002 C 258.917 79.683,259.031 76.206,254.227 75.897 L 251.595 75.728 251.437 70.051 C 251.268 63.982,250.604 62.636,248.391 63.875 M368.446 67.268 C 369.686 69.604,372.644 71.222,373.902 70.250 C 374.425 69.846,374.318 70.311,373.596 71.567 C 372.263 73.890,370.042 74.561,370.042 72.642 C 370.042 71.970,369.581 71.016,369.019 70.523 C 367.893 69.534,366.713 67.533,366.713 66.611 C 366.713 65.577,367.759 65.974,368.446 67.268 M350.337 75.339 C 350.319 87.104,346.556 92.552,334.370 98.455 C 325.173 102.911,325.403 102.948,322.793 96.554 C 320.215 90.237,319.709 91.516,327.046 85.806 C 330.402 83.195,336.768 78.060,341.191 74.397 C 350.604 66.601,350.350 66.575,350.337 75.339 M354.831 72.870 C 355.018 73.434,355.647 74.371,356.227 74.951 C 356.807 75.531,357.282 76.724,357.282 77.602 C 357.282 78.480,357.661 79.513,358.124 79.898 C 359.352 80.917,360.466 83.691,360.795 86.546 C 361.071 88.945,361.052 88.986,360.308 87.583 C 359.882 86.780,359.152 85.977,358.685 85.797 C 358.218 85.618,357.836 85.020,357.836 84.468 C 357.836 83.916,357.482 82.959,357.050 82.342 C 356.618 81.725,356.088 80.284,355.874 79.140 C 355.659 77.996,355.202 76.761,354.857 76.394 C 354.122 75.613,352.843 72.437,352.467 70.458 L 352.204 69.071 353.347 70.458 C 353.975 71.221,354.643 72.306,354.831 72.870 M64.474 76.703 C 60.032 78.126,55.850 83.477,55.169 88.609 C 53.578 100.607,68.087 109.482,77.531 102.288 C 81.375 99.360,79.293 96.801,74.884 99.035 C 68.913 102.061,62.107 99.844,59.966 94.175 L 59.389 92.649 70.915 92.649 C 83.744 92.649,83.773 92.641,83.773 89.041 C 83.773 80.321,73.560 73.791,64.474 76.703 M110.967 77.502 C 103.941 81.203,103.127 83.860,103.319 102.452 L 103.467 116.782 105.132 116.782 L 106.796 116.782 106.950 108.877 C 107.035 104.528,107.211 100.971,107.341 100.971 C 107.472 100.971,108.498 101.595,109.622 102.357 C 119.183 108.845,131.699 102.098,131.745 90.430 C 131.789 79.343,120.640 72.406,110.967 77.502 M156.571 77.436 C 145.938 82.734,146.056 98.367,156.768 103.450 C 161.189 105.548,167.719 104.950,171.414 102.111 L 172.787 101.056 173.356 102.816 C 173.995 104.792,175.810 105.428,176.936 104.070 C 178.224 102.518,177.506 86.779,176.019 83.979 C 172.239 76.858,163.579 73.944,156.571 77.436 M182.027 76.768 C 180.871 78.162,181.457 103.754,182.663 104.514 C 185.081 106.038,185.555 104.594,185.853 94.785 C 186.206 83.182,188.072 80.211,195.007 80.211 C 201.900 80.211,203.790 83.282,204.161 95.087 C 204.459 104.574,204.953 106.031,207.351 104.510 C 208.965 103.487,208.765 86.594,207.102 83.457 C 203.148 75.999,192.535 73.459,186.844 78.609 C 185.925 79.441,185.853 79.428,185.853 78.422 C 185.853 76.272,183.340 75.186,182.027 76.768 M222.746 76.390 C 219.212 77.205,214.782 81.624,213.280 85.835 C 208.779 98.450,224.530 110.332,235.090 102.288 C 238.860 99.416,236.745 96.733,232.472 98.967 C 229.311 100.620,225.021 100.909,222.580 99.633 C 220.320 98.453,216.921 94.446,216.921 92.963 C 216.921 92.790,222.114 92.649,228.460 92.649 C 241.304 92.649,241.331 92.642,241.331 89.041 C 241.331 80.657,231.947 74.269,222.746 76.390 M72.244 80.468 C 75.503 81.373,79.334 85.242,79.334 87.628 C 79.334 88.014,75.951 88.211,69.348 88.211 C 63.856 88.211,59.363 88.024,59.364 87.795 C 59.386 83.470,67.150 79.054,72.244 80.468 M123.272 81.837 C 125.931 83.597,127.729 87.071,127.729 90.450 C 127.729 100.287,114.596 104.209,109.083 96.019 C 102.896 86.826,114.015 75.712,123.272 81.837 M168.813 81.941 C 176.966 87.590,172.985 100.416,163.079 100.416 C 159.420 100.416,156.722 99.119,154.766 96.418 C 148.052 87.149,159.421 75.432,168.813 81.941 M229.802 80.468 C 233.062 81.373,236.893 85.242,236.893 87.628 C 236.893 88.014,233.510 88.211,226.907 88.211 C 221.415 88.211,216.922 88.024,216.924 87.795 C 216.954 83.321,224.539 79.006,229.802 80.468 M373.538 85.288 C 372.913 87.244,372.269 88.229,371.474 88.448 C 370.557 88.700,370.478 88.868,371.093 89.264 C 372.911 90.435,362.905 102.217,356.819 106.070 L 355.126 107.142 354.747 105.123 C 354.359 103.058,357.429 98.752,359.288 98.752 C 363.128 98.752,368.939 93.655,368.934 90.291 C 368.932 89.271,368.101 88.975,367.585 89.811 C 367.418 90.081,366.592 90.432,365.749 90.592 C 364.906 90.751,363.655 91.058,362.968 91.275 C 360.855 91.942,361.363 89.735,363.523 88.865 C 364.515 88.466,365.700 87.913,366.158 87.636 C 366.616 87.359,367.802 86.722,368.793 86.221 C 369.785 85.720,370.596 85.120,370.596 84.886 C 370.596 84.653,371.345 84.152,372.261 83.773 C 373.176 83.393,373.925 82.822,373.925 82.503 C 373.925 82.184,374.043 82.041,374.186 82.184 C 374.330 82.328,374.038 83.725,373.538 85.288 M292.885 95.026 C 292.983 96.066,290.688 94.153,290.384 92.942 C 289.759 90.450,290.843 90.057,291.877 92.400 C 292.409 93.605,292.863 94.787,292.885 95.026 M299.307 93.225 C 299.612 93.263,298.864 93.758,297.644 94.326 C 295.432 95.355,295.426 95.355,294.751 94.142 C 293.731 92.306,293.845 92.206,296.394 92.699 C 297.691 92.950,299.001 93.187,299.307 93.225 M316.671 98.876 C 318.200 100.477,318.936 100.869,319.939 100.617 C 321.805 100.149,322.975 101.276,322.257 102.851 C 321.782 103.893,321.966 104.386,323.398 105.919 C 324.336 106.924,325.104 108.094,325.104 108.519 C 325.104 108.945,325.291 109.301,325.520 109.310 C 327.278 109.385,328.068 110.975,326.893 112.070 C 326.178 112.736,325.833 113.540,326.036 114.068 C 326.223 114.555,326.033 115.164,325.614 115.423 C 325.181 115.690,324.852 116.818,324.852 118.030 L 324.852 120.166 309.733 126.133 C 301.418 129.415,294.464 132.149,294.278 132.208 C 293.734 132.383,289.017 119.636,289.466 119.203 C 289.691 118.986,292.497 117.772,295.700 116.505 C 303.092 113.582,302.805 114.001,300.763 109.096 C 299.809 106.805,299.029 104.792,299.029 104.623 C 299.029 104.453,300.714 103.458,302.774 102.413 C 304.834 101.367,308.266 99.378,310.402 97.992 C 312.841 96.411,314.362 95.722,314.492 96.142 C 314.605 96.509,315.586 97.740,316.671 98.876 M32.952 126.991 C 31.011 128.174,29.674 130.114,26.075 136.970 C 23.780 141.342,23.408 141.765,21.472 142.214 C 19.012 142.784,18.999 144.048,21.456 143.796 L 23.123 143.624 21.638 148.234 C 19.600 154.559,19.264 156.449,20.175 156.449 C 20.622 156.449,21.610 154.130,22.716 150.485 C 24.890 143.322,24.875 143.341,29.371 142.623 C 33.570 141.953,33.465 141.903,32.670 144.184 C 31.611 147.222,31.720 153.882,32.832 154.108 C 33.566 154.256,33.840 153.730,34.121 151.628 C 34.953 145.425,36.169 141.470,37.246 141.470 C 38.551 141.470,38.541 141.629,37.075 144.177 C 34.544 148.574,37.485 149.538,41.086 145.492 C 43.044 143.293,43.381 143.086,43.122 144.244 C 42.361 147.643,41.494 155.904,41.811 156.730 C 42.639 158.889,43.900 157.312,44.119 153.841 C 44.464 148.391,45.988 141.102,48.039 135.098 C 51.018 126.375,49.633 124.934,46.115 133.096 C 45.000 135.683,43.611 138.024,42.996 138.354 C 42.386 138.681,41.262 139.318,40.499 139.770 C 39.369 140.439,36.768 140.657,36.208 140.130 C 36.136 140.062,36.444 138.276,36.892 136.161 C 38.776 127.267,37.473 124.234,32.952 126.991 M147.966 126.918 C 141.960 133.555,136.154 164.771,140.926 164.771 C 141.932 164.771,142.025 164.385,142.029 160.194 C 142.037 151.253,143.822 144.699,146.345 144.341 C 147.460 144.183,147.571 144.337,147.254 145.597 C 146.500 148.603,149.695 149.760,151.994 147.314 C 153.773 145.420,154.285 140.514,152.816 139.440 C 151.188 138.250,150.050 138.568,149.199 140.453 C 148.523 141.949,145.737 143.477,143.312 143.681 C 142.933 143.713,145.429 137.263,148.419 130.486 C 150.028 126.838,149.784 124.909,147.966 126.918 M34.320 135.848 C 33.923 138.095,33.341 140.009,33.027 140.101 C 32.712 140.193,31.005 140.418,29.232 140.600 L 26.010 140.933 28.287 136.556 C 29.539 134.149,31.488 131.096,32.619 129.772 L 34.674 127.364 34.858 129.563 C 34.960 130.772,34.718 133.600,34.320 135.848 M82.270 129.057 C 81.797 130.477,81.419 130.628,76.077 131.524 C 70.174 132.514,69.345 132.819,70.217 133.676 C 70.532 133.986,72.040 133.877,74.064 133.398 C 77.607 132.560,80.444 132.362,80.444 132.952 C 80.444 133.150,79.710 135.602,78.813 138.401 C 75.915 147.450,75.461 155.891,77.848 156.351 C 78.659 156.507,78.782 155.931,78.799 151.913 C 78.821 146.630,79.767 141.729,81.992 135.368 L 83.059 132.316 90.073 132.375 C 96.571 132.430,98.388 132.102,96.210 131.266 C 95.727 131.081,92.722 130.929,89.531 130.929 L 83.731 130.929 83.890 129.462 C 84.106 127.475,82.898 127.174,82.270 129.057 M253.371 129.141 C 251.440 131.276,248.200 140.161,247.044 146.495 C 246.775 147.968,248.053 149.606,249.009 149.015 C 249.292 148.840,249.698 147.258,249.911 145.500 C 250.361 141.792,252.402 135.366,254.351 131.520 C 255.984 128.296,255.406 126.892,253.371 129.141 M121.296 135.087 C 121.471 135.543,121.838 135.778,122.111 135.609 C 122.894 135.125,122.690 134.258,121.793 134.258 C 121.298 134.258,121.103 134.583,121.296 135.087 M49.773 138.003 C 46.119 147.137,49.212 155.594,53.136 147.197 C 54.750 143.746,57.054 142.314,56.325 145.215 C 54.959 150.660,60.695 151.983,64.270 147.048 L 65.885 144.818 66.216 146.473 C 66.757 149.178,68.365 148.615,70.144 145.099 C 72.431 140.578,73.182 140.224,72.537 143.969 C 71.918 147.561,72.568 151.089,73.896 151.345 C 74.641 151.489,74.749 151.146,74.513 149.391 C 74.356 148.221,74.643 145.051,75.149 142.347 C 76.553 134.856,74.924 134.611,70.574 141.658 C 68.531 144.968,67.638 145.101,68.743 141.930 C 69.531 139.671,69.510 139.432,68.498 139.044 C 67.948 138.833,67.477 139.155,67.164 139.955 C 65.876 143.242,59.927 149.652,58.806 148.959 C 57.824 148.352,58.215 147.225,59.682 146.440 C 61.935 145.234,63.453 141.604,62.632 139.385 C 61.938 137.510,60.651 137.873,58.115 140.659 C 56.250 142.709,55.735 143.019,55.346 142.324 C 54.492 140.797,53.773 141.408,52.109 145.076 C 51.210 147.060,50.316 148.682,50.123 148.682 C 49.485 148.682,50.455 142.029,51.344 140.309 C 52.291 138.478,52.244 136.409,51.248 136.081 C 50.905 135.969,50.241 136.833,49.773 138.003 M181.224 138.416 C 179.869 142.393,173.836 149.762,172.573 148.981 C 171.549 148.349,171.923 147.466,173.965 145.690 C 176.284 143.673,177.190 140.025,175.682 138.773 C 172.678 136.280,168.030 146.394,170.874 149.237 C 172.855 151.218,176.016 150.082,178.171 146.615 L 179.473 144.521 179.645 146.906 C 179.977 151.520,183.192 151.451,184.972 146.791 C 186.305 143.300,188.072 142.935,188.072 146.152 C 188.072 151.622,193.032 151.694,196.545 146.275 L 198.041 143.967 198.049 146.820 C 198.057 149.422,198.574 150.347,200.019 150.347 C 200.132 150.347,200.715 148.712,201.315 146.715 C 202.568 142.536,204.561 139.648,207.102 138.329 C 208.141 137.789,208.578 137.307,208.155 137.164 C 206.888 136.737,204.167 138.232,202.474 140.286 L 200.832 142.278 200.832 140.546 C 200.832 138.363,199.411 137.652,198.924 139.592 C 198.397 141.693,191.992 149.325,190.928 149.121 C 189.384 148.823,189.644 147.339,191.416 146.337 C 194.002 144.875,195.422 140.946,194.036 139.088 C 193.030 137.739,191.387 138.412,189.491 140.950 C 187.772 143.251,186.963 143.684,186.963 142.302 C 186.963 140.200,185.140 141.719,183.634 145.076 C 182.744 147.060,181.846 148.682,181.639 148.682 C 180.968 148.682,181.971 142.459,183.026 140.074 C 183.726 138.492,183.888 137.466,183.537 136.840 C 182.711 135.363,182.129 135.759,181.224 138.416 M229.594 140.892 C 226.371 145.765,225.805 146.098,227.073 142.376 C 227.539 141.011,227.775 139.749,227.598 139.572 C 226.133 138.108,224.460 141.707,224.783 145.626 C 225.022 148.522,226.511 148.929,227.880 146.471 C 228.413 145.515,229.401 143.812,230.076 142.685 L 231.303 140.638 230.966 145.199 C 230.722 148.494,230.824 149.996,231.332 150.608 C 232.675 152.226,233.295 151.567,233.098 148.730 C 232.994 147.230,233.306 144.085,233.791 141.740 C 235.218 134.839,233.789 134.550,229.594 140.892 M100.089 138.081 C 99.146 138.656,97.751 139.924,96.988 140.898 L 95.602 142.670 95.837 141.067 C 96.169 138.804,94.596 137.495,94.069 139.596 C 93.864 140.413,92.527 142.600,91.098 144.457 C 88.094 148.361,87.457 147.777,89.258 142.769 C 91.120 137.591,89.696 137.073,87.082 141.977 C 86.121 143.781,84.733 145.822,83.998 146.512 L 82.663 147.766 82.663 146.542 C 82.663 145.869,83.037 144.422,83.495 143.326 C 84.536 140.835,84.537 140.361,83.503 140.361 C 81.957 140.361,80.457 145.515,81.335 147.805 C 81.775 148.950,83.984 148.932,84.943 147.777 C 85.623 146.957,85.724 146.997,86.004 148.193 C 86.667 151.029,91.277 149.639,92.488 146.237 C 92.812 145.329,92.965 145.618,93.191 147.568 C 93.667 151.656,95.055 151.203,96.485 146.494 C 97.697 142.503,100.104 139.046,102.115 138.408 C 103.307 138.029,103.585 137.031,102.497 137.034 C 102.115 137.035,101.032 137.506,100.089 138.081 M161.115 138.238 C 160.181 138.902,158.851 140.213,158.159 141.151 L 156.900 142.857 157.135 141.044 C 157.374 139.198,156.336 137.534,155.644 138.653 C 154.559 140.408,154.038 148.728,154.955 149.645 C 156.173 150.863,156.596 150.344,158.074 145.820 C 159.216 142.323,160.763 140.230,163.939 137.886 C 165.875 136.457,163.143 136.798,161.115 138.238 M126.345 138.463 C 125.502 138.920,124.299 140.386,123.671 141.721 C 122.448 144.324,118.785 148.823,118.747 147.770 C 118.734 147.421,119.241 145.462,119.872 143.417 C 121.049 139.607,121.012 138.893,119.666 139.410 C 118.618 139.812,116.303 147.173,116.766 148.631 C 117.386 150.585,119.656 150.725,121.534 148.925 C 122.788 147.724,123.162 147.576,123.162 148.282 C 123.162 149.366,124.756 150.310,125.936 149.925 C 127.516 149.410,129.820 146.807,129.820 145.538 C 129.820 144.643,130.231 144.162,131.207 143.917 C 133.205 143.415,132.944 142.415,130.929 142.857 C 126.372 143.858,125.053 141.974,128.914 139.978 C 130.503 139.156,130.534 139.075,129.542 138.350 C 128.276 137.424,128.258 137.425,126.345 138.463 M103.253 139.047 C 100.350 141.081,98.857 147.601,100.876 149.429 C 103.133 151.471,105.696 150.180,109.042 145.316 C 111.765 141.359,111.310 139.840,108.479 143.435 C 104.374 148.648,103.372 149.524,102.419 148.733 C 101.197 147.719,101.293 147.302,102.914 146.564 C 105.643 145.320,107.491 140.445,105.853 138.807 C 104.992 137.947,104.799 137.964,103.253 139.047 M238.066 139.187 C 232.452 144.802,235.347 153.974,241.201 149.116 C 241.982 148.467,246.325 142.189,246.325 141.708 C 246.325 140.731,244.549 141.848,243.349 143.581 C 241.254 146.603,238.200 149.425,237.496 148.989 C 236.449 148.342,236.838 147.290,238.486 146.317 C 240.401 145.185,241.476 142.828,241.233 140.292 C 241.017 138.045,239.676 137.578,238.066 139.187 M219.368 140.083 C 219.176 140.846,218.832 141.470,218.603 141.470 C 218.373 141.470,217.277 142.087,216.166 142.840 L 214.147 144.211 214.147 141.731 C 214.147 138.184,212.701 138.385,210.237 142.276 C 208.051 145.728,207.222 146.162,207.803 143.551 C 208.439 140.691,208.381 140.138,207.423 139.939 C 206.367 139.720,205.844 141.259,205.833 144.615 C 205.816 149.814,207.809 150.234,210.108 145.516 L 211.650 142.350 211.820 144.363 C 211.952 145.933,211.569 146.963,210.075 149.054 C 207.131 153.174,204.271 161.302,205.050 163.333 C 206.511 167.140,211.284 159.997,213.344 150.922 C 214.108 147.559,214.737 146.105,215.923 144.969 L 217.493 143.465 217.138 145.240 C 216.476 148.551,219.457 149.910,221.833 147.381 C 223.584 145.517,224.151 140.487,222.727 139.446 C 221.123 138.273,219.757 138.532,219.368 140.083 M61.581 140.666 C 61.581 141.814,60.201 144.427,59.121 145.323 C 57.861 146.369,57.972 145.173,59.411 142.200 C 60.580 139.786,61.581 139.078,61.581 140.666 M104.073 143.375 C 102.351 146.314,101.373 146.711,102.100 144.176 C 102.860 141.526,104.294 139.578,104.980 140.265 C 105.380 140.665,105.101 141.620,104.073 143.375 M175.312 140.383 C 175.312 141.249,173.196 145.224,172.509 145.649 C 171.393 146.339,171.470 145.594,172.813 142.695 C 174.021 140.087,175.312 138.893,175.312 140.383 M193.154 141.250 C 192.936 142.470,190.305 146.107,189.919 145.721 C 189.432 145.234,192.107 139.764,192.726 139.982 C 193.065 140.101,193.258 140.672,193.154 141.250 M240.222 140.666 C 240.222 141.814,238.842 144.427,237.762 145.323 C 236.502 146.369,236.613 145.173,238.052 142.200 C 239.221 139.786,240.222 139.078,240.222 140.666 M42.379 141.054 C 40.908 143.576,38.696 146.463,38.234 146.463 C 37.433 146.463,38.674 144.277,40.675 142.164 C 42.462 140.275,43.061 139.885,42.379 141.054 M151.439 144.068 C 150.640 146.550,149.852 147.676,149.199 147.272 C 148.740 146.988,149.115 145.345,149.763 144.799 C 149.944 144.646,150.408 143.803,150.795 142.924 C 151.785 140.675,152.260 141.520,151.439 144.068 M221.569 142.996 C 220.998 145.378,219.702 147.643,219.116 147.281 C 218.391 146.833,218.450 146.129,219.285 145.255 C 219.670 144.851,220.289 143.835,220.660 142.996 C 221.032 142.157,221.470 141.470,221.635 141.470 C 221.800 141.470,221.771 142.157,221.569 142.996 M126.109 144.105 C 126.240 144.334,125.602 145.126,124.691 145.864 L 123.036 147.207 123.946 145.448 C 124.828 143.742,125.620 143.251,126.109 144.105 M210.600 152.705 C 209.100 157.619,206.380 162.753,206.380 160.669 C 206.380 159.458,208.857 152.943,209.748 151.810 C 211.312 149.822,211.439 149.956,210.600 152.705 M246.431 154.272 C 246.540 154.600,246.867 154.868,247.157 154.868 C 247.447 154.868,247.773 154.600,247.883 154.272 C 247.992 153.944,247.665 153.675,247.157 153.675 C 246.648 153.675,246.322 153.944,246.431 154.272 "
      stroke="none" fill="#718096" fill-rule="evenodd"></path>
  </g>
</svg>