<svg id="svg" version="1.1" xmlns="http://www.w3.org/2000/svg" xmlns:xlink="http://www.w3.org/1999/xlink" width="400"
  height="94.55909943714822" viewBox="0, 0, 400,94.55909943714822">
  <g id="svgg">
    <path id="path0"
      d="M60.250 0.999 C 59.975 1.071,59.188 1.254,58.500 1.405 C 53.917 2.409,50.333 5.180,47.775 9.696 C 47.532 10.125,47.333 10.567,47.333 10.678 C 47.333 10.789,47.186 11.188,47.006 11.565 C 46.826 11.942,46.470 13.075,46.214 14.083 L 45.750 15.917 45.750 46.583 L 45.750 77.250 46.143 78.917 C 48.511 88.954,56.077 93.778,67.306 92.409 C 70.146 92.063,71.790 91.533,74.375 90.130 C 75.862 89.323,78.811 86.356,79.672 84.800 C 80.921 82.543,81.667 80.324,82.101 77.583 C 82.581 74.543,82.592 18.596,82.113 15.833 C 80.749 7.967,76.231 2.796,69.500 1.397 C 68.813 1.254,67.950 1.072,67.583 0.992 C 66.758 0.814,60.934 0.819,60.250 0.999 M105.667 1.003 C 105.346 1.075,104.521 1.251,103.833 1.395 C 99.238 2.356,94.899 5.786,92.948 10.000 C 91.372 13.405,90.949 15.814,90.945 21.417 C 90.937 32.626,93.629 37.981,102.000 43.406 C 102.688 43.851,103.439 44.344,103.669 44.501 C 104.151 44.828,105.668 45.607,107.000 46.211 C 110.675 47.878,113.521 49.490,114.917 50.696 C 115.100 50.855,115.935 51.571,116.772 52.288 C 120.230 55.248,121.815 58.159,122.604 63.000 C 123.340 67.512,122.933 77.997,121.946 79.955 C 121.818 80.209,121.661 80.636,121.596 80.904 C 121.532 81.171,121.334 81.575,121.156 81.801 C 120.979 82.027,120.833 82.283,120.833 82.371 C 120.833 82.797,118.857 84.903,117.750 85.657 C 113.286 88.697,104.863 88.615,100.583 85.490 C 96.560 82.553,95.667 79.320,95.667 67.707 C 95.667 59.742,95.935 60.500,93.118 60.500 C 91.317 60.500,91.165 60.525,90.991 60.851 C 90.744 61.311,90.883 76.241,91.143 77.333 C 91.242 77.746,91.402 78.571,91.500 79.167 C 91.935 81.813,93.660 85.227,95.645 87.371 C 97.242 89.096,98.537 90.002,101.083 91.172 C 105.285 93.104,113.509 93.099,117.583 91.162 C 117.950 90.987,118.438 90.768,118.667 90.675 C 119.551 90.316,121.421 89.038,122.250 88.227 C 123.687 86.822,124.813 85.298,125.621 83.666 C 126.121 82.654,126.833 80.782,126.833 80.477 C 126.833 80.341,127.001 79.634,127.205 78.906 C 128.152 75.536,127.679 62.143,126.498 58.917 C 126.330 58.458,126.139 57.896,126.073 57.667 C 125.925 57.151,124.454 54.125,123.966 53.333 C 121.963 50.083,117.471 46.031,113.750 44.118 C 112.892 43.677,111.123 42.822,110.167 42.385 C 104.240 39.678,102.108 38.129,99.426 34.583 C 96.798 31.108,95.930 28.179,95.721 22.083 C 95.493 15.413,96.700 11.489,99.868 8.597 C 100.529 7.994,101.142 7.500,101.230 7.500 C 101.318 7.500,101.509 7.396,101.654 7.268 C 104.215 5.010,113.313 5.042,117.083 7.321 C 121.536 10.013,122.854 13.511,122.960 22.917 C 123.013 27.607,123.053 28.275,123.292 28.458 C 123.706 28.776,127.228 28.745,127.496 28.421 C 127.887 27.951,127.621 16.036,127.186 14.511 C 126.992 13.830,126.833 13.142,126.833 12.982 C 126.833 12.691,126.098 10.759,125.571 9.667 C 124.294 7.018,121.788 4.480,118.833 2.845 C 117.858 2.306,115.790 1.501,115.372 1.498 C 115.213 1.497,114.483 1.348,113.750 1.167 C 112.340 0.818,106.973 0.709,105.667 1.003 M192.333 1.003 C 192.012 1.075,191.220 1.252,190.573 1.396 C 188.681 1.817,186.667 2.662,185.000 3.734 C 183.486 4.707,180.167 8.406,180.167 9.120 C 180.167 9.213,180.029 9.467,179.862 9.686 C 179.514 10.139,179.194 11.007,178.457 13.500 L 177.940 15.250 177.884 45.904 C 177.851 63.618,177.891 76.986,177.978 77.571 C 178.415 80.515,179.194 82.702,180.802 85.500 C 186.130 94.772,204.171 95.101,210.860 86.048 C 211.598 85.049,213.167 82.047,213.167 81.633 C 213.167 81.504,213.314 80.952,213.493 80.407 C 214.360 77.779,214.982 62.177,214.264 61.081 C 213.973 60.637,210.455 60.437,209.833 60.830 C 209.619 60.965,209.570 62.170,209.490 69.369 C 209.400 77.427,209.382 77.791,209.032 78.813 C 208.831 79.398,208.667 79.953,208.667 80.047 C 208.667 81.194,206.237 84.533,204.583 85.658 C 200.695 88.303,193.346 88.650,188.745 86.406 C 187.042 85.575,185.236 83.798,184.389 82.119 C 183.508 80.375,183.328 79.851,182.907 77.817 L 182.500 75.855 182.500 46.715 L 182.500 17.576 182.910 15.599 C 183.306 13.688,183.858 12.017,184.264 11.500 C 184.372 11.362,184.579 11.015,184.724 10.728 C 188.178 3.904,202.812 3.755,207.256 10.500 C 209.106 13.308,209.377 14.697,209.448 21.750 C 209.482 25.050,209.545 27.916,209.590 28.119 C 209.773 28.960,213.535 29.155,214.181 28.357 C 214.942 27.417,214.388 15.279,213.479 12.952 C 213.307 12.513,213.167 12.040,213.167 11.900 C 213.167 11.652,212.470 9.999,212.155 9.500 C 212.069 9.362,211.907 9.063,211.797 8.833 C 210.072 5.256,205.734 2.282,200.635 1.182 C 198.941 0.816,193.671 0.702,192.333 1.003 M375.667 1.172 C 370.583 2.349,366.584 5.015,364.667 8.508 C 363.952 9.810,363.188 11.545,362.873 12.583 C 361.408 17.413,361.466 26.781,362.990 31.305 C 363.179 31.865,363.333 32.404,363.333 32.502 C 363.333 32.941,364.977 36.027,365.791 37.120 C 368.315 40.504,373.684 44.376,379.250 46.827 C 387.212 50.332,392.475 55.991,393.330 61.968 C 393.418 62.581,393.567 63.487,393.662 63.981 C 394.298 67.307,393.681 78.522,392.767 80.250 C 392.621 80.525,392.502 80.871,392.501 81.019 C 392.500 81.167,392.361 81.467,392.190 81.686 C 392.020 81.904,391.760 82.318,391.613 82.605 C 389.888 85.970,385.927 87.750,380.167 87.750 C 375.248 87.750,372.781 86.930,370.357 84.490 C 367.222 81.333,366.669 78.960,366.549 68.167 C 366.498 63.565,366.406 60.841,366.297 60.708 C 366.063 60.424,362.317 60.417,362.033 60.700 C 361.245 61.488,361.914 78.253,362.833 80.750 C 363.002 81.208,363.191 81.771,363.254 82.000 C 364.587 86.902,370.500 91.620,376.209 92.338 C 387.798 93.794,395.883 89.076,397.925 79.667 C 398.074 78.979,398.262 78.117,398.341 77.750 C 398.541 76.828,398.538 63.903,398.338 62.898 C 397.592 59.154,397.182 57.829,396.070 55.553 C 394.129 51.584,390.966 48.119,386.829 45.432 C 386.419 45.166,385.896 44.826,385.667 44.678 C 385.202 44.376,381.799 42.696,379.750 41.757 C 379.017 41.421,378.267 41.062,378.083 40.958 C 377.900 40.855,377.488 40.633,377.167 40.466 C 375.789 39.748,374.660 38.999,373.588 38.092 C 369.683 34.788,367.347 30.424,366.802 25.417 C 366.384 21.583,366.718 15.352,367.412 14.009 C 367.552 13.738,367.667 13.425,367.667 13.313 C 367.667 12.011,370.480 8.432,372.307 7.411 C 377.960 4.251,386.062 5.016,390.083 9.088 C 393.122 12.165,393.671 14.150,393.820 22.600 C 393.896 26.919,393.966 28.176,394.145 28.391 C 394.458 28.767,398.015 28.800,398.322 28.430 C 398.676 28.003,398.490 15.872,398.107 14.417 C 396.095 6.775,392.536 3.128,385.250 1.242 C 383.426 0.770,377.589 0.728,375.667 1.172 M1.583 2.375 C 1.533 2.581,1.513 22.700,1.538 47.083 L 1.583 91.417 3.665 91.464 C 5.477 91.505,5.774 91.474,5.957 91.224 C 6.123 90.996,6.167 86.868,6.167 71.478 C 6.167 56.094,6.210 51.991,6.375 51.885 C 6.490 51.811,10.333 51.708,14.917 51.656 C 22.577 51.569,23.374 51.533,24.784 51.212 C 29.348 50.172,33.212 47.525,35.308 44.000 C 35.857 43.078,36.833 40.976,36.833 40.718 C 36.833 40.589,36.951 40.256,37.095 39.978 C 38.036 38.158,38.668 21.257,37.936 17.500 C 37.801 16.813,37.642 15.912,37.581 15.500 C 36.966 11.321,33.510 6.317,29.919 4.405 C 29.734 4.306,29.433 4.142,29.250 4.040 C 28.636 3.697,27.023 3.000,26.844 3.000 C 26.747 3.000,26.236 2.853,25.709 2.673 C 24.067 2.113,21.685 2.000,11.486 2.000 L 1.673 2.000 1.583 2.375 M133.200 2.200 C 132.909 2.491,132.925 6.230,133.218 6.473 C 133.366 6.597,136.028 6.670,141.558 6.702 C 148.560 6.743,149.701 6.784,149.837 7.000 C 149.935 7.156,149.996 23.060,149.997 49.175 C 149.999 81.558,150.046 91.146,150.200 91.300 C 150.531 91.631,154.436 91.574,154.566 91.236 C 154.621 91.091,154.667 72.082,154.667 48.992 C 154.667 7.658,154.672 7.009,154.989 6.839 C 155.198 6.727,158.111 6.666,163.281 6.664 C 167.910 6.663,171.353 6.597,171.495 6.506 C 171.882 6.262,171.964 2.975,171.598 2.416 L 171.326 2.000 152.363 2.000 C 137.836 2.000,133.353 2.047,133.200 2.200 M240.506 2.242 C 240.310 2.479,240.097 3.301,239.577 5.833 C 239.436 6.521,239.173 7.608,238.993 8.250 C 238.813 8.892,238.666 9.570,238.666 9.757 C 238.666 9.944,238.545 10.544,238.396 11.090 C 238.247 11.636,238.031 12.571,237.915 13.167 C 237.800 13.762,237.584 14.756,237.436 15.375 C 237.288 15.994,237.045 17.006,236.897 17.625 C 236.749 18.244,236.562 19.162,236.480 19.667 C 236.399 20.171,236.190 21.146,236.015 21.833 C 235.533 23.730,235.026 25.978,234.850 27.000 C 234.763 27.504,234.612 28.125,234.515 28.379 C 234.418 28.634,234.259 29.346,234.162 29.963 C 234.065 30.579,233.878 31.458,233.746 31.917 C 233.504 32.759,233.185 34.215,232.740 36.500 C 232.607 37.188,232.391 38.087,232.260 38.500 C 232.130 38.912,231.977 39.587,231.921 40.000 C 231.865 40.412,231.679 41.313,231.508 42.000 C 230.982 44.108,230.619 45.700,230.408 46.833 C 230.297 47.429,230.086 48.404,229.939 49.000 C 229.455 50.971,229.133 52.403,228.927 53.500 C 228.713 54.638,228.348 56.241,227.826 58.333 C 227.654 59.021,227.468 59.921,227.412 60.333 C 227.356 60.746,227.204 61.421,227.073 61.833 C 226.943 62.246,226.727 63.146,226.593 63.833 C 226.149 66.119,225.829 67.574,225.587 68.417 C 225.456 68.875,225.269 69.754,225.171 70.371 C 225.074 70.987,224.915 71.700,224.818 71.954 C 224.721 72.209,224.570 72.829,224.484 73.333 C 224.312 74.332,223.817 76.532,223.322 78.500 C 223.149 79.188,222.962 80.050,222.907 80.417 C 222.851 80.783,222.697 81.479,222.564 81.962 C 222.431 82.446,222.221 83.383,222.099 84.045 C 221.883 85.211,221.712 85.972,220.983 89.017 C 220.794 89.806,220.665 90.668,220.695 90.934 L 220.750 91.417 222.667 91.465 C 225.516 91.537,225.455 91.583,225.908 89.000 C 226.029 88.313,226.250 87.225,226.401 86.583 C 226.980 84.109,227.323 82.561,227.417 82.000 C 227.510 81.437,227.862 79.853,228.433 77.417 C 228.584 76.775,228.801 75.725,228.915 75.083 C 229.029 74.442,229.239 73.467,229.381 72.917 C 229.522 72.367,229.719 71.504,229.818 71.000 C 229.917 70.496,230.093 69.738,230.209 69.315 C 230.606 67.874,229.391 68.000,242.850 68.000 L 254.826 68.000 255.059 68.375 C 255.379 68.889,255.862 70.899,256.660 75.035 C 256.832 75.925,257.022 76.735,257.084 76.834 C 257.146 76.934,257.294 77.593,257.413 78.299 C 257.532 79.006,257.749 80.071,257.895 80.667 C 258.449 82.931,258.714 84.121,258.915 85.250 C 259.029 85.892,259.239 86.867,259.381 87.417 C 259.522 87.967,259.713 88.834,259.804 89.343 C 259.895 89.853,260.086 90.549,260.228 90.890 L 260.487 91.510 262.702 91.463 L 264.917 91.417 264.877 90.509 C 264.856 90.009,264.727 89.259,264.591 88.842 C 264.455 88.425,264.265 87.578,264.169 86.960 C 264.073 86.342,263.919 85.667,263.828 85.460 C 263.736 85.253,263.560 84.521,263.435 83.833 C 263.217 82.631,262.961 81.482,262.395 79.167 C 262.249 78.571,262.027 77.521,261.902 76.833 C 261.776 76.146,261.560 75.173,261.420 74.672 C 261.281 74.171,261.167 73.603,261.167 73.410 C 261.167 73.217,261.054 72.727,260.915 72.321 C 260.777 71.915,260.560 71.021,260.433 70.333 C 260.207 69.111,259.927 67.848,259.397 65.667 C 259.252 65.071,259.030 64.058,258.904 63.417 C 258.778 62.775,258.560 61.840,258.421 61.339 C 258.281 60.837,258.167 60.275,258.167 60.089 C 258.167 59.902,258.024 59.225,257.848 58.583 C 257.498 57.311,257.090 55.452,256.731 53.500 C 256.604 52.813,256.425 52.063,256.332 51.833 C 256.239 51.604,256.059 50.854,255.932 50.167 C 255.706 48.940,255.421 47.657,254.896 45.500 C 254.751 44.904,254.536 43.929,254.417 43.333 C 254.299 42.737,254.006 41.387,253.767 40.333 C 253.528 39.279,253.218 37.854,253.079 37.167 C 252.939 36.479,252.718 35.542,252.587 35.083 C 252.455 34.625,252.269 33.746,252.171 33.129 C 252.074 32.513,251.915 31.800,251.817 31.546 C 251.720 31.291,251.534 30.521,251.404 29.833 C 251.275 29.146,251.056 28.173,250.918 27.672 C 250.780 27.171,250.667 26.608,250.667 26.422 C 250.667 26.236,250.523 25.558,250.347 24.917 C 249.998 23.648,249.618 21.959,249.239 20.000 C 249.106 19.313,248.921 18.519,248.828 18.236 C 248.735 17.953,248.557 17.166,248.432 16.486 C 248.307 15.806,248.084 14.744,247.936 14.125 C 247.254 11.272,247.119 10.680,246.921 9.667 C 246.804 9.071,246.586 8.058,246.434 7.417 C 245.974 5.465,245.519 3.447,245.410 2.874 C 245.353 2.575,245.167 2.256,244.997 2.165 C 244.483 1.890,240.746 1.954,240.506 2.242 M272.506 2.322 C 272.211 2.872,272.270 91.073,272.565 91.318 C 272.720 91.447,273.480 91.495,274.857 91.464 L 276.917 91.417 277.000 71.722 C 277.046 60.890,277.146 51.965,277.222 51.889 C 277.441 51.669,290.181 51.613,290.980 51.828 C 291.585 51.991,291.676 52.084,291.841 52.713 C 292.088 53.660,292.816 55.946,293.099 56.667 C 293.226 56.987,293.409 57.622,293.506 58.077 C 293.604 58.531,293.751 58.984,293.833 59.083 C 293.916 59.182,294.063 59.636,294.160 60.090 C 294.258 60.545,294.441 61.179,294.567 61.500 C 294.796 62.083,295.223 63.422,296.081 66.250 C 296.332 67.075,296.673 68.125,296.839 68.583 C 297.006 69.042,297.194 69.679,297.258 70.000 C 297.321 70.321,297.468 70.771,297.583 71.000 C 297.699 71.229,297.845 71.679,297.909 72.000 C 297.973 72.321,298.162 72.958,298.330 73.417 C 298.498 73.875,298.837 74.925,299.083 75.750 C 299.329 76.575,299.643 77.550,299.780 77.917 C 299.917 78.283,300.129 78.958,300.253 79.417 C 300.481 80.268,300.873 81.521,301.191 82.417 C 301.288 82.692,301.505 83.367,301.672 83.917 C 302.061 85.197,302.441 86.386,302.764 87.333 C 302.905 87.746,303.121 88.458,303.244 88.917 C 303.368 89.375,303.610 90.125,303.784 90.583 L 304.099 91.417 306.318 91.463 C 309.290 91.526,309.240 91.604,308.172 88.583 C 308.010 88.125,307.680 87.112,307.438 86.333 C 306.363 82.866,306.096 82.037,305.827 81.333 C 305.669 80.921,305.489 80.295,305.426 79.942 C 305.363 79.589,305.211 79.064,305.088 78.775 C 304.964 78.486,304.662 77.575,304.416 76.750 C 304.170 75.925,303.828 74.875,303.657 74.417 C 303.486 73.958,303.273 73.283,303.184 72.917 C 303.095 72.550,302.907 71.912,302.766 71.500 C 302.483 70.676,302.230 69.876,301.001 65.917 C 300.573 64.539,300.187 63.344,299.976 62.750 C 299.878 62.475,299.662 61.800,299.495 61.250 C 298.841 59.098,298.360 57.561,298.190 57.083 C 297.864 56.161,297.478 54.924,297.256 54.083 C 297.134 53.625,296.914 52.971,296.767 52.630 C 296.214 51.347,296.582 50.881,298.649 50.251 C 300.997 49.534,304.410 46.927,305.742 44.833 C 306.004 44.421,306.345 43.896,306.500 43.667 C 307.035 42.874,308.001 40.500,308.332 39.167 C 309.459 34.619,309.459 19.047,308.332 14.500 C 306.648 7.707,301.164 2.948,294.132 2.177 C 290.888 1.822,272.708 1.944,272.506 2.322 M318.353 2.226 C 318.215 2.392,318.177 14.190,318.208 46.934 L 318.250 91.417 328.583 91.462 C 339.101 91.509,339.594 91.486,342.250 90.846 C 346.247 89.882,349.490 87.772,351.404 84.890 C 351.759 84.355,352.178 83.728,352.335 83.497 C 352.492 83.266,352.676 82.891,352.744 82.663 C 352.812 82.436,352.960 82.100,353.072 81.917 C 353.486 81.241,354.153 78.692,354.448 76.667 C 354.912 73.467,354.914 20.384,354.449 17.167 C 353.564 11.035,350.565 6.314,346.202 4.182 C 345.587 3.881,344.938 3.558,344.761 3.464 C 343.954 3.035,341.268 2.338,339.798 2.177 C 337.231 1.896,318.592 1.938,318.353 2.226 M67.237 5.836 C 73.712 7.013,76.945 10.847,77.494 18.000 C 77.760 21.470,77.640 75.683,77.362 77.385 C 76.223 84.365,71.827 87.753,63.919 87.747 C 58.887 87.744,56.322 86.836,53.879 84.196 C 52.999 83.245,51.833 81.490,51.833 81.117 C 51.833 81.004,51.689 80.642,51.512 80.312 C 51.335 79.982,51.143 79.420,51.086 79.064 C 51.028 78.708,50.854 77.892,50.699 77.250 C 50.439 76.177,50.417 73.739,50.417 46.750 L 50.417 17.417 50.793 15.667 C 51.544 12.177,52.932 9.756,55.099 8.155 C 55.587 7.795,56.039 7.500,56.105 7.500 C 56.170 7.500,56.342 7.396,56.487 7.268 C 58.043 5.896,63.539 5.164,67.237 5.836 M24.333 7.221 C 29.729 8.901,32.545 12.352,33.159 18.035 C 33.391 20.189,33.385 33.572,33.150 35.638 C 32.708 39.542,30.895 42.900,28.329 44.568 C 27.919 44.834,27.385 45.187,27.142 45.352 C 26.899 45.517,26.486 45.703,26.225 45.766 C 25.964 45.829,25.536 45.988,25.273 46.120 C 23.760 46.884,7.722 47.487,6.489 46.827 C 6.009 46.571,5.979 7.132,6.458 6.838 C 6.659 6.715,9.272 6.678,14.833 6.719 L 22.917 6.780 24.333 7.221 M295.583 7.294 C 301.168 9.177,303.569 12.455,304.159 19.000 C 304.628 24.201,304.242 37.059,303.579 38.343 C 303.444 38.603,303.333 38.918,303.333 39.042 C 303.333 39.357,302.559 40.916,301.895 41.941 C 301.134 43.113,299.413 44.641,298.139 45.275 C 294.983 46.846,293.813 46.995,284.634 46.998 L 277.519 47.000 277.259 46.630 C 276.981 46.231,276.851 7.480,277.128 7.067 C 277.374 6.697,277.896 6.678,285.917 6.733 L 294.083 6.789 295.583 7.294 M340.833 7.148 C 344.880 8.412,346.880 10.018,348.533 13.333 C 348.784 13.838,348.992 14.365,348.995 14.506 C 348.998 14.646,349.169 15.209,349.375 15.756 L 349.750 16.750 349.750 46.833 L 349.750 76.917 349.284 78.333 C 348.452 80.859,347.742 82.075,346.304 83.433 C 345.453 84.237,343.649 85.500,343.351 85.500 C 343.273 85.500,342.881 85.645,342.480 85.822 C 340.306 86.781,323.938 87.414,323.095 86.571 C 322.668 86.144,322.697 7.100,323.125 6.838 C 323.790 6.432,339.414 6.705,340.833 7.148 M243.352 14.275 C 243.527 14.903,243.746 15.829,243.839 16.333 C 244.013 17.277,244.490 19.428,244.949 21.333 C 245.092 21.929,245.303 22.942,245.418 23.583 C 245.533 24.225,245.748 25.197,245.897 25.743 C 246.045 26.290,246.167 26.892,246.167 27.082 C 246.167 27.272,246.279 27.837,246.417 28.339 C 246.554 28.840,246.744 29.662,246.837 30.167 C 246.999 31.039,247.213 32.016,247.986 35.417 C 248.173 36.242,248.372 37.217,248.427 37.583 C 248.482 37.950,248.632 38.587,248.759 39.000 C 248.885 39.412,249.069 40.275,249.167 40.917 C 249.264 41.558,249.448 42.421,249.575 42.833 C 249.702 43.246,249.851 43.883,249.906 44.250 C 249.961 44.617,250.153 45.554,250.332 46.333 C 250.956 49.046,251.324 50.754,251.428 51.417 C 251.486 51.783,251.676 52.560,251.850 53.143 C 252.024 53.725,252.167 54.403,252.167 54.648 C 252.167 54.893,252.281 55.504,252.420 56.005 C 252.559 56.507,252.782 57.517,252.914 58.250 C 253.047 58.983,253.259 59.921,253.386 60.333 C 253.789 61.639,253.858 62.619,253.567 62.909 C 253.184 63.292,232.319 63.301,232.001 62.918 C 231.763 62.631,231.857 61.751,232.331 59.833 C 232.501 59.146,232.836 57.683,233.076 56.583 C 233.315 55.483,233.633 54.058,233.782 53.417 C 233.930 52.775,234.147 51.762,234.264 51.167 C 234.381 50.571,234.595 49.558,234.740 48.917 C 234.885 48.275,235.150 47.075,235.330 46.250 C 235.509 45.425,235.779 44.225,235.930 43.583 C 236.080 42.942,236.294 41.929,236.406 41.333 C 236.518 40.737,236.733 39.725,236.884 39.083 C 237.581 36.120,237.716 35.514,237.906 34.500 C 238.018 33.904,238.233 32.892,238.384 32.250 C 239.081 29.286,239.216 28.680,239.406 27.667 C 239.518 27.071,239.733 26.058,239.884 25.417 C 240.581 22.453,240.716 21.847,240.906 20.833 C 241.103 19.789,241.399 18.458,241.945 16.167 C 242.087 15.571,242.269 14.746,242.349 14.333 C 242.717 12.448,242.840 12.441,243.352 14.275 "
      stroke="none" fill="#718096" fill-rule="evenodd"></path>
    <path id="path1"
      d="M0.000 47.250 L 0.000 94.500 200.000 94.500 L 400.000 94.500 400.000 47.250 L 400.000 0.000 200.000 0.000 L 0.000 0.000 0.000 47.250 M67.583 0.992 C 67.950 1.072,68.813 1.254,69.500 1.397 C 76.231 2.796,80.749 7.967,82.113 15.833 C 82.592 18.596,82.581 74.543,82.101 77.583 C 81.313 82.570,79.419 86.118,76.082 88.856 C 74.677 90.009,74.352 90.206,72.250 91.172 C 67.824 93.208,59.927 93.107,55.333 90.957 C 50.464 88.677,47.542 84.849,46.143 78.917 L 45.750 77.250 45.750 46.583 L 45.750 15.917 46.214 14.083 C 46.470 13.075,46.826 11.942,47.006 11.565 C 47.186 11.188,47.333 10.789,47.333 10.678 C 47.333 10.567,47.532 10.125,47.775 9.696 C 50.333 5.180,53.917 2.409,58.500 1.405 C 59.188 1.254,59.975 1.071,60.250 0.999 C 60.934 0.819,66.758 0.814,67.583 0.992 M113.750 1.167 C 114.483 1.348,115.213 1.497,115.372 1.498 C 115.790 1.501,117.858 2.306,118.833 2.845 C 121.788 4.480,124.294 7.018,125.571 9.667 C 126.098 10.759,126.833 12.691,126.833 12.982 C 126.833 13.142,126.992 13.830,127.186 14.511 C 127.621 16.036,127.887 27.951,127.496 28.421 C 127.228 28.745,123.706 28.776,123.292 28.458 C 123.053 28.275,123.013 27.607,122.960 22.917 C 122.854 13.511,121.536 10.013,117.083 7.321 C 113.313 5.042,104.215 5.010,101.654 7.268 C 101.509 7.396,101.318 7.500,101.230 7.500 C 100.913 7.500,98.654 9.713,98.113 10.555 C 95.860 14.058,95.131 19.563,96.011 26.417 C 96.741 32.104,100.472 37.263,106.083 40.343 C 107.717 41.240,108.321 41.542,110.167 42.385 C 111.123 42.822,112.892 43.677,113.750 44.118 C 117.471 46.031,121.963 50.083,123.966 53.333 C 124.454 54.125,125.925 57.151,126.073 57.667 C 126.139 57.896,126.330 58.458,126.498 58.917 C 127.679 62.143,128.152 75.536,127.205 78.906 C 127.001 79.634,126.833 80.341,126.833 80.477 C 126.833 80.782,126.121 82.654,125.621 83.666 C 124.813 85.298,123.687 86.822,122.250 88.227 C 121.421 89.038,119.551 90.316,118.667 90.675 C 118.438 90.768,117.950 90.987,117.583 91.162 C 113.509 93.099,105.285 93.104,101.083 91.172 C 98.537 90.002,97.242 89.096,95.645 87.371 C 93.660 85.227,91.935 81.813,91.500 79.167 C 91.402 78.571,91.242 77.746,91.143 77.333 C 90.883 76.241,90.744 61.311,90.991 60.851 C 91.165 60.525,91.317 60.500,93.118 60.500 C 95.935 60.500,95.667 59.742,95.667 67.707 C 95.667 78.360,96.183 80.839,99.083 84.126 C 102.888 88.437,112.510 89.226,117.750 85.657 C 118.857 84.903,120.833 82.797,120.833 82.371 C 120.833 82.283,120.979 82.027,121.156 81.801 C 121.334 81.575,121.532 81.171,121.596 80.904 C 121.661 80.636,121.818 80.209,121.946 79.955 C 122.933 77.997,123.340 67.512,122.604 63.000 C 121.815 58.159,120.230 55.248,116.772 52.288 C 115.935 51.571,115.100 50.855,114.917 50.696 C 113.521 49.490,110.675 47.878,107.000 46.211 C 105.668 45.607,104.151 44.828,103.669 44.501 C 103.439 44.344,102.688 43.851,102.000 43.406 C 93.629 37.981,90.937 32.626,90.945 21.417 C 90.949 15.814,91.372 13.405,92.948 10.000 C 94.899 5.786,99.238 2.356,103.833 1.395 C 104.521 1.251,105.346 1.075,105.667 1.003 C 106.973 0.709,112.340 0.818,113.750 1.167 M200.635 1.182 C 205.734 2.282,210.072 5.256,211.797 8.833 C 211.907 9.063,212.069 9.362,212.155 9.500 C 212.470 9.999,213.167 11.652,213.167 11.900 C 213.167 12.040,213.307 12.513,213.479 12.952 C 214.388 15.279,214.942 27.417,214.181 28.357 C 213.535 29.155,209.773 28.960,209.590 28.119 C 209.545 27.916,209.482 25.050,209.448 21.750 C 209.377 14.697,209.106 13.308,207.256 10.500 C 202.812 3.755,188.178 3.904,184.724 10.728 C 184.579 11.015,184.372 11.362,184.264 11.500 C 183.858 12.017,183.306 13.688,182.910 15.599 L 182.500 17.576 182.500 46.715 L 182.500 75.855 182.907 77.817 C 183.789 82.075,185.734 84.937,188.745 86.406 C 193.346 88.650,200.695 88.303,204.583 85.658 C 206.237 84.533,208.667 81.194,208.667 80.047 C 208.667 79.953,208.831 79.398,209.032 78.813 C 209.382 77.791,209.400 77.427,209.490 69.369 C 209.570 62.170,209.619 60.965,209.833 60.830 C 210.455 60.437,213.973 60.637,214.264 61.081 C 214.982 62.177,214.360 77.779,213.493 80.407 C 213.314 80.952,213.167 81.504,213.167 81.633 C 213.167 82.047,211.598 85.049,210.860 86.048 C 208.164 89.697,204.355 91.794,199.306 92.409 C 191.265 93.389,183.715 90.570,180.802 85.500 C 179.194 82.702,178.415 80.515,177.978 77.571 C 177.891 76.986,177.851 63.618,177.884 45.904 L 177.940 15.250 178.457 13.500 C 179.194 11.007,179.514 10.139,179.862 9.686 C 180.029 9.467,180.167 9.213,180.167 9.120 C 180.167 8.406,183.486 4.707,185.000 3.734 C 186.667 2.662,188.681 1.817,190.573 1.396 C 191.220 1.252,192.012 1.075,192.333 1.003 C 193.671 0.702,198.941 0.816,200.635 1.182 M385.250 1.242 C 392.536 3.128,396.095 6.775,398.107 14.417 C 398.490 15.872,398.676 28.003,398.322 28.430 C 398.015 28.800,394.458 28.767,394.145 28.391 C 393.966 28.176,393.896 26.919,393.820 22.600 C 393.671 14.150,393.122 12.165,390.083 9.088 C 386.062 5.016,377.960 4.251,372.307 7.411 C 370.480 8.432,367.667 12.011,367.667 13.313 C 367.667 13.425,367.552 13.738,367.412 14.009 C 366.718 15.352,366.384 21.583,366.802 25.417 C 367.275 29.764,368.821 33.084,372.012 36.608 C 373.280 38.008,375.181 39.431,377.167 40.466 C 377.488 40.633,377.900 40.855,378.083 40.958 C 378.267 41.062,379.017 41.421,379.750 41.757 C 381.799 42.696,385.202 44.376,385.667 44.678 C 385.896 44.826,386.419 45.166,386.829 45.432 C 390.966 48.119,394.129 51.584,396.070 55.553 C 397.182 57.829,397.592 59.154,398.338 62.898 C 398.538 63.903,398.541 76.828,398.341 77.750 C 398.262 78.117,398.074 78.979,397.925 79.667 C 395.883 89.076,387.798 93.794,376.209 92.338 C 370.500 91.620,364.587 86.902,363.254 82.000 C 363.191 81.771,363.002 81.208,362.833 80.750 C 361.914 78.253,361.245 61.488,362.033 60.700 C 362.317 60.417,366.063 60.424,366.297 60.708 C 366.406 60.841,366.498 63.565,366.549 68.167 C 366.669 78.960,367.222 81.333,370.357 84.490 C 372.781 86.930,375.248 87.750,380.167 87.750 C 385.927 87.750,389.888 85.970,391.613 82.605 C 391.760 82.318,392.020 81.904,392.190 81.686 C 392.361 81.467,392.500 81.167,392.501 81.019 C 392.502 80.871,392.621 80.525,392.767 80.250 C 393.681 78.522,394.298 67.307,393.662 63.981 C 393.567 63.487,393.418 62.581,393.330 61.968 C 392.475 55.991,387.212 50.332,379.250 46.827 C 373.684 44.376,368.315 40.504,365.791 37.120 C 364.977 36.027,363.333 32.941,363.333 32.502 C 363.333 32.404,363.179 31.865,362.990 31.305 C 361.466 26.781,361.408 17.413,362.873 12.583 C 363.188 11.545,363.952 9.810,364.667 8.508 C 366.584 5.015,370.583 2.349,375.667 1.172 C 377.589 0.728,383.426 0.770,385.250 1.242 M23.024 2.173 C 23.973 2.268,25.182 2.493,25.709 2.673 C 26.236 2.853,26.747 3.000,26.844 3.000 C 27.023 3.000,28.636 3.697,29.250 4.040 C 29.433 4.142,29.734 4.306,29.919 4.405 C 33.510 6.317,36.966 11.321,37.581 15.500 C 37.642 15.912,37.801 16.813,37.936 17.500 C 38.668 21.257,38.036 38.158,37.095 39.978 C 36.951 40.256,36.833 40.589,36.833 40.718 C 36.833 40.976,35.857 43.078,35.308 44.000 C 33.212 47.525,29.348 50.172,24.784 51.212 C 23.374 51.533,22.577 51.569,14.917 51.656 C 10.333 51.708,6.490 51.811,6.375 51.885 C 6.210 51.991,6.167 56.094,6.167 71.478 C 6.167 86.868,6.123 90.996,5.957 91.224 C 5.774 91.474,5.477 91.505,3.665 91.464 L 1.583 91.417 1.538 47.083 C 1.513 22.700,1.533 2.581,1.583 2.375 L 1.673 2.000 11.486 2.000 C 17.041 2.000,22.047 2.075,23.024 2.173 M171.598 2.416 C 171.964 2.975,171.882 6.262,171.495 6.506 C 171.353 6.597,167.910 6.663,163.281 6.664 C 158.111 6.666,155.198 6.727,154.989 6.839 C 154.672 7.009,154.667 7.658,154.667 48.992 C 154.667 72.082,154.621 91.091,154.566 91.236 C 154.436 91.574,150.531 91.631,150.200 91.300 C 150.046 91.146,149.999 81.558,149.997 49.175 C 149.996 23.060,149.935 7.156,149.837 7.000 C 149.701 6.784,148.560 6.743,141.558 6.702 C 136.028 6.670,133.366 6.597,133.218 6.473 C 132.925 6.230,132.909 2.491,133.200 2.200 C 133.353 2.047,137.836 2.000,152.363 2.000 L 171.326 2.000 171.598 2.416 M244.997 2.165 C 245.167 2.256,245.353 2.575,245.410 2.874 C 245.519 3.447,245.974 5.465,246.434 7.417 C 246.586 8.058,246.804 9.071,246.921 9.667 C 247.119 10.680,247.254 11.272,247.936 14.125 C 248.084 14.744,248.307 15.806,248.432 16.486 C 248.557 17.166,248.735 17.953,248.828 18.236 C 248.921 18.519,249.106 19.313,249.239 20.000 C 249.618 21.959,249.998 23.648,250.347 24.917 C 250.523 25.558,250.667 26.236,250.667 26.422 C 250.667 26.608,250.780 27.171,250.918 27.672 C 251.056 28.173,251.275 29.146,251.404 29.833 C 251.534 30.521,251.720 31.291,251.817 31.546 C 251.915 31.800,252.074 32.513,252.171 33.129 C 252.269 33.746,252.455 34.625,252.587 35.083 C 252.718 35.542,252.939 36.479,253.079 37.167 C 253.218 37.854,253.528 39.279,253.767 40.333 C 254.006 41.387,254.299 42.737,254.417 43.333 C 254.536 43.929,254.751 44.904,254.896 45.500 C 255.421 47.657,255.706 48.940,255.932 50.167 C 256.059 50.854,256.239 51.604,256.332 51.833 C 256.425 52.063,256.604 52.813,256.731 53.500 C 257.090 55.452,257.498 57.311,257.848 58.583 C 258.024 59.225,258.167 59.902,258.167 60.089 C 258.167 60.275,258.281 60.837,258.421 61.339 C 258.560 61.840,258.778 62.775,258.904 63.417 C 259.030 64.058,259.252 65.071,259.397 65.667 C 259.927 67.848,260.207 69.111,260.433 70.333 C 260.560 71.021,260.777 71.915,260.915 72.321 C 261.054 72.727,261.167 73.217,261.167 73.410 C 261.167 73.603,261.281 74.171,261.420 74.672 C 261.560 75.173,261.776 76.146,261.902 76.833 C 262.027 77.521,262.249 78.571,262.395 79.167 C 262.961 81.482,263.217 82.631,263.435 83.833 C 263.560 84.521,263.736 85.253,263.828 85.460 C 263.919 85.667,264.073 86.342,264.169 86.960 C 264.265 87.578,264.455 88.425,264.591 88.842 C 264.727 89.259,264.856 90.009,264.877 90.509 L 264.917 91.417 262.702 91.463 L 260.487 91.510 260.228 90.890 C 260.086 90.549,259.895 89.853,259.804 89.343 C 259.713 88.834,259.522 87.967,259.381 87.417 C 259.239 86.867,259.029 85.892,258.915 85.250 C 258.714 84.121,258.449 82.931,257.895 80.667 C 257.749 80.071,257.532 79.006,257.413 78.299 C 257.294 77.593,257.146 76.934,257.084 76.834 C 257.022 76.735,256.832 75.925,256.660 75.035 C 255.862 70.899,255.379 68.889,255.059 68.375 L 254.826 68.000 242.850 68.000 C 229.391 68.000,230.606 67.874,230.209 69.315 C 230.093 69.738,229.917 70.496,229.818 71.000 C 229.719 71.504,229.522 72.367,229.381 72.917 C 229.239 73.467,229.029 74.442,228.915 75.083 C 228.801 75.725,228.584 76.775,228.433 77.417 C 227.862 79.853,227.510 81.437,227.417 82.000 C 227.323 82.561,226.980 84.109,226.401 86.583 C 226.250 87.225,226.029 88.313,225.908 89.000 C 225.455 91.583,225.516 91.537,222.667 91.465 L 220.750 91.417 220.695 90.934 C 220.665 90.668,220.794 89.806,220.983 89.017 C 221.712 85.972,221.883 85.211,222.099 84.045 C 222.221 83.383,222.431 82.446,222.564 81.962 C 222.697 81.479,222.851 80.783,222.907 80.417 C 222.962 80.050,223.149 79.188,223.322 78.500 C 223.817 76.532,224.312 74.332,224.484 73.333 C 224.570 72.829,224.721 72.209,224.818 71.954 C 224.915 71.700,225.074 70.987,225.171 70.371 C 225.269 69.754,225.456 68.875,225.587 68.417 C 225.829 67.574,226.149 66.119,226.593 63.833 C 226.727 63.146,226.943 62.246,227.073 61.833 C 227.204 61.421,227.356 60.746,227.412 60.333 C 227.468 59.921,227.654 59.021,227.826 58.333 C 228.348 56.241,228.713 54.638,228.927 53.500 C 229.133 52.403,229.455 50.971,229.939 49.000 C 230.086 48.404,230.297 47.429,230.408 46.833 C 230.619 45.700,230.982 44.108,231.508 42.000 C 231.679 41.313,231.865 40.412,231.921 40.000 C 231.977 39.587,232.130 38.912,232.260 38.500 C 232.391 38.087,232.607 37.188,232.740 36.500 C 233.185 34.215,233.504 32.759,233.746 31.917 C 233.878 31.458,234.065 30.579,234.162 29.963 C 234.259 29.346,234.418 28.634,234.515 28.379 C 234.612 28.125,234.763 27.504,234.850 27.000 C 235.026 25.978,235.533 23.730,236.015 21.833 C 236.190 21.146,236.399 20.171,236.480 19.667 C 236.562 19.162,236.749 18.244,236.897 17.625 C 237.045 17.006,237.288 15.994,237.436 15.375 C 237.584 14.756,237.800 13.762,237.915 13.167 C 238.031 12.571,238.247 11.636,238.396 11.090 C 238.545 10.544,238.666 9.944,238.666 9.757 C 238.666 9.570,238.813 8.892,238.993 8.250 C 239.173 7.608,239.436 6.521,239.577 5.833 C 240.097 3.301,240.310 2.479,240.506 2.242 C 240.746 1.954,244.483 1.890,244.997 2.165 M294.132 2.177 C 301.164 2.948,306.648 7.707,308.332 14.500 C 309.459 19.047,309.459 34.619,308.332 39.167 C 308.001 40.500,307.035 42.874,306.500 43.667 C 306.345 43.896,306.004 44.421,305.742 44.833 C 304.410 46.927,300.997 49.534,298.649 50.251 C 296.582 50.881,296.214 51.347,296.767 52.630 C 296.914 52.971,297.134 53.625,297.256 54.083 C 297.478 54.924,297.864 56.161,298.190 57.083 C 298.360 57.561,298.841 59.098,299.495 61.250 C 299.662 61.800,299.878 62.475,299.976 62.750 C 300.187 63.344,300.573 64.539,301.001 65.917 C 302.230 69.876,302.483 70.676,302.766 71.500 C 302.907 71.912,303.095 72.550,303.184 72.917 C 303.273 73.283,303.486 73.958,303.657 74.417 C 303.828 74.875,304.170 75.925,304.416 76.750 C 304.662 77.575,304.964 78.486,305.088 78.775 C 305.211 79.064,305.363 79.589,305.426 79.942 C 305.489 80.295,305.669 80.921,305.827 81.333 C 306.096 82.037,306.363 82.866,307.438 86.333 C 307.680 87.112,308.010 88.125,308.172 88.583 C 309.240 91.604,309.290 91.526,306.318 91.463 L 304.099 91.417 303.784 90.583 C 303.610 90.125,303.368 89.375,303.244 88.917 C 303.121 88.458,302.905 87.746,302.764 87.333 C 302.441 86.386,302.061 85.197,301.672 83.917 C 301.505 83.367,301.288 82.692,301.191 82.417 C 300.873 81.521,300.481 80.268,300.253 79.417 C 300.129 78.958,299.917 78.283,299.780 77.917 C 299.643 77.550,299.329 76.575,299.083 75.750 C 298.837 74.925,298.498 73.875,298.330 73.417 C 298.162 72.958,297.973 72.321,297.909 72.000 C 297.845 71.679,297.699 71.229,297.583 71.000 C 297.468 70.771,297.321 70.321,297.258 70.000 C 297.194 69.679,297.006 69.042,296.839 68.583 C 296.673 68.125,296.332 67.075,296.081 66.250 C 295.223 63.422,294.796 62.083,294.567 61.500 C 294.441 61.179,294.258 60.545,294.160 60.090 C 294.063 59.636,293.916 59.182,293.833 59.083 C 293.751 58.984,293.604 58.531,293.506 58.077 C 293.409 57.622,293.226 56.987,293.099 56.667 C 292.816 55.946,292.088 53.660,291.841 52.713 C 291.676 52.084,291.585 51.991,290.980 51.828 C 290.181 51.613,277.441 51.669,277.222 51.889 C 277.146 51.965,277.046 60.890,277.000 71.722 L 276.917 91.417 274.857 91.464 C 273.480 91.495,272.720 91.447,272.565 91.318 C 272.270 91.073,272.211 2.872,272.506 2.322 C 272.708 1.944,290.888 1.822,294.132 2.177 M339.798 2.177 C 341.268 2.338,343.954 3.035,344.761 3.464 C 344.938 3.558,345.587 3.881,346.202 4.182 C 349.591 5.838,352.561 9.639,353.808 13.917 C 354.761 17.184,354.750 16.789,354.750 46.917 C 354.750 72.767,354.730 74.720,354.448 76.667 C 354.153 78.692,353.486 81.241,353.072 81.917 C 352.960 82.100,352.812 82.436,352.744 82.663 C 352.676 82.891,352.492 83.266,352.335 83.497 C 352.178 83.728,351.759 84.355,351.404 84.890 C 349.490 87.772,346.247 89.882,342.250 90.846 C 339.594 91.486,339.101 91.509,328.583 91.462 L 318.250 91.417 318.208 46.934 C 318.177 14.190,318.215 2.392,318.353 2.226 C 318.592 1.938,337.231 1.896,339.798 2.177 M60.612 5.848 C 58.957 6.157,56.971 6.841,56.487 7.268 C 56.342 7.396,56.170 7.500,56.105 7.500 C 56.039 7.500,55.587 7.795,55.099 8.155 C 52.932 9.756,51.544 12.177,50.793 15.667 L 50.417 17.417 50.417 46.750 C 50.417 73.739,50.439 76.177,50.699 77.250 C 50.854 77.892,51.028 78.708,51.086 79.064 C 51.143 79.420,51.335 79.982,51.512 80.312 C 51.689 80.642,51.833 81.004,51.833 81.117 C 51.833 81.490,52.999 83.245,53.879 84.196 C 56.322 86.836,58.887 87.744,63.919 87.747 C 71.827 87.753,76.223 84.365,77.362 77.385 C 77.640 75.683,77.760 21.470,77.494 18.000 C 76.785 8.762,70.234 4.047,60.612 5.848 M6.458 6.838 C 5.979 7.132,6.009 46.571,6.489 46.827 C 7.722 47.487,23.760 46.884,25.273 46.120 C 25.536 45.988,25.964 45.829,26.225 45.766 C 26.486 45.703,26.899 45.517,27.142 45.352 C 27.385 45.187,27.919 44.834,28.329 44.568 C 30.895 42.900,32.708 39.542,33.150 35.638 C 33.385 33.572,33.391 20.189,33.159 18.035 C 32.545 12.352,29.729 8.901,24.333 7.221 L 22.917 6.780 14.833 6.719 C 9.272 6.678,6.659 6.715,6.458 6.838 M277.500 6.780 C 277.362 6.837,277.195 6.966,277.128 7.067 C 276.851 7.480,276.981 46.231,277.259 46.630 L 277.519 47.000 284.634 46.998 C 293.813 46.995,294.983 46.846,298.139 45.275 C 299.413 44.641,301.134 43.113,301.895 41.941 C 302.559 40.916,303.333 39.357,303.333 39.042 C 303.333 38.918,303.444 38.603,303.579 38.343 C 304.242 37.059,304.628 24.201,304.159 19.000 C 303.569 12.455,301.168 9.177,295.583 7.294 L 294.083 6.789 285.917 6.733 C 281.425 6.702,277.637 6.723,277.500 6.780 M323.125 6.838 C 322.697 7.100,322.668 86.144,323.095 86.571 C 323.938 87.414,340.306 86.781,342.480 85.822 C 342.881 85.645,343.273 85.500,343.351 85.500 C 343.649 85.500,345.453 84.237,346.304 83.433 C 347.742 82.075,348.452 80.859,349.284 78.333 L 349.750 76.917 349.750 46.833 L 349.750 16.750 349.375 15.756 C 349.169 15.209,348.998 14.646,348.995 14.506 C 348.992 14.365,348.784 13.838,348.533 13.333 C 346.880 10.018,344.880 8.412,340.833 7.148 C 339.414 6.705,323.790 6.432,323.125 6.838 M242.590 13.184 C 242.538 13.404,242.429 13.921,242.349 14.333 C 242.269 14.746,242.087 15.571,241.945 16.167 C 241.399 18.458,241.103 19.789,240.906 20.833 C 240.716 21.847,240.581 22.453,239.884 25.417 C 239.733 26.058,239.518 27.071,239.406 27.667 C 239.216 28.680,239.081 29.286,238.384 32.250 C 238.233 32.892,238.018 33.904,237.906 34.500 C 237.716 35.514,237.581 36.120,236.884 39.083 C 236.733 39.725,236.518 40.737,236.406 41.333 C 236.294 41.929,236.080 42.942,235.930 43.583 C 235.779 44.225,235.509 45.425,235.330 46.250 C 235.150 47.075,234.885 48.275,234.740 48.917 C 234.595 49.558,234.381 50.571,234.264 51.167 C 234.147 51.762,233.930 52.775,233.782 53.417 C 233.633 54.058,233.315 55.483,233.076 56.583 C 232.836 57.683,232.501 59.146,232.331 59.833 C 231.857 61.751,231.763 62.631,232.001 62.918 C 232.319 63.301,253.184 63.292,253.567 62.909 C 253.858 62.619,253.789 61.639,253.386 60.333 C 253.259 59.921,253.047 58.983,252.914 58.250 C 252.782 57.517,252.559 56.507,252.420 56.005 C 252.281 55.504,252.167 54.893,252.167 54.648 C 252.167 54.403,252.024 53.725,251.850 53.143 C 251.676 52.560,251.486 51.783,251.428 51.417 C 251.324 50.754,250.956 49.046,250.332 46.333 C 250.153 45.554,249.961 44.617,249.906 44.250 C 249.851 43.883,249.702 43.246,249.575 42.833 C 249.448 42.421,249.264 41.558,249.167 40.917 C 249.069 40.275,248.885 39.412,248.759 39.000 C 248.632 38.587,248.482 37.950,248.427 37.583 C 248.372 37.217,248.173 36.242,247.986 35.417 C 247.213 32.016,246.999 31.039,246.837 30.167 C 246.744 29.662,246.554 28.840,246.417 28.339 C 246.279 27.837,246.167 27.272,246.167 27.082 C 246.167 26.892,246.045 26.290,245.897 25.743 C 245.748 25.197,245.533 24.225,245.418 23.583 C 245.303 22.942,245.092 21.929,244.949 21.333 C 244.490 19.428,244.013 17.277,243.839 16.333 C 243.393 13.908,242.784 12.371,242.590 13.184 "
      stroke="none" fill="transparent" fill-rule="evenodd"></path>
  </g>
</svg>